<svg xmlns="http://www.w3.org/2000/svg" viewBox="0 0 721.39 638.33"><defs><style>.cls-1{fill:#4d4d4d;}.cls-2{fill:gray;}.cls-3{fill:#fff;}.cls-4{fill:#333;}.cls-5{fill:#c644ba;}.cls-6{fill:#f2f2f2;}.cls-7{fill:#d64ca8;}</style></defs><title>Asset 63</title><g id="Layer_2" data-name="Layer 2"><g id="_003_what_is_it_" data-name="003_what is it?"><path class="cls-1" d="M289.5,231.46V209.31l-5.61,4.88v-5.42l5.61-4.88h5v27.56Z"/><path class="cls-1" d="M311.45,231.69c-4.49,0-8.4-2.94-8.4-8.21V211.87c0-5.26,3.91-8.21,8.4-8.21s8.36,2.94,8.36,8.21v11.61C319.81,228.75,315.94,231.69,311.45,231.69Zm3.33-19.74c0-2.32-1.35-3.76-3.33-3.76s-3.37,1.43-3.37,3.76v11.5c0,2.32,1.39,3.72,3.37,3.72s3.33-1.39,3.33-3.72Z"/><path class="cls-1" d="M324.58,237.84V226h5.54v7.63Z"/><path class="cls-1" d="M343.27,231.69c-4.49,0-8.4-2.94-8.4-8.21V211.87c0-5.26,3.91-8.21,8.4-8.21s8.36,2.94,8.36,8.21v11.61C351.64,228.75,347.77,231.69,343.27,231.69Zm3.33-19.74c0-2.32-1.35-3.76-3.33-3.76s-3.37,1.43-3.37,3.76v11.5c0,2.32,1.39,3.72,3.37,3.72s3.33-1.39,3.33-3.72Z"/><path class="cls-1" d="M364.3,231.69c-4.49,0-8.4-2.94-8.4-8.21V211.87c0-5.26,3.91-8.21,8.4-8.21s8.36,2.94,8.36,8.21v11.61C372.66,228.75,368.79,231.69,364.3,231.69Zm3.33-19.74c0-2.32-1.35-3.76-3.33-3.76s-3.37,1.43-3.37,3.76v11.5c0,2.32,1.39,3.72,3.37,3.72s3.33-1.39,3.33-3.72Z"/><path class="cls-1" d="M385.32,231.69c-4.49,0-8.4-2.94-8.4-8.21V211.87c0-5.26,3.91-8.21,8.4-8.21s8.36,2.94,8.36,8.21v11.61C393.68,228.75,389.81,231.69,385.32,231.69Zm3.33-19.74c0-2.32-1.35-3.76-3.33-3.76s-3.37,1.43-3.37,3.76v11.5c0,2.32,1.39,3.72,3.37,3.72s3.33-1.39,3.33-3.72Z"/><path class="cls-1" d="M398.44,237.84V226H404v7.63Z"/><path class="cls-1" d="M417.14,231.69c-4.49,0-8.4-2.94-8.4-8.21V211.87c0-5.26,3.91-8.21,8.4-8.21s8.36,2.94,8.36,8.21v11.61C425.5,228.75,421.63,231.69,417.14,231.69Zm3.33-19.74c0-2.32-1.35-3.76-3.33-3.76s-3.37,1.43-3.37,3.76v11.5c0,2.32,1.39,3.72,3.37,3.72s3.33-1.39,3.33-3.72Z"/><path class="cls-1" d="M438.16,231.69c-4.49,0-8.4-2.94-8.4-8.21V211.87c0-5.26,3.91-8.21,8.4-8.21s8.36,2.94,8.36,8.21v11.61C446.53,228.75,442.65,231.69,438.16,231.69Zm3.33-19.74c0-2.32-1.35-3.76-3.33-3.76s-3.37,1.43-3.37,3.76v11.5c0,2.32,1.39,3.72,3.37,3.72s3.33-1.39,3.33-3.72Z"/><path class="cls-1" d="M459.19,231.69c-4.49,0-8.4-2.94-8.4-8.21V211.87c0-5.26,3.91-8.21,8.4-8.21s8.36,2.94,8.36,8.21v11.61C467.55,228.75,463.68,231.69,459.19,231.69Zm3.33-19.74c0-2.32-1.35-3.76-3.33-3.76s-3.37,1.43-3.37,3.76v11.5c0,2.32,1.39,3.72,3.37,3.72s3.33-1.39,3.33-3.72Z"/><path class="cls-1" d="M324.24,302c-3.85,3.85-9.35,5.58-15.42,5.58H287.75V249.17h21.07c6.07,0,11.56,1.72,15.42,5.58,6.56,6.56,5.9,14.6,5.9,23.37S330.8,295.41,324.24,302Zm-8-39c-2-2.38-4.59-3.61-8.53-3.61h-8.61v38h8.61c3.94,0,6.56-1.23,8.53-3.61,2.13-2.62,2.46-6.81,2.46-15.66S318.41,265.57,316.28,262.94Z"/><path class="cls-1" d="M377.13,301.65a22.68,22.68,0,0,1-31.57,0c-5.9-5.9-5.74-13.2-5.74-23.29s-.16-17.38,5.74-23.29a22.68,22.68,0,0,1,31.57,0c5.9,5.9,5.82,13.2,5.82,23.29S383,295.74,377.13,301.65ZM368.68,262a9.48,9.48,0,0,0-7.3-3.12A9.66,9.66,0,0,0,354,262c-2.21,2.46-2.79,5.17-2.79,16.4s.57,13.94,2.79,16.4a9.66,9.66,0,0,0,7.38,3.12,9.48,9.48,0,0,0,7.3-3.12c2.21-2.46,2.87-5.17,2.87-16.4S370.89,264.42,368.68,262Z"/><path class="cls-1" d="M415.26,259.33v48.22h-11.4V259.33H388.61V249.17h41.9v10.17Z"/><path class="cls-1" d="M447.56,308c-6.72,0-12.79-.74-18.2-6.15l7-7c3.53,3.53,8.12,4,11.4,4,3.69,0,7.54-1.23,7.54-4.43,0-2.13-1.15-3.61-4.51-3.94l-6.72-.66c-7.71-.74-12.46-4.1-12.46-12,0-8.86,7.79-13.61,16.48-13.61,6.64,0,12.22,1.15,16.32,5L457.81,276c-2.46-2.21-6.23-2.87-9.92-2.87-4.26,0-6.07,2-6.07,4.1,0,1.56.66,3.36,4.43,3.69l6.72.66c8.45.82,12.71,5.33,12.71,12.55C465.69,303.53,457.65,308,447.56,308Z"/><path class="cls-2" d="M375.77,89.34A167.59,167.59,0,0,1,535,204.58L591.82,186A228.26,228.26,0,0,0,374.88,28.6V89.35Z"/><path class="cls-3" d="M471.26,110.66v-3.59l8.17-9.49a3.76,3.76,0,0,0,1.14-2.64,2.66,2.66,0,1,0-5.31.06h-4c0-4,2.92-6.39,6.66-6.39S484.55,91,484.55,95c0,2.12-.83,3.25-2.33,5l-6.11,7.09h8.44v3.59Z"/><path class="cls-3" d="M494.47,110.84c-3.56,0-6.66-2.33-6.66-6.51V95.12c0-4.18,3.1-6.51,6.66-6.51a6.28,6.28,0,0,1,6.63,6.51v9.21A6.28,6.28,0,0,1,494.47,110.84Zm2.64-15.66c0-1.84-1.07-3-2.64-3a2.67,2.67,0,0,0-2.67,3v9.12a2.64,2.64,0,0,0,2.67,2.95c1.57,0,2.64-1.11,2.64-2.95Z"/><path class="cls-3" d="M508.84,100.07c-2.43,0-4.45-1.44-4.45-4.21v-3c0-2.76,2-4.21,4.45-4.21s4.45,1.44,4.45,4.21v3C513.29,98.62,511.24,100.07,508.84,100.07Zm1.57-7.12c0-1.17-.58-1.75-1.57-1.75s-1.57.58-1.57,1.75v2.79c0,1.17.58,1.75,1.57,1.75s1.57-.58,1.57-1.75Zm1.81,17.71h-3.13L519.43,88.8h3.13Zm10.56.18c-2.43,0-4.45-1.44-4.45-4.21v-3c0-2.76,2-4.21,4.45-4.21s4.45,1.44,4.45,4.21v3C527.23,109.4,525.17,110.84,522.78,110.84Zm1.57-7.12c0-1.17-.58-1.75-1.57-1.75s-1.57.58-1.57,1.75v2.79c0,1.17.55,1.75,1.57,1.75s1.57-.58,1.57-1.75Z"/><path class="cls-4" d="M543.29,256.86A167.52,167.52,0,0,1,375.77,424.38h-.7l.08,60.74a228.26,228.26,0,0,0,70.31-11.2c119.88-39,185.43-167.81,146.42-287.68L535,204.74A167.35,167.35,0,0,1,543.29,256.86Z"/><path class="cls-3" d="M513.67,383.56c-3.56,0-6.91-1.87-7-6.45h4a3,3,0,0,0,5.92-.18,2.81,2.81,0,0,0-3.07-3H513v-3.47h.58a2.51,2.51,0,0,0,2.76-2.73,2.69,2.69,0,1,0-5.37-.15h-4c.09-3.9,3-6.23,6.69-6.23,3.87,0,6.66,2.58,6.66,6.26a4.67,4.67,0,0,1-2.52,4.48,5.21,5.21,0,0,1,2.82,5C520.61,381.41,517.42,383.56,513.67,383.56Z"/><path class="cls-3" d="M530.44,383.56c-3.56,0-6.66-2.33-6.66-6.51v-9.21c0-4.18,3.1-6.51,6.66-6.51a6.28,6.28,0,0,1,6.63,6.51v9.21A6.28,6.28,0,0,1,530.44,383.56Zm2.64-15.66c0-1.84-1.07-3-2.64-3a2.67,2.67,0,0,0-2.67,3V377a2.64,2.64,0,0,0,2.67,2.95c1.57,0,2.64-1.11,2.64-2.95Z"/><path class="cls-3" d="M544.81,372.79c-2.43,0-4.45-1.44-4.45-4.21v-3c0-2.76,2-4.21,4.45-4.21s4.45,1.44,4.45,4.21v3C549.26,371.34,547.2,372.79,544.81,372.79Zm1.57-7.12c0-1.17-.58-1.75-1.57-1.75s-1.57.58-1.57,1.75v2.79c0,1.17.58,1.75,1.57,1.75s1.57-.58,1.57-1.75Zm1.81,17.71h-3.13l10.35-21.86h3.13Zm10.56.18c-2.43,0-4.45-1.44-4.45-4.21v-3c0-2.76,2-4.21,4.45-4.21s4.45,1.44,4.45,4.21v3C563.2,382.12,561.14,383.56,558.74,383.56Zm1.57-7.12c0-1.17-.58-1.75-1.57-1.75s-1.57.58-1.57,1.75v2.79c0,1.17.55,1.75,1.57,1.75s1.57-.58,1.57-1.75Z"/><path class="cls-5" d="M375.31,445.36h-.43v-21a167.51,167.51,0,0,1-.17-335l0-21h.43L375.07,0h-.2C233,.13,118.11,115.23,118.23,257.09S233.46,513.85,375.32,513.72Z"/><path class="cls-6" d="M375.31,445.36h-.43v-21a167.51,167.51,0,0,1-.17-335l0-21h.43L375.07,0h-.2C233,.13,118.11,115.23,118.23,257.09S233.46,513.85,375.32,513.72Z"/><path class="cls-7" d="M207.41,256.74A167.66,167.66,0,0,1,374.9,89.08V83.55h-.14a174,174,0,1,0,.31,347.91V424.4A167.66,167.66,0,0,1,207.41,256.74Z"/><path class="cls-1" d="M142,265.39a7.45,7.45,0,0,1-5.45,2,7.72,7.72,0,0,1-5.52-2,7.54,7.54,0,0,1-2-5.14h4.51c.24,1.94,1.15,3.05,3,3.05a2.91,2.91,0,0,0,2.15-.8c.8-.8,1-2.12,1-3.68,0-2.85-.83-4.44-3-4.44a2.87,2.87,0,0,0-3,2h-4.13v-14h14.09v4.06h-10v5.31a5.67,5.67,0,0,1,3.71-1.25,6.36,6.36,0,0,1,4.62,1.67c1.94,1.94,2.22,4.27,2.22,6.6C144.18,261.64,143.8,263.58,142,265.39Z"/><path class="cls-1" d="M155.32,267.4c-4,0-7.53-2.64-7.53-7.36V249.63c0-4.72,3.51-7.36,7.53-7.36s7.5,2.64,7.5,7.36V260C162.82,264.76,159.35,267.4,155.32,267.4Zm3-17.7c0-2.08-1.22-3.37-3-3.37s-3,1.28-3,3.37V260c0,2.08,1.25,3.33,3,3.33s3-1.25,3-3.33Z"/><path class="cls-1" d="M171.57,255.22c-2.74,0-5-1.63-5-4.76V247c0-3.12,2.29-4.76,5-4.76s5,1.63,5,4.76v3.44C176.6,253.59,174.27,255.22,171.57,255.22Zm1.77-8.05c0-1.32-.66-2-1.77-2s-1.77.66-1.77,2v3.16c0,1.32.66,2,1.77,2s1.77-.66,1.77-2Zm2,20h-3.54l11.7-24.72h3.54Zm11.94.21c-2.74,0-5-1.63-5-4.76v-3.44c0-3.12,2.29-4.76,5-4.76s5,1.63,5,4.76v3.44C192.36,265.77,190,267.4,187.33,267.4Zm1.77-8.05c0-1.32-.66-2-1.77-2s-1.77.66-1.77,2v3.16c0,1.32.63,2,1.77,2s1.77-.66,1.77-2Z"/><path class="cls-1" d="M48.76,620.12H45.89v5.63H43V610.8h5.79a4.67,4.67,0,1,1,0,9.32Zm-.15-6.72H45.89v4.09h2.73a2.05,2.05,0,1,0,0-4.09Z"/><path class="cls-1" d="M63.29,624.53a4.53,4.53,0,0,1-3.4,1.34,4.48,4.48,0,0,1-3.38-1.34c-1-1-1.24-2.27-1.24-4.26s.25-3.21,1.24-4.24a4.48,4.48,0,0,1,3.38-1.34,4.53,4.53,0,0,1,3.4,1.34c1,1,1.24,2.27,1.24,4.24S64.28,623.5,63.29,624.53Zm-2.12-6.91a1.73,1.73,0,0,0-1.28-.48,1.68,1.68,0,0,0-1.26.48,3.69,3.69,0,0,0-.63,2.65,3.75,3.75,0,0,0,.63,2.67,1.68,1.68,0,0,0,1.26.48,1.73,1.73,0,0,0,1.28-.48,3.75,3.75,0,0,0,.63-2.67A3.69,3.69,0,0,0,61.17,617.62Z"/><path class="cls-1" d="M70.22,625.75A3,3,0,0,1,67,622.62V610.8h2.73v11.65c0,.65.27,1,1,1h1v2.31Z"/><path class="cls-1" d="M80.53,625.75l-2.69-4.56-1.15,1.3v3.25H74V610.8h2.73v8.48l3.63-4.47h3.3l-3.91,4.41,4.2,6.53Z"/><path class="cls-1" d="M91.31,625.75v-.94a3.32,3.32,0,0,1-2.69,1,3.73,3.73,0,0,1-2.79-1,3.5,3.5,0,0,1-.9-2.46c0-1.74,1.2-3.17,3.74-3.17h2.58v-.55c0-1.2-.59-1.72-2-1.72a2.35,2.35,0,0,0-2.1.9l-1.74-1.7a4.6,4.6,0,0,1,3.95-1.51c3.07,0,4.66,1.3,4.66,3.86v7.2Zm-.06-4.62H89.08c-1,0-1.53.46-1.53,1.24s.5,1.26,1.57,1.26a2.16,2.16,0,0,0,1.72-.52,1.8,1.8,0,0,0,.4-1.39Z"/><path class="cls-1" d="M103,625.75v-1a3.28,3.28,0,0,1-2.71,1.15,3.86,3.86,0,0,1-2.69-1c-1.09-1.09-1.11-3-1.11-4.62s0-3.51,1.11-4.6a3.81,3.81,0,0,1,2.67-1,3.28,3.28,0,0,1,2.67,1.09v-5h2.73v14.95ZM101,617.14c-1.64,0-1.85,1.34-1.85,3.13s.21,3.15,1.85,3.15,1.87-1.36,1.87-3.15S102.67,617.14,101,617.14Z"/><path class="cls-1" d="M116.26,624.53a4.53,4.53,0,0,1-3.4,1.34,4.48,4.48,0,0,1-3.38-1.34c-1-1-1.24-2.27-1.24-4.26s.25-3.21,1.24-4.24a4.48,4.48,0,0,1,3.38-1.34,4.53,4.53,0,0,1,3.4,1.34c1,1,1.24,2.27,1.24,4.24S117.24,623.5,116.26,624.53Zm-2.12-6.91a1.73,1.73,0,0,0-1.28-.48,1.68,1.68,0,0,0-1.26.48,3.69,3.69,0,0,0-.63,2.65,3.75,3.75,0,0,0,.63,2.67,1.68,1.68,0,0,0,1.26.48,1.73,1.73,0,0,0,1.28-.48,3.75,3.75,0,0,0,.63-2.67A3.69,3.69,0,0,0,114.13,617.62Z"/><path class="cls-1" d="M123.52,625.75a3,3,0,0,1-3.17-3.13V617.2H119.2v-2.08h1.15v-3.23h2.73v3.23H125v2.08h-1.93v5.25c0,.63.29,1,.94,1h1v2.31Z"/><path class="cls-1" d="M141.08,625.75l-.88-2.65h-5.31l-.9,2.65h-3l5.44-14.95h2.29l5.46,14.95Zm-3.49-10.54-1.89,5.44h3.72Z"/><path class="cls-1" d="M152.06,625.75v-1a3.74,3.74,0,0,1-2.73,1.13,3.55,3.55,0,0,1-2.58-1,4.05,4.05,0,0,1-1.11-3.11v-7h2.73v6.61a1.82,1.82,0,1,0,3.63,0v-6.61h2.73v10.94Z"/><path class="cls-1" d="M162.14,625.88c-2.18,0-4.89-1.18-4.89-5.61s2.71-5.58,4.89-5.58a4.66,4.66,0,0,1,3.61,1.47L163.9,618a2.21,2.21,0,0,0-1.76-.86,1.89,1.89,0,0,0-1.55.71,3.71,3.71,0,0,0-.61,2.41,3.77,3.77,0,0,0,.61,2.44,1.89,1.89,0,0,0,1.55.71,2.21,2.21,0,0,0,1.76-.86l1.85,1.83A4.68,4.68,0,0,1,162.14,625.88Z"/><path class="cls-1" d="M171.3,625.75a3,3,0,0,1-3.17-3.13V617.2H167v-2.08h1.15v-3.23h2.73v3.23h1.93v2.08h-1.93v5.25c0,.63.29,1,.94,1h1v2.31Z"/><path class="cls-1" d="M175.22,612.94v-2.23H178v2.23Zm0,12.81V614.81H178v10.94Z"/><path class="cls-1" d="M188.6,624.53a4.53,4.53,0,0,1-3.4,1.34,4.48,4.48,0,0,1-3.38-1.34c-1-1-1.24-2.27-1.24-4.26s.25-3.21,1.24-4.24a4.48,4.48,0,0,1,3.38-1.34,4.53,4.53,0,0,1,3.4,1.34c1,1,1.24,2.27,1.24,4.24S189.59,623.5,188.6,624.53Zm-2.12-6.91a1.73,1.73,0,0,0-1.28-.48,1.68,1.68,0,0,0-1.26.48,3.69,3.69,0,0,0-.63,2.65,3.75,3.75,0,0,0,.63,2.67,1.68,1.68,0,0,0,1.26.48,1.73,1.73,0,0,0,1.28-.48,3.75,3.75,0,0,0,.63-2.67A3.69,3.69,0,0,0,186.48,617.62Z"/><path class="cls-1" d="M198.8,625.75v-6.61a1.82,1.82,0,1,0-3.63,0v6.61h-2.73V614.81h2.67v1a3.74,3.74,0,0,1,2.73-1.13,3.55,3.55,0,0,1,2.58,1,4.05,4.05,0,0,1,1.11,3.11v7Z"/><circle class="cls-7" cx="13.45" cy="617.74" r="13.45"/><circle class="cls-6" cx="13.45" cy="617.74" r="9.51"/><path class="cls-1" d="M299.24,600.66v3.67h5.9v2.6h-5.9V613h-2.92V598.06h9.85v2.6Z"/><path class="cls-1" d="M314.17,613v-1a3.74,3.74,0,0,1-2.73,1.13,3.55,3.55,0,0,1-2.58-1,4.05,4.05,0,0,1-1.11-3.11v-7h2.73v6.61a1.82,1.82,0,1,0,3.63,0v-6.61h2.73V613Z"/><path class="cls-1" d="M325.84,605a1.82,1.82,0,0,0-3.21,1.36V613H319.9V602.07h2.67v1a3.7,3.7,0,0,1,2.75-1.18,3.3,3.3,0,0,1,2.58,1Z"/><path class="cls-1" d="M332.88,613a3,3,0,0,1-3.17-3.13v-5.42h-1.15v-2.08h1.15v-3.23h2.73v3.23h1.93v2.08h-1.93v5.25c0,.63.29,1,.94,1h1V613Z"/><path class="cls-1" d="M343.12,613v-6.68a1.78,1.78,0,1,0-3.55,0V613h-2.73V598.06h2.73v5a3.61,3.61,0,0,1,2.62-1.13c2.39,0,3.65,1.68,3.65,4V613Z"/><path class="cls-1" d="M350.94,608.39a2.26,2.26,0,0,0,2.39,2.44,3,3,0,0,0,2.48-1l1.66,1.62a5.21,5.21,0,0,1-4.16,1.72c-2.58,0-5.06-1.18-5.06-5.61,0-3.57,1.93-5.58,4.77-5.58,3,0,4.77,2.23,4.77,5.23v1.22Zm3.91-3a2,2,0,0,0-3.65,0,3,3,0,0,0-.25,1.18h4.16A3,3,0,0,0,354.84,605.34Z"/><path class="cls-1" d="M366.25,605a1.82,1.82,0,0,0-3.21,1.36V613H360.3V602.07H363v1a3.7,3.7,0,0,1,2.75-1.18,3.3,3.3,0,0,1,2.58,1Z"/><path class="cls-1" d="M382.77,612.14a3.81,3.81,0,0,1-2.67,1,3.23,3.23,0,0,1-2.65-1.09v5h-2.73V602.07h2.65v1a3.33,3.33,0,0,1,2.73-1.15,3.81,3.81,0,0,1,2.67,1c1.09,1.09,1.11,3,1.11,4.6S383.86,611.05,382.77,612.14Zm-3.46-7.75c-1.64,0-1.85,1.34-1.85,3.13s.21,3.15,1.85,3.15,1.85-1.36,1.85-3.15S380.94,604.4,379.31,604.4Z"/><path class="cls-1" d="M392.43,605a1.82,1.82,0,0,0-3.21,1.36V613h-2.73V602.07h2.67v1a3.7,3.7,0,0,1,2.75-1.18,3.3,3.3,0,0,1,2.58,1Z"/><path class="cls-1" d="M397.54,608.39a2.26,2.26,0,0,0,2.39,2.44,3,3,0,0,0,2.48-1l1.66,1.62a5.21,5.21,0,0,1-4.16,1.72c-2.58,0-5.06-1.18-5.06-5.61,0-3.57,1.93-5.58,4.77-5.58,3,0,4.77,2.23,4.77,5.23v1.22Zm3.91-3a2,2,0,0,0-3.65,0,3,3,0,0,0-.25,1.18h4.16A3,3,0,0,0,401.44,605.34Z"/><path class="cls-1" d="M406.61,608.28v-2.54h6.47v2.54Z"/><path class="cls-1" d="M418.93,613a3,3,0,0,1-3.19-3.13V598.06h2.73v11.65c0,.65.27,1,1,1h1V613Z"/><path class="cls-1" d="M428.28,613v-.94a3.32,3.32,0,0,1-2.69,1,3.73,3.73,0,0,1-2.79-1,3.5,3.5,0,0,1-.9-2.46c0-1.74,1.2-3.17,3.74-3.17h2.58V606c0-1.2-.59-1.72-2-1.72a2.35,2.35,0,0,0-2.1.9l-1.74-1.7a4.6,4.6,0,0,1,3.95-1.51c3.07,0,4.66,1.3,4.66,3.86V613Zm-.06-4.62h-2.16c-1,0-1.53.46-1.53,1.24s.5,1.26,1.57,1.26a2.16,2.16,0,0,0,1.72-.52,1.8,1.8,0,0,0,.4-1.39Z"/><path class="cls-1" d="M440.18,613v-1a3.74,3.74,0,0,1-2.73,1.13,3.55,3.55,0,0,1-2.58-1,4.05,4.05,0,0,1-1.11-3.11v-7h2.73v6.61a1.82,1.82,0,1,0,3.63,0v-6.61h2.73V613Z"/><path class="cls-1" d="M452.28,613v-6.61a1.82,1.82,0,1,0-3.63,0V613h-2.73V602.07h2.67v1a3.74,3.74,0,0,1,2.73-1.13,3.55,3.55,0,0,1,2.58,1A4.05,4.05,0,0,1,455,606v7Z"/><path class="cls-1" d="M462.3,613.13c-2.18,0-4.89-1.18-4.89-5.61s2.71-5.58,4.89-5.58a4.66,4.66,0,0,1,3.61,1.47l-1.85,1.85a2.21,2.21,0,0,0-1.76-.86,1.89,1.89,0,0,0-1.55.71,3.71,3.71,0,0,0-.61,2.41,3.77,3.77,0,0,0,.61,2.44,1.89,1.89,0,0,0,1.55.71,2.21,2.21,0,0,0,1.76-.86l1.85,1.83A4.68,4.68,0,0,1,462.3,613.13Z"/><path class="cls-1" d="M474.31,613v-6.68a1.78,1.78,0,1,0-3.55,0V613H468V598.06h2.73v5a3.61,3.61,0,0,1,2.62-1.13c2.39,0,3.65,1.68,3.65,4V613Z"/><path class="cls-1" d="M302.15,638.21v-1a3.28,3.28,0,0,1-2.71,1.15,3.86,3.86,0,0,1-2.69-1c-1.09-1.09-1.11-3-1.11-4.62s0-3.51,1.11-4.6a3.81,3.81,0,0,1,2.67-1,3.28,3.28,0,0,1,2.67,1.09v-5h2.73v14.95Zm-1.93-8.61c-1.64,0-1.85,1.34-1.85,3.13s.21,3.15,1.85,3.15,1.87-1.36,1.87-3.15S301.86,629.6,300.22,629.6Z"/><path class="cls-1" d="M307.85,625.4v-2.23h2.79v2.23Zm0,12.81V627.27h2.73v10.94Z"/><path class="cls-1" d="M317.25,638.33a6,6,0,0,1-4.66-1.57l1.78-1.78a4,4,0,0,0,2.92,1c.94,0,1.93-.31,1.93-1.13,0-.55-.29-.92-1.15-1l-1.72-.17c-2-.19-3.19-1-3.19-3.07,0-2.27,2-3.49,4.22-3.49a5.81,5.81,0,0,1,4.18,1.28l-1.68,1.7a3.8,3.8,0,0,0-2.54-.73c-1.09,0-1.55.5-1.55,1s.17.86,1.13.94l1.72.17c2.16.21,3.25,1.36,3.25,3.21C321.89,637.18,319.84,638.33,317.25,638.33Z"/><path class="cls-1" d="M327.4,638.21a3,3,0,0,1-3.17-3.13v-5.42h-1.15v-2.08h1.15v-3.23H327v3.23h1.93v2.08H327v5.25c0,.63.29,1,.94,1h1v2.31Z"/><path class="cls-1" d="M337.31,630.25a1.82,1.82,0,0,0-3.21,1.36v6.59h-2.73V627.27H334v1a3.7,3.7,0,0,1,2.75-1.18,3.3,3.3,0,0,1,2.58,1Z"/><path class="cls-1" d="M340.88,625.4v-2.23h2.79v2.23Zm0,12.81V627.27h2.73v10.94Z"/><path class="cls-1" d="M354.74,637.35a3.81,3.81,0,0,1-2.67,1,3.33,3.33,0,0,1-2.73-1.15v1h-2.65V623.26h2.73v5a3.23,3.23,0,0,1,2.65-1.09,3.81,3.81,0,0,1,2.67,1c1.09,1.09,1.11,3,1.11,4.6S355.83,636.25,354.74,637.35Zm-3.46-7.75c-1.64,0-1.85,1.34-1.85,3.13s.21,3.15,1.85,3.15,1.85-1.36,1.85-3.15S352.91,629.6,351.27,629.6Z"/><path class="cls-1" d="M364.75,638.21v-1a3.74,3.74,0,0,1-2.73,1.13,3.55,3.55,0,0,1-2.58-1,4.05,4.05,0,0,1-1.11-3.11v-7h2.73v6.61a1.82,1.82,0,1,0,3.63,0v-6.61h2.73v10.94Z"/><path class="cls-1" d="M373.91,638.21a3,3,0,0,1-3.17-3.13v-5.42h-1.15v-2.08h1.15v-3.23h2.73v3.23h1.93v2.08h-1.93v5.25c0,.63.29,1,.94,1h1v2.31Z"/><path class="cls-1" d="M377.84,625.4v-2.23h2.79v2.23Zm0,12.81V627.27h2.73v10.94Z"/><path class="cls-1" d="M391.21,637a4.53,4.53,0,0,1-3.4,1.34,4.48,4.48,0,0,1-3.38-1.34c-1-1-1.24-2.27-1.24-4.26s.25-3.21,1.24-4.24a4.48,4.48,0,0,1,3.38-1.34,4.53,4.53,0,0,1,3.4,1.34c1,1,1.24,2.27,1.24,4.24S392.2,636,391.21,637Zm-2.12-6.91a1.73,1.73,0,0,0-1.28-.48,1.68,1.68,0,0,0-1.26.48,3.69,3.69,0,0,0-.63,2.65,3.75,3.75,0,0,0,.63,2.67,1.68,1.68,0,0,0,1.26.48,1.73,1.73,0,0,0,1.28-.48,3.75,3.75,0,0,0,.63-2.67A3.69,3.69,0,0,0,389.09,630.08Z"/><path class="cls-1" d="M401.42,638.21v-6.61a1.82,1.82,0,1,0-3.63,0v6.61h-2.73V627.27h2.67v1a3.74,3.74,0,0,1,2.73-1.13,3.55,3.55,0,0,1,2.58,1,4.05,4.05,0,0,1,1.11,3.11v7Z"/><path class="cls-1" d="M410.68,638.33a6,6,0,0,1-4.66-1.57L407.8,635a4,4,0,0,0,2.92,1c.94,0,1.93-.31,1.93-1.13,0-.55-.29-.92-1.15-1l-1.72-.17c-2-.19-3.19-1-3.19-3.07,0-2.27,2-3.49,4.22-3.49a5.81,5.81,0,0,1,4.18,1.28l-1.68,1.7a3.8,3.8,0,0,0-2.54-.73c-1.09,0-1.55.5-1.55,1s.17.86,1.13.94l1.72.17c2.16.21,3.25,1.36,3.25,3.21C415.32,637.18,413.26,638.33,410.68,638.33Z"/><circle class="cls-2" cx="266.8" cy="616.87" r="13.45"/><path class="cls-1" d="M573.19,626.17h-2.44L568,617.1l-2.75,9.07h-2.44l-4-14.95h3l2.31,9.43,2.73-9.43h2.18l2.73,9.43,2.33-9.43h3Z"/><path class="cls-1" d="M580.16,621.55a2.26,2.26,0,0,0,2.39,2.44,3,3,0,0,0,2.48-1l1.66,1.62a5.21,5.21,0,0,1-4.16,1.72c-2.58,0-5.06-1.18-5.06-5.61,0-3.57,1.93-5.58,4.77-5.58,3,0,4.77,2.23,4.77,5.23v1.22Zm3.91-3a2,2,0,0,0-3.65,0,3,3,0,0,0-.25,1.18h4.16A3,3,0,0,0,584.07,618.51Z"/><path class="cls-1" d="M597.57,625.31a3.81,3.81,0,0,1-2.67,1,3.33,3.33,0,0,1-2.73-1.15v1h-2.65V611.22h2.73v5a3.23,3.23,0,0,1,2.65-1.09,3.81,3.81,0,0,1,2.67,1c1.09,1.09,1.11,3,1.11,4.6S598.66,624.22,597.57,625.31Zm-3.46-7.75c-1.64,0-1.85,1.34-1.85,3.13s.21,3.15,1.85,3.15,1.85-1.36,1.85-3.15S595.75,617.56,594.11,617.56Z"/><path class="cls-1" d="M605.41,626.3c-2.44,0-4.72-1.28-4.77-4.41h2.73a2,2,0,0,0,4.05-.13,1.92,1.92,0,0,0-2.1-2.06h-.4v-2.37h.4a1.72,1.72,0,0,0,1.89-1.87,1.84,1.84,0,1,0-3.67-.1h-2.73a4.58,4.58,0,0,1,9.13,0,3.19,3.19,0,0,1-1.72,3.07,3.56,3.56,0,0,1,1.93,3.4C610.15,624.83,608,626.3,605.41,626.3Z"/><path class="cls-1" d="M620.69,613.83v3.67h5.9v2.6h-5.9v6.07h-2.92V611.22h9.85v2.6Z"/><path class="cls-1" d="M636.82,625a4.53,4.53,0,0,1-3.4,1.34A4.48,4.48,0,0,1,630,625c-1-1-1.24-2.27-1.24-4.26s.25-3.21,1.24-4.24a4.48,4.48,0,0,1,3.38-1.34,4.53,4.53,0,0,1,3.4,1.34c1,1,1.24,2.27,1.24,4.24S637.81,623.93,636.82,625ZM634.7,618a1.73,1.73,0,0,0-1.28-.48,1.68,1.68,0,0,0-1.26.48,3.69,3.69,0,0,0-.63,2.65,3.75,3.75,0,0,0,.63,2.67,1.68,1.68,0,0,0,1.26.48,1.73,1.73,0,0,0,1.28-.48,3.75,3.75,0,0,0,.63-2.67A3.69,3.69,0,0,0,634.7,618Z"/><path class="cls-1" d="M647,626.17v-1a3.74,3.74,0,0,1-2.73,1.13,3.55,3.55,0,0,1-2.58-1,4.05,4.05,0,0,1-1.11-3.11v-7h2.73v6.61a1.82,1.82,0,1,0,3.63,0v-6.61h2.73v10.94Z"/><path class="cls-1" d="M659.06,626.17v-6.61a1.82,1.82,0,1,0-3.63,0v6.61H652.7V615.23h2.67v1a3.74,3.74,0,0,1,2.73-1.13,3.55,3.55,0,0,1,2.58,1,4.05,4.05,0,0,1,1.11,3.11v7Z"/><path class="cls-1" d="M670.78,626.17v-1a3.28,3.28,0,0,1-2.71,1.15,3.86,3.86,0,0,1-2.69-1c-1.09-1.09-1.11-3-1.11-4.62s0-3.51,1.11-4.6a3.81,3.81,0,0,1,2.67-1,3.28,3.28,0,0,1,2.67,1.09v-5h2.73v14.95Zm-1.93-8.61c-1.64,0-1.85,1.34-1.85,3.13s.21,3.15,1.85,3.15,1.87-1.36,1.87-3.15S670.49,617.56,668.85,617.56Z"/><path class="cls-1" d="M682.12,626.17v-.94a3.32,3.32,0,0,1-2.69,1,3.73,3.73,0,0,1-2.79-1,3.5,3.5,0,0,1-.9-2.46c0-1.74,1.2-3.17,3.74-3.17h2.58v-.55c0-1.2-.59-1.72-2-1.72a2.35,2.35,0,0,0-2.1.9l-1.74-1.7a4.6,4.6,0,0,1,3.95-1.51c3.07,0,4.66,1.3,4.66,3.86v7.2Zm-.06-4.62h-2.16c-1,0-1.53.46-1.53,1.24s.5,1.26,1.57,1.26a2.16,2.16,0,0,0,1.72-.52,1.8,1.8,0,0,0,.4-1.39Z"/><path class="cls-1" d="M691.15,626.17A3,3,0,0,1,688,623v-5.42h-1.15v-2.08H688v-3.23h2.73v3.23h1.93v2.08h-1.93v5.25c0,.63.29,1,.94,1h1v2.31Z"/><path class="cls-1" d="M695.08,613.37v-2.23h2.79v2.23Zm0,12.81V615.23h2.73v10.94Z"/><path class="cls-1" d="M708.45,625a4.53,4.53,0,0,1-3.4,1.34,4.48,4.48,0,0,1-3.38-1.34c-1-1-1.24-2.27-1.24-4.26s.25-3.21,1.24-4.24a4.48,4.48,0,0,1,3.38-1.34,4.53,4.53,0,0,1,3.4,1.34c1,1,1.24,2.27,1.24,4.24S709.44,623.93,708.45,625ZM706.33,618a1.73,1.73,0,0,0-1.28-.48,1.68,1.68,0,0,0-1.26.48,3.69,3.69,0,0,0-.63,2.65,3.75,3.75,0,0,0,.63,2.67,1.68,1.68,0,0,0,1.26.48,1.73,1.73,0,0,0,1.28-.48,3.75,3.75,0,0,0,.63-2.67A3.69,3.69,0,0,0,706.33,618Z"/><path class="cls-1" d="M718.66,626.17v-6.61a1.82,1.82,0,1,0-3.63,0v6.61H712.3V615.23H715v1a3.74,3.74,0,0,1,2.73-1.13,3.55,3.55,0,0,1,2.58,1,4.05,4.05,0,0,1,1.11,3.11v7Z"/><circle class="cls-4" cx="530.92" cy="618.86" r="13.45"/></g></g></svg>