<svg xmlns="http://www.w3.org/2000/svg" viewBox="0 0 151.91 151.91"><defs><style>.cls-1{fill:#fff;}.cls-2{fill:#4d4d4d;}</style></defs><title>Asset 61</title><g id="Layer_2" data-name="Layer 2"><g id="_008_video_wall" data-name="008_video_wall"><circle class="cls-1" cx="75.96" cy="75.96" r="75.96"/><path class="cls-2" d="M97.44,108.52a30.67,30.67,0,1,1,30.67-30.67,30.7,30.7,0,0,1-30.67,30.67m0-58.44a27.77,27.77,0,1,0,27.77,27.77A27.8,27.8,0,0,0,97.44,50.08"/><path class="cls-2" d="M83.75,64.06H89.6a6.77,6.77,0,0,1,5.15,1.88,7.33,7.33,0,0,1,1.78,5.25v12.9q0,3.87-1.88,5.72a7.41,7.41,0,0,1-5.41,1.84h-5.5Zm4,23.87h1.82a2.93,2.93,0,0,0,2.36-.83,4,4,0,0,0,.7-2.62V71.19a4.18,4.18,0,0,0-.66-2.52,2.81,2.81,0,0,0-2.4-.89H87.7Z"/><path class="cls-2" d="M100.25,64.06H106a8.1,8.1,0,0,1,3.24.58,6.11,6.11,0,0,1,2.19,1.55,5.81,5.81,0,0,1,1.22,2.23A9.28,9.28,0,0,1,113,71v1a8.8,8.8,0,0,1-.17,1.9,4.57,4.57,0,0,1-.52,1.36,4.35,4.35,0,0,1-.85,1,7.44,7.44,0,0,1-1.16.83,4.27,4.27,0,0,1,2.05,2,7.72,7.72,0,0,1,.66,3.47v1.55a8,8,0,0,1-1.76,5.58q-1.76,1.94-5.64,1.94h-5.39Zm4,11.31H106a3,3,0,0,0,2.65-1,5.1,5.1,0,0,0,.68-2.89,4.36,4.36,0,0,0-.76-2.79,3.36,3.36,0,0,0-2.73-.93h-1.63Zm0,12.32h1.7a4.17,4.17,0,0,0,1.88-.35,2.41,2.41,0,0,0,1-1,3.65,3.65,0,0,0,.43-1.47q.08-.85.08-1.86a12.42,12.42,0,0,0-.12-1.82,3,3,0,0,0-.48-1.3,2.28,2.28,0,0,0-1-.79,4.67,4.67,0,0,0-1.74-.27h-1.74Z"/><path class="cls-2" d="M56.76,105c-2.73,2.5-6.11,3.54-11.66,3.54H34.2a1,1,0,0,1-1-1V48.07a1,1,0,0,1,1-1h11c5.45,0,8.74.95,11.37,3.54,2.82,2.76,3.67,6,3.67,12.34,0,4.32-.56,8.11-3.95,11.22a10.06,10.06,0,0,1-4.23,2.42,9.36,9.36,0,0,1,4.61,2.42c3.67,3.45,4.14,8,4.14,12.43,0,7.6-1.22,10.88-4,13.55M45.29,51.7H39.74a1,1,0,0,0-1,1V73.53a1,1,0,0,0,1,1h5.54c6,0,9.4-3.19,9.4-11.39,0-9-3.38-11.39-9.4-11.39m0,27.28H39.74a1,1,0,0,0-1,1v23.13a1,1,0,0,0,1,1h5.54c6.39,0,10-2.68,10-12.52,0-9-3.57-12.52-10-12.52"/></g></g></svg>