<svg xmlns="http://www.w3.org/2000/svg" viewBox="0 0 151.91 151.91"><defs><style>.cls-1{fill:#fff;}.cls-2{fill:#4d4d4d;}</style></defs><title>Asset 59</title><g id="Layer_2" data-name="Layer 2"><g id="_008_video_wall" data-name="008_video_wall"><circle class="cls-1" cx="75.96" cy="75.96" r="75.96"/><path class="cls-2" d="M76.11,130.44,34.27,88.6,76.11,46.77,117.94,88.6ZM36.43,88.6l39.67,39.67L115.78,88.6,76.11,48.93Z"/><path class="cls-2" d="M76.11,122,34.27,80.2,76.11,38.37,117.94,80.2ZM36.43,80.2l39.67,39.67L115.78,80.2,76.11,40.53Z"/><path class="cls-2" d="M76.11,113.55,34.27,71.71,76.11,29.88l41.83,41.83ZM36.43,71.71l39.67,39.67,39.67-39.67L76.11,32Z"/><path class="cls-2" d="M76.11,105.15,34.27,63.31,76.11,21.48l41.83,41.83ZM36.43,63.31,76.11,103l39.67-39.67L76.11,23.64Z"/></g></g></svg>