<svg id="图层_1" data-name="图层 1" xmlns="http://www.w3.org/2000/svg" viewBox="0 0 341 341"><defs><style>.cls-1{fill:#fff200;}.cls-2{fill:#ffc55f;}.cls-3{fill:#2f3a50;}</style></defs><title>未标题-1</title><path class="cls-1" d="M170.78,240.85A87.85,87.85,0,1,1,258.63,153,87.95,87.95,0,0,1,170.78,240.85Zm0-169.2A81.35,81.35,0,1,0,252.13,153,81.45,81.45,0,0,0,170.78,71.65Z"/><path class="cls-2" d="M231.5,150.64v-9.81a.66.66,0,0,0-.2-.48.6.6,0,0,0-.49-.18c-5.49.23-10.61.44-15.43.63.34-10.83,1.13-22.16,2.47-35.57a.66.66,0,0,0-.66-.73H204.89a.66.66,0,0,0-.6.39l-5,10.83c-4.47,9.73-8.34,18.14-11.77,25.92-11.57.22-21.93.22-33.49,0-3.43-7.77-7.32-16.18-11.8-25.9q-2.41-5.22-5-10.84a.66.66,0,0,0-.6-.39H124.38a.66.66,0,0,0-.66.73c1.34,13.41,2.13,24.74,2.47,35.57-4.82-.18-9.94-.39-15.43-.63a.63.63,0,0,0-.49.18.66.66,0,0,0-.2.48v9.81a.66.66,0,0,0,.66.66l15.66.13c0,3.42,0,6.87-.09,10.27l-15.58.52a.66.66,0,0,0-.64.66v9.81a.66.66,0,0,0,.21.48.68.68,0,0,0,.5.18c5.35-.34,10.37-.64,15.13-.9-.42,8.62-1.13,17.89-2.17,28.32a.66.66,0,0,0,.66.73h9a.66.66,0,0,0,.66-.59c1.31-11.31,2.17-20.55,2.68-29,7.18-.34,13.68-.57,19.83-.71,2.82,7.7,5.67,16.37,9.49,28.86l.3,1a.66.66,0,0,0,.63.47h7.68a.66.66,0,0,0,.63-.47c4-13,6.92-22,9.79-29.84,6.15.14,12.65.37,19.83.71.51,8.47,1.37,17.71,2.68,29a.66.66,0,0,0,.66.59h9a.66.66,0,0,0,.66-.73c-1-10.43-1.75-19.7-2.17-28.32,4.76.26,9.78.56,15.13.9a.66.66,0,0,0,.7-.66v-9.81a.66.66,0,0,0-.64-.66l-15.58-.52c-.08-3.44-.11-6.89-.1-10.27l15.66-.13A.66.66,0,0,0,231.5,150.64Zm-33.87-9.25c2.43-5.18,5.1-10.68,7.9-16.45-.48,5.79-.82,11.14-1,16.24Zm6.77,20c-5.6-.15-10.67-.27-15.44-.35,1.26-3.09,2.57-6.2,4-9.46l11.31-.07C204.27,154.82,204.31,158.07,204.4,161.39Zm-21.15-9.77c-1.32,3.16-2.57,6.21-3.79,9.3-2.93,0-5.81,0-8.69,0s-5.7,0-8.58,0c-1.24-3.12-2.49-6.17-3.81-9.3C166.83,151.64,174.81,151.65,183.25,151.62Zm-7.67,19.43c-1.47,3.94-3,8.26-4.73,13.12-1.73-4.9-3.3-9.21-4.76-13.12C169.29,171,172.41,171,175.58,171.05Zm-38.31-19.54,11.31.07c1.44,3.26,2.76,6.37,4,9.46-4.77.08-9.84.19-15.44.35C137.26,158,137.29,154.8,137.28,151.51ZM137,141.18c-.2-5.12-.54-10.47-1-16.24,2.81,5.78,5.47,11.27,7.9,16.45Z"/><path class="cls-2" d="M170.5,242.81A89.8,89.8,0,1,1,260.3,153,89.91,89.91,0,0,1,170.5,242.81Zm0-173A83.16,83.16,0,1,0,253.66,153,83.26,83.26,0,0,0,170.5,69.84Z"/></svg>