<svg id="图层_1" data-name="图层 1" xmlns="http://www.w3.org/2000/svg" viewBox="0 0 341 341"><defs><style>.cls-1{fill:#fff200;}.cls-2{fill:#ffc55f;}.cls-3{fill:#2f3a50;}</style></defs><title>未标题-1</title><path class="cls-1" d="M170.78,240.85A87.85,87.85,0,1,1,258.63,153,87.95,87.95,0,0,1,170.78,240.85Zm0-169.2A81.35,81.35,0,1,0,252.13,153,81.45,81.45,0,0,0,170.78,71.65Z"/><path class="cls-2" d="M231.5,150.64v-9.81a.66.66,0,0,0-.2-.48.6.6,0,0,0-.49-.18c-5.49.23-10.61.44-15.43.63.34-10.83,1.13-22.16,2.47-35.57a.66.66,0,0,0-.66-.73H204.89a.66.66,0,0,0-.6.39l-5,10.83c-4.47,9.73-8.34,18.14-11.77,25.92-11.57.22-21.93.22-33.49,0-3.43-7.77-7.32-16.18-11.8-25.9q-2.41-5.22-5-10.84a.66.66,0,0,0-.6-.39H124.38a.66.66,0,0,0-.66.73c1.34,13.41,2.13,24.74,2.47,35.57-4.82-.18-9.94-.39-15.43-.63a.63.63,0,0,0-.49.18.66.66,0,0,0-.2.48v9.81a.66.66,0,0,0,.66.66l15.66.13c0,3.42,0,6.87-.09,10.27l-15.58.52a.66.66,0,0,0-.64.66v9.81a.66.66,0,0,0,.21.48.68.68,0,0,0,.5.18c5.35-.34,10.37-.64,15.13-.9-.42,8.62-1.13,17.89-2.17,28.32a.66.66,0,0,0,.66.73h9a.66.66,0,0,0,.66-.59c1.31-11.31,2.17-20.55,2.68-29,7.18-.34,13.68-.57,19.83-.71,2.82,7.7,5.67,16.37,9.49,28.86l.3,1a.66.66,0,0,0,.63.47h7.68a.66.66,0,0,0,.63-.47c4-13,6.92-22,9.79-29.84,6.15.14,12.65.37,19.83.71.51,8.47,1.37,17.71,2.68,29a.66.66,0,0,0,.66.59h9a.66.66,0,0,0,.66-.73c-1-10.43-1.75-19.7-2.17-28.32,4.76.26,9.78.56,15.13.9a.66.66,0,0,0,.7-.66v-9.81a.66.66,0,0,0-.64-.66l-15.58-.52c-.08-3.44-.11-6.89-.1-10.27l15.66-.13A.66.66,0,0,0,231.5,150.64Zm-33.87-9.25c2.43-5.18,5.1-10.68,7.9-16.45-.48,5.79-.82,11.14-1,16.24Zm6.77,20c-5.6-.15-10.67-.27-15.44-.35,1.26-3.09,2.57-6.2,4-9.46l11.31-.07C204.27,154.82,204.31,158.07,204.4,161.39Zm-21.15-9.77c-1.32,3.16-2.57,6.21-3.79,9.3-2.93,0-5.81,0-8.69,0s-5.7,0-8.58,0c-1.24-3.12-2.49-6.17-3.81-9.3C166.83,151.64,174.81,151.65,183.25,151.62Zm-7.67,19.43c-1.47,3.94-3,8.26-4.73,13.12-1.73-4.9-3.3-9.21-4.76-13.12C169.29,171,172.41,171,175.58,171.05Zm-38.31-19.54,11.31.07c1.44,3.26,2.76,6.37,4,9.46-4.77.08-9.84.19-15.44.35C137.26,158,137.29,154.8,137.28,151.51ZM137,141.18c-.2-5.12-.54-10.47-1-16.24,2.81,5.78,5.47,11.27,7.9,16.45Z"/><path class="cls-2" d="M170.5,242.81A89.8,89.8,0,1,1,260.3,153,89.91,89.91,0,0,1,170.5,242.81Zm0-173A83.16,83.16,0,1,0,253.66,153,83.26,83.26,0,0,0,170.5,69.84Z"/><path class="cls-3" d="M101.55,274.53l3.61-13.4h2.19l-4.67,16.38h-2.24l-4.11-14.21-4.11,14.21H90l-4.67-16.38h2.19l3.61,13.4,3.94-13.4h2.56Z"/><path class="cls-3" d="M114.83,265.46a4.94,4.94,0,0,1,2,.37,4,4,0,0,1,2.29,2.52,6.07,6.07,0,0,1,.28,1.88,8.2,8.2,0,0,1-.25,2h-7.45a5.54,5.54,0,0,0,.25,1.55,3.21,3.21,0,0,0,.68,1.19,2.93,2.93,0,0,0,1.18.77,5.05,5.05,0,0,0,1.76.27,7.94,7.94,0,0,0,1.81-.2,9.92,9.92,0,0,0,1.56-.49l.3,1.65a8,8,0,0,1-1.83.58,11,11,0,0,1-2.15.21,6.36,6.36,0,0,1-2.57-.48,5,5,0,0,1-1.81-1.3,5.45,5.45,0,0,1-1.07-1.93,8.1,8.1,0,0,1,0-4.79,6,6,0,0,1,1.07-2,4.94,4.94,0,0,1,1.71-1.33A5.2,5.2,0,0,1,114.83,265.46Zm-.07,1.65a2.76,2.76,0,0,0-1.25.27,2.91,2.91,0,0,0-.93.74,3.46,3.46,0,0,0-.61,1.09,5,5,0,0,0-.27,1.32h5.56a5,5,0,0,0,0-1.32,2.88,2.88,0,0,0-.39-1.09,2.09,2.09,0,0,0-.81-.74A2.67,2.67,0,0,0,114.76,267.1Z"/><path class="cls-3" d="M137.57,261.13h2l1.18,16.38h-2.16l-.79-12.76-4.72,9.81h-2.31l-4.72-9.81-.79,12.76h-2.16l1.18-16.38h2L132,272.71Z"/><path class="cls-3" d="M150,265.46a4.94,4.94,0,0,1,2,.37,4,4,0,0,1,2.29,2.52,6.07,6.07,0,0,1,.28,1.88,8.2,8.2,0,0,1-.25,2h-7.45a5.54,5.54,0,0,0,.25,1.55,3.21,3.21,0,0,0,.68,1.19,2.93,2.93,0,0,0,1.18.77,5.05,5.05,0,0,0,1.76.27,7.94,7.94,0,0,0,1.81-.2,9.92,9.92,0,0,0,1.56-.49l.3,1.65a8,8,0,0,1-1.83.58,11,11,0,0,1-2.15.21,6.36,6.36,0,0,1-2.57-.48A5,5,0,0,1,146,276a5.45,5.45,0,0,1-1.07-1.93,8.1,8.1,0,0,1,0-4.79,6,6,0,0,1,1.07-2,4.94,4.94,0,0,1,1.71-1.33A5.2,5.2,0,0,1,150,265.46Zm-.07,1.65a2.76,2.76,0,0,0-1.25.27,2.91,2.91,0,0,0-.93.74,3.46,3.46,0,0,0-.61,1.09,5,5,0,0,0-.27,1.32h5.56a5,5,0,0,0,0-1.32,2.88,2.88,0,0,0-.39-1.09,2.09,2.09,0,0,0-.81-.74A2.67,2.67,0,0,0,149.92,267.1Z"/><path class="cls-3" d="M168.26,277.51h-2.09v-1.62a6,6,0,0,1-1.6,1.33,4.45,4.45,0,0,1-2.26.54,3.93,3.93,0,0,1-1.87-.44,4.41,4.41,0,0,1-1.45-1.26,6,6,0,0,1-.95-1.92,8.45,8.45,0,0,1-.33-2.44,7.26,7.26,0,0,1,.46-2.65,5.55,5.55,0,0,1,1.27-2,5.45,5.45,0,0,1,1.91-1.22,6.59,6.59,0,0,1,2.37-.42,8.22,8.22,0,0,1,1.27.09,8.68,8.68,0,0,1,1.07.24v-5.61h2.21ZM162.93,276a3.29,3.29,0,0,0,1.84-.51,5.74,5.74,0,0,0,1.28-1.1v-6.79a3.9,3.9,0,0,0-1-.25,8.39,8.39,0,0,0-1.13-.07,3.86,3.86,0,0,0-2.94,1.15,4.62,4.62,0,0,0-1.09,3.31,5.81,5.81,0,0,0,.73,3.1A2.49,2.49,0,0,0,162.93,276Z"/><path class="cls-3" d="M172.89,262.21a1.41,1.41,0,0,1,.38-1,1.45,1.45,0,0,1,2,0,1.46,1.46,0,0,1,0,2,1.46,1.46,0,0,1-2,0A1.41,1.41,0,0,1,172.89,262.21Zm.3,15.3V265.7h2.21v11.8Z"/><path class="cls-3" d="M187,276a4.44,4.44,0,0,1-.66.63,5.05,5.05,0,0,1-.9.55,5.48,5.48,0,0,1-1.11.39,5.3,5.3,0,0,1-1.27.15,3.78,3.78,0,0,1-1.35-.23,3.15,3.15,0,0,1-1.06-.65,3,3,0,0,1-.7-1,3.45,3.45,0,0,1-.26-1.35,2.85,2.85,0,0,1,1.14-2.46,5.73,5.73,0,0,1,3.06-1l1.56-.07,1.49,0v-.52a3.83,3.83,0,0,0-.64-2.35,2.48,2.48,0,0,0-2.11-.85,5.93,5.93,0,0,0-1.63.22,7.15,7.15,0,0,0-1.49.62l-.52-1.62a6.43,6.43,0,0,1,1.91-.79,9.6,9.6,0,0,1,2.13-.22,4.43,4.43,0,0,1,3.33,1.28,5,5,0,0,1,1.24,3.66v7.11H187Zm-3.29.1a3.87,3.87,0,0,0,1.8-.43,5.19,5.19,0,0,0,1.45-1.09v-2.19l-1.38.1-1.28.12a5.84,5.84,0,0,0-1,.17,2.87,2.87,0,0,0-.79.33,1.47,1.47,0,0,0-.52.54,1.62,1.62,0,0,0-.18.8,1.52,1.52,0,0,0,.49,1.24A2.11,2.11,0,0,0,183.66,276.13Z"/><path class="cls-3" d="M201.58,260.83a13.6,13.6,0,0,1,2.31.21,9.32,9.32,0,0,1,2,.55l-.37,1.75a12.48,12.48,0,0,0-1.8-.48,10,10,0,0,0-1.89-.18,6.48,6.48,0,0,0-4.79,1.72,7.88,7.88,0,0,0,0,9.84,6.48,6.48,0,0,0,4.79,1.72,10,10,0,0,0,1.89-.18,12.48,12.48,0,0,0,1.8-.48l.37,1.75a9.26,9.26,0,0,1-2,.55,13.6,13.6,0,0,1-2.31.21,9.56,9.56,0,0,1-3.6-.64,7.52,7.52,0,0,1-2.67-1.77,7.74,7.74,0,0,1-1.66-2.68,10.26,10.26,0,0,1,0-6.79,7.74,7.74,0,0,1,1.66-2.68,7.54,7.54,0,0,1,2.67-1.77A9.56,9.56,0,0,1,201.58,260.83Z"/><path class="cls-3" d="M210.09,277.51V260.15h2.21v7.06a5,5,0,0,1,1.6-1.3,4.56,4.56,0,0,1,2.07-.44,3.65,3.65,0,0,1,1.89.47,3.93,3.93,0,0,1,1.3,1.27,5.63,5.63,0,0,1,.75,1.86,10.36,10.36,0,0,1,.23,2.24v6.22h-2.21v-6.15a8.64,8.64,0,0,0-.15-1.66,4.09,4.09,0,0,0-.47-1.29,2.37,2.37,0,0,0-.84-.85,2.41,2.41,0,0,0-1.25-.31,3,3,0,0,0-1.73.52,5.33,5.33,0,0,0-1.19,1.08v8.66Z"/><path class="cls-3" d="M231.58,276a4.44,4.44,0,0,1-.66.63,5.05,5.05,0,0,1-.9.55,5.48,5.48,0,0,1-1.11.39,5.3,5.3,0,0,1-1.27.15,3.78,3.78,0,0,1-1.35-.23,3.15,3.15,0,0,1-1.06-.65,3,3,0,0,1-.7-1,3.45,3.45,0,0,1-.26-1.35,2.85,2.85,0,0,1,1.14-2.46,5.73,5.73,0,0,1,3.06-1L230,271l1.49,0v-.52a3.83,3.83,0,0,0-.64-2.35,2.48,2.48,0,0,0-2.11-.85,5.93,5.93,0,0,0-1.63.22,7.15,7.15,0,0,0-1.49.62l-.52-1.62a6.43,6.43,0,0,1,1.91-.79,9.6,9.6,0,0,1,2.13-.22,4.43,4.43,0,0,1,3.33,1.28,5,5,0,0,1,1.24,3.66v7.11h-2.16Zm-3.29.1a3.87,3.87,0,0,0,1.8-.43,5.19,5.19,0,0,0,1.45-1.09v-2.19l-1.38.1-1.28.12a5.84,5.84,0,0,0-1,.17,2.87,2.87,0,0,0-.79.33,1.47,1.47,0,0,0-.52.54,1.62,1.62,0,0,0-.18.8,1.52,1.52,0,0,0,.49,1.24A2.11,2.11,0,0,0,228.29,276.13Z"/><path class="cls-3" d="M238.2,262.21a1.41,1.41,0,0,1,.38-1,1.45,1.45,0,0,1,2,0,1.46,1.46,0,0,1,0,2,1.46,1.46,0,0,1-2,0A1.41,1.41,0,0,1,238.2,262.21Zm.3,15.3V265.7h2.21v11.8Z"/><path class="cls-3" d="M245.62,277.51V265.7h2.11v1.72a4.8,4.8,0,0,1,1.6-1.45,4.4,4.4,0,0,1,2.16-.52,3.65,3.65,0,0,1,1.89.47,3.93,3.93,0,0,1,1.3,1.27,5.63,5.63,0,0,1,.75,1.86,10.36,10.36,0,0,1,.23,2.24v6.22h-2.21v-6.15a8.64,8.64,0,0,0-.15-1.66,4.09,4.09,0,0,0-.47-1.29,2.37,2.37,0,0,0-.84-.85,2.41,2.41,0,0,0-1.25-.31,3,3,0,0,0-1.73.52,5.33,5.33,0,0,0-1.19,1.08v8.66Z"/></svg>