<svg xmlns="http://www.w3.org/2000/svg" viewBox="0 0 446.69 297.17"><defs><style>.cls-1{fill:#e6e6e6;}.cls-2{fill:#554f4f;}.cls-3{fill:#fff;}.cls-4{fill:none;stroke:#4d4d4d;stroke-miterlimit:10;stroke-width:4px;}.cls-5{fill:#4d4d4d;}.cls-6{opacity:0.24;}.cls-7{fill:#d64ca8;}</style></defs><title>Asset 51</title><g id="Layer_2" data-name="Layer 2"><g id="_005_how_does_it_work" data-name="005_how does it work"><circle class="cls-1" cx="78.28" cy="67.53" r="39.24"/><path d="M80.42,85.56H76.19L61.79,49.93h5L77.57,76.85l.71,2.29L79,76.85,89.78,49.93h5Z"/><circle class="cls-1" cx="34.49" cy="245.95" r="34.49"/><path d="M36.37,261.79H32.65L20,230.47h4.38l9.49,23.67.63,2,.63-2,9.49-23.67H49Z"/><circle class="cls-1" cx="89.2" cy="211.46" r="19.62"/><path d="M90.27,220.47H88.16L81,202.66h2.49l5.4,13.46.36,1.14.36-1.14L95,202.66h2.49Z"/><circle class="cls-1" cx="128.43" cy="126.38" r="19.62"/><path d="M129.5,135.4h-2.11l-7.2-17.82h2.49l5.4,13.46.36,1.14.36-1.14,5.4-13.46h2.49Z"/><circle class="cls-2" cx="389.68" cy="42.78" r="42.77" transform="translate(236.76 403.75) rotate(-73.31)"/><rect class="cls-2" x="387.8" y="-16.17" width="3.77" height="117.9" transform="translate(236.76 403.75) rotate(-73.31)"/><path class="cls-3" d="M407.77,27a18.47,18.47,0,0,1,3.72,11.85L405.39,37q-.5-9.1-10.22-12a14.55,14.55,0,0,0-12.37,1.49q-5.62,3.38-7.83,10.75a18.23,18.23,0,0,0,.62,13.29,14.62,14.62,0,0,0,9.56,8.07,15,15,0,0,0,8.89.23,12.26,12.26,0,0,0,6.5-4.77l5.92,1.78a18.57,18.57,0,0,1-9.65,8q-5.89,2.06-13.19-.14Q374.37,61,370.38,53t-1.15-17.47q2.84-9.48,10.57-14a20.62,20.62,0,0,1,16.91-1.71A21.08,21.08,0,0,1,407.77,27Z"/><circle class="cls-2" cx="398.97" cy="166.34" r="32.9" transform="translate(-20.25 60.98) rotate(-8.53)"/><rect class="cls-2" x="353.62" y="164.89" width="90.7" height="2.9" transform="matrix(0.99, -0.15, 0.15, 0.99, -20.25, 60.98)"/><path class="cls-3" d="M406.32,149.43a14.21,14.21,0,0,1,6.47,7l-4.85.73q-3.33-6.17-11.06-5a11.19,11.19,0,0,0-8.12,5.09,13.8,13.8,0,0,0-1.93,10.05,14,14,0,0,0,4.79,9,11.24,11.24,0,0,0,9.3,2.48,11.56,11.56,0,0,0,6.26-2.75,9.43,9.43,0,0,0,3-5.45l4.7-.71a14.29,14.29,0,0,1-4.08,8.76,16.18,16.18,0,0,1-9.23,4.23,15.92,15.92,0,0,1-12.74-3.14,19.26,19.26,0,0,1-3.74-25,15.86,15.86,0,0,1,11.21-6.73A16.23,16.23,0,0,1,406.32,149.43Z"/><circle class="cls-2" cx="349.66" cy="267.19" r="29.98" transform="translate(55.2 594.21) rotate(-85.38)"/><rect class="cls-2" x="348.33" y="225.86" width="2.64" height="82.65" transform="translate(55.2 594.21) rotate(-85.38)"/><path class="cls-3" d="M359.7,253.78a13,13,0,0,1,4.29,7.58l-4.45-.36q-1.68-6.17-8.77-6.74a10.2,10.2,0,0,0-8.26,2.84,12.57,12.57,0,0,0-3.79,8.52,12.78,12.78,0,0,0,2.38,9,10.25,10.25,0,0,0,7.74,4.13,10.54,10.54,0,0,0,6.13-1.15,8.61,8.61,0,0,0,3.76-4.22l4.32.35a13,13,0,0,1-5.44,6.92,14.74,14.74,0,0,1-9.06,1.84,14.51,14.51,0,0,1-10.65-5.43,17.55,17.55,0,0,1,1.85-22.92,14.45,14.45,0,0,1,11.34-3.65A14.77,14.77,0,0,1,359.7,253.78Z"/><path class="cls-4" d="M132.84,63.53"/><path class="cls-4" d="M334.26,48.4"/><rect class="cls-5" x="132.73" y="58.52" width="80.49" height="4" transform="translate(-4.05 13.14) rotate(-4.3)"/><rect class="cls-5" x="275.77" y="48.6" width="58.57" height="4" transform="translate(-2.93 23.01) rotate(-4.3)"/><polygon class="cls-5" points="141.41 73.79 129.8 64.43 139.16 52.82 142.28 55.33 135.43 63.83 143.92 70.67 141.41 73.79"/><path class="cls-4" d="M160,115.91"/><rect class="cls-5" x="158.11" y="103.63" width="56.92" height="4" transform="translate(-25.56 74.54) rotate(-21.18)"/><rect class="cls-5" x="273.73" y="57.72" width="62.64" height="4" transform="translate(-0.97 114.24) rotate(-21.18)"/><polygon class="cls-5" points="170.83 123.78 157.3 117.52 163.56 103.99 167.19 105.67 162.61 115.57 172.51 120.15 170.83 123.78"/><path class="cls-4" d="M119.32,206.12"/><rect class="cls-5" x="118.63" y="196.37" width="87.83" height="4" transform="translate(-32.46 31.8) rotate(-10.17)"/><rect class="cls-5" x="249.61" y="171.06" width="108.19" height="4" transform="translate(-25.78 56.32) rotate(-10.17)"/><polygon class="cls-5" points="128.18 216.12 116.3 207.1 125.32 195.22 128.51 197.64 121.91 206.33 130.6 212.93 128.18 216.12"/><path class="cls-4" d="M83.94,249"/><rect class="cls-5" x="115.47" y="216.63" width="4" height="67.1" transform="matrix(0.04, -1, 1, 0.04, -136.67, 358.79)"/><rect class="cls-5" x="254.28" y="206.05" width="4" height="98.02" transform="translate(-7.62 502.22) rotate(-87.99)"/><polygon class="cls-5" points="90.5 260.64 80.79 249.32 92.11 239.62 94.71 242.65 86.43 249.76 93.53 258.04 90.5 260.64"/><g class="cls-6"><polygon points="188.91 228.11 160.04 228.11 160.04 282.75 202.28 282.75 202.28 241.11 188.91 228.11"/><polygon points="202.3 238.83 191.58 228.11 202.3 228.11 202.3 238.83"/></g><polygon class="cls-1" points="186.38 225.59 157.51 225.59 157.51 280.22 199.75 280.22 199.75 238.58 186.38 225.59"/><polygon class="cls-7" points="199.77 236.3 189.05 225.59 199.77 225.59 199.77 236.3"/><rect class="cls-5" x="162.01" y="231.71" width="10.7" height="1.27"/><rect class="cls-5" x="162.03" y="236.43" width="6.04" height="1.27"/><rect class="cls-5" x="170.59" y="236.43" width="6.04" height="1.27"/><rect class="cls-5" x="179.07" y="236.43" width="6.04" height="1.27"/><rect class="cls-5" x="188.66" y="241.15" width="6.04" height="1.27"/><rect class="cls-5" x="162.01" y="241.15" width="9.93" height="1.27"/><rect class="cls-5" x="174.69" y="241.15" width="9.93" height="1.27"/><rect class="cls-5" x="162.01" y="245.93" width="32.69" height="1.27"/><rect class="cls-5" x="162.01" y="250.72" width="32.69" height="1.27"/><rect class="cls-5" x="162.01" y="255.51" width="7.92" height="1.27"/><rect class="cls-5" x="173.6" y="255.51" width="7.92" height="1.27"/><rect class="cls-5" x="184.7" y="255.51" width="7.92" height="1.27"/><rect class="cls-5" x="162.01" y="260.3" width="12.67" height="1.27"/><g class="cls-6"><polygon points="235.94 177.13 216.92 177.13 216.92 213.13 244.75 213.13 244.75 185.69 235.94 177.13"/><polygon points="244.76 184.19 237.7 177.13 244.76 177.13 244.76 184.19"/></g><polygon class="cls-1" points="234.27 175.46 215.25 175.46 215.25 211.46 243.09 211.46 243.09 184.02 234.27 175.46"/><polygon class="cls-7" points="243.1 182.52 236.04 175.46 243.1 175.46 243.1 182.52"/><rect class="cls-5" x="218.22" y="179.49" width="7.05" height="0.84"/><rect class="cls-5" x="218.23" y="182.6" width="3.98" height="0.84"/><rect class="cls-5" x="223.87" y="182.6" width="3.98" height="0.84"/><rect class="cls-5" x="229.46" y="182.6" width="3.98" height="0.84"/><rect class="cls-5" x="235.78" y="185.71" width="3.98" height="0.84"/><rect class="cls-5" x="218.22" y="185.71" width="6.54" height="0.84"/><rect class="cls-5" x="226.57" y="185.71" width="6.54" height="0.84"/><rect class="cls-5" x="218.22" y="188.87" width="21.54" height="0.84"/><rect class="cls-5" x="218.22" y="192.02" width="21.54" height="0.84"/><rect class="cls-5" x="218.22" y="195.17" width="5.22" height="0.84"/><rect class="cls-5" x="225.86" y="195.17" width="5.22" height="0.84"/><rect class="cls-5" x="233.17" y="195.17" width="5.22" height="0.84"/><rect class="cls-5" x="218.22" y="198.33" width="8.35" height="0.84"/><g class="cls-6"><polygon points="255.69 40.21 223.11 40.21 223.11 101.86 270.78 101.86 270.78 54.87 255.69 40.21"/><polygon points="270.8 52.3 258.71 40.21 270.8 40.21 270.8 52.3"/></g><polygon class="cls-1" points="252.83 37.36 220.26 37.36 220.26 99.01 267.92 99.01 267.92 52.02 252.83 37.36"/><polygon class="cls-7" points="267.94 49.45 255.85 37.36 267.94 37.36 267.94 49.45"/><rect class="cls-5" x="225.34" y="44.27" width="12.08" height="1.43"/><rect class="cls-5" x="225.36" y="49.59" width="6.81" height="1.43"/><rect class="cls-5" x="235.01" y="49.59" width="6.81" height="1.43"/><rect class="cls-5" x="244.59" y="49.59" width="6.81" height="1.43"/><rect class="cls-5" x="255.41" y="54.92" width="6.81" height="1.43"/><rect class="cls-5" x="225.34" y="54.92" width="11.2" height="1.43"/><rect class="cls-5" x="239.64" y="54.92" width="11.2" height="1.43"/><rect class="cls-5" x="225.34" y="60.32" width="36.88" height="1.43"/><rect class="cls-5" x="225.34" y="65.72" width="36.88" height="1.43"/><rect class="cls-5" x="225.34" y="71.12" width="8.94" height="1.43"/><rect class="cls-5" x="238.42" y="71.12" width="8.94" height="1.43"/><rect class="cls-5" x="250.94" y="71.12" width="8.94" height="1.43"/><rect class="cls-5" x="225.34" y="76.52" width="14.3" height="1.43"/></g></g></svg>