<svg xmlns="http://www.w3.org/2000/svg" viewBox="0 0 380.03 263.44"><defs><style>.cls-1{fill:#e6e6e6;}.cls-2{opacity:0.5;}.cls-3{fill:#4d4d4d;}.cls-4{fill:none;stroke:#fff;stroke-miterlimit:10;stroke-width:4px;}.cls-5{fill:#fff;opacity:0.2;}.cls-6{fill:#d64ca8;}.cls-7{opacity:0.7;}</style></defs><title>Asset 52</title><g id="Layer_2" data-name="Layer 2"><g id="_005_how_does_it_work" data-name="005_how does it work"><circle class="cls-1" cx="190.02" cy="232.87" r="30.58"/><path d="M189.2,246.91h-3.29l-11.23-27.77h3.89l8.41,21,.56,1.79.56-1.79,8.41-21h3.89Z"/><g class="cls-2"><circle class="cls-1" cx="360.51" cy="232.87" r="19.52"/><path d="M360,241.83h-2.1l-7.17-17.73h2.48l5.37,13.4.35,1.14.35-1.14,5.37-13.4h2.48Z"/></g><g class="cls-2"><circle class="cls-1" cx="19.52" cy="232.87" r="19.52"/><path d="M19,241.83H16.9L9.73,224.11h2.48l5.37,13.4.35,1.14.35-1.14,5.37-13.4h2.48Z"/></g><path class="cls-3" d="M313.89,23.72a3.47,3.47,0,1,0-5.15,3V40.42a3.92,3.92,0,0,1-7.83,0l.08-4.59-4.48,9.49,2.07-1.15a7.28,7.28,0,0,0,13.53-3.84V26.74A3.46,3.46,0,0,0,313.89,23.72Z"/><path class="cls-3" d="M305.21,61.4A27.42,27.42,0,1,1,332.63,34,27.45,27.45,0,0,1,305.21,61.4Zm0-51.8A24.38,24.38,0,1,0,329.58,34,24.41,24.41,0,0,0,305.21,9.6Z"/><path class="cls-3" d="M99.17,20.12a4.3,4.3,0,1,0-6.38,3.75V40.81a4.85,4.85,0,0,1-9.7,0l.1-5.69L77.64,46.88l2.56-1.42A9,9,0,0,0,97,40.69V23.86A4.28,4.28,0,0,0,99.17,20.12Z"/><path class="cls-3" d="M91,67.95a34,34,0,1,1,34-34A34,34,0,0,1,91,67.95ZM91,3.77A30.2,30.2,0,1,0,121.16,34,30.24,30.24,0,0,0,91,3.77Z"/><path class="cls-4" d="M28.41,202.72"/><rect class="cls-3" x="17.53" y="184.91" width="33.86" height="4" transform="translate(-152.41 152.28) rotate(-69.06)"/><rect class="cls-3" x="36.5" y="100.38" width="60.61" height="4" transform="translate(-52.69 128.18) rotate(-69.06)"/><polygon class="cls-3" points="27.58 205.34 21.74 191.62 25.42 190.05 29.69 200.09 39.73 195.82 41.3 199.5 27.58 205.34"/><path class="cls-4" d="M170.47,196.78"/><rect class="cls-3" x="157.63" y="153.63" width="4" height="45.87" transform="translate(-64.51 96.45) rotate(-28.21)"/><rect class="cls-3" x="109.95" y="73.75" width="4" height="27.87" transform="translate(-28.15 63.34) rotate(-28.21)"/><polygon class="cls-3" points="171.91 199.12 157.71 194.57 158.94 190.76 169.33 194.09 172.66 183.7 176.47 184.93 171.91 199.12"/><path class="cls-4" d="M353,206.83"/><rect class="cls-3" x="345.6" y="170.3" width="4" height="37.33" transform="translate(-39.72 108.26) rotate(-16.76)"/><rect class="cls-3" x="317.76" y="63.98" width="4" height="65.11" transform="translate(-14.25 96.31) rotate(-16.76)"/><polygon class="cls-3" points="353.82 209.45 340.09 203.62 341.66 199.93 351.7 204.21 355.97 194.16 359.65 195.73 353.82 209.45"/><path class="cls-4" d="M210.92,200.89"/><rect class="cls-3" x="195.65" y="173.42" width="57.75" height="4" transform="translate(-36.06 290.67) rotate(-61.86)"/><rect class="cls-3" x="252.88" y="82.53" width="40.48" height="4" transform="translate(69.76 285.5) rotate(-61.86)"/><polygon class="cls-3" points="209.48 203.24 204.92 189.04 208.73 187.82 212.06 198.21 222.46 194.87 223.68 198.68 209.48 203.24"/><path class="cls-3" d="M272.76,119a22.73,22.73,0,1,0-15.45,29.95l2.1,5.59-1.29.48L266,176.13l1.29-.48,4.28-1.61,1.29-.48L265,152.43l-1.29.48-2.1-5.6A22.73,22.73,0,0,0,272.76,119Zm-38.28,14.35A18.15,18.15,0,1,1,257.85,144,18.18,18.18,0,0,1,234.48,133.33Z"/><path class="cls-5" d="M234.48,133.33A18.15,18.15,0,1,1,257.85,144,18.18,18.18,0,0,1,234.48,133.33Z"/><path class="cls-3" d="M160.21,136.12a27.74,27.74,0,1,0-37.42,17.06l-2.21,6.94-1.6-.51-8.35,26.25,1.6.51,5.32,1.69,1.6.51,8.35-26.25-1.6-.51,2.21-7A27.74,27.74,0,0,0,160.21,136.12ZM112.66,121a22.15,22.15,0,1,1,14.4,27.83A22.18,22.18,0,0,1,112.66,121Z"/><path class="cls-5" d="M112.66,121a22.15,22.15,0,1,1,14.4,27.83A22.18,22.18,0,0,1,112.66,121Z"/><path class="cls-6" d="M135.05,143a3.57,3.57,0,0,1-4.19-2.79,3.53,3.53,0,0,1,2.8-4.15,3.49,3.49,0,0,1,4.14,2.75A3.53,3.53,0,0,1,135.05,143Zm-2.72-9.94-1-21.08,6.28-1.26L136,132.34Z"/><path class="cls-6" d="M250.1,140.18a2.93,2.93,0,0,1-2.92-2.92,2.9,2.9,0,0,1,2.92-2.88,2.86,2.86,0,0,1,2.88,2.88A2.89,2.89,0,0,1,250.1,140.18Zm-.58-8.42,2.59-17.1h5.25l-4.74,17.1Z"/><g class="cls-7"><path class="cls-3" d="M350.56,157.95a17.38,17.38,0,1,0-24.92,6.58l-2.1,4.06-.93-.48-7.93,15.33.93.48,3.11,1.61.93.48,7.93-15.33-.93-.48,2.1-4.06A17.38,17.38,0,0,0,350.56,157.95Zm-27.77-14.37a13.88,13.88,0,1,1,5.95,18.71A13.9,13.9,0,0,1,322.79,143.58Z"/><path class="cls-5" d="M322.79,143.58a13.88,13.88,0,1,1,5.95,18.71A13.9,13.9,0,0,1,322.79,143.58Z"/><path class="cls-6" d="M333,158.45l-8.52-8.52a2,2,0,0,1,2.83-2.83l5.69,5.69,9.9-9.9a2,2,0,0,1,2.83,2.83Z"/></g><g class="cls-7"><path class="cls-3" d="M63.61,148.28a17.38,17.38,0,1,0-16.37,19.91l.67,4.52-1,.15,2.53,17.07,1-.15,3.46-.51,1-.15L52.41,172l-1,.15-.67-4.52A17.38,17.38,0,0,0,63.61,148.28Zm-30.93,4.58a13.88,13.88,0,1,1,15.77,11.7A13.9,13.9,0,0,1,32.68,152.86Z"/><path class="cls-5" d="M32.68,152.86a13.88,13.88,0,1,1,15.77,11.7A13.9,13.9,0,0,1,32.68,152.86Z"/><path class="cls-6" d="M43.85,159.18l-8-9a2,2,0,1,1,3-2.67l5.37,6,10.43-9.35a2,2,0,0,1,2.67,3Z"/></g></g></g></svg>