<svg xmlns="http://www.w3.org/2000/svg" viewBox="0 0 84.85 74.29"><defs><style>.cls-1{fill:#4d4d4d;}</style></defs><title>Asset 14</title><g id="Layer_2" data-name="Layer 2"><g id="_005_how_does_it_work" data-name="005_how does it work"><path class="cls-1" d="M42.42,31.35A15.67,15.67,0,1,1,58.1,15.67,15.69,15.69,0,0,1,42.42,31.35ZM42.42,4A11.67,11.67,0,1,0,54.1,15.67,11.69,11.69,0,0,0,42.42,4Z"/><path class="cls-1" d="M69.17,74.29A15.67,15.67,0,1,1,84.85,58.62,15.69,15.69,0,0,1,69.17,74.29Zm0-27.35A11.67,11.67,0,1,0,80.85,58.62,11.69,11.69,0,0,0,69.17,46.94Z"/><path class="cls-1" d="M15.67,74.29A15.67,15.67,0,1,1,31.35,58.62,15.69,15.69,0,0,1,15.67,74.29Zm0-27.35A11.67,11.67,0,1,0,27.35,58.62,11.69,11.69,0,0,0,15.67,46.94Z"/></g></g></svg>