<svg xmlns="http://www.w3.org/2000/svg" viewBox="0 0 151.91 151.91"><defs><style>.cls-1{fill:#fff;}.cls-2{fill:#4d4d4d;}</style></defs><title>Asset 58</title><g id="Layer_2" data-name="Layer 2"><g id="_008_video_wall" data-name="008_video_wall"><circle class="cls-1" cx="75.96" cy="75.96" r="75.96"/><path class="cls-2" d="M95.9,63.66l-1.81,1.81a8.84,8.84,0,0,1,.9,7.81,8.93,8.93,0,0,1-11.39,5.39,8.27,8.27,0,0,1-1.81-.9L76,83.57l-5.06-5.1a9.24,9.24,0,0,1-8.18,1,9.11,9.11,0,0,1-5.51-11.68,8.46,8.46,0,0,1,1-2l-2.18-2.18-.41.7A23.81,23.81,0,0,0,76,100.55h0A23.8,23.8,0,0,0,96.36,64.4Z"/><path class="cls-2" d="M60.95,68.47a4.93,4.93,0,0,0-1,3,4.86,4.86,0,0,0,4.85,4.85,4.71,4.71,0,0,0,3-1Z"/><path class="cls-2" d="M84.76,74.85a4.7,4.7,0,0,0,2.71.82,4.86,4.86,0,0,0,4.85-4.85,4.8,4.8,0,0,0-.82-2.71Z"/><path class="cls-2" d="M76.08,79.95,56.42,60.21l.78-.82a25.38,25.38,0,0,1,18.59-8h0a25.52,25.52,0,0,1,18.92,8.43l.74.82ZM59.63,60.21,76.08,76.7,92.32,60.54a23.33,23.33,0,0,0-16.45-6.87h0A23,23,0,0,0,59.63,60.21Z"/><path class="cls-2" d="M54.41,92.65l-2.3-.16c-9.79-.62-23.28-3-32-10.9-5.39-4.81-6.42-9.38-6.46-9.58l-.29-1.4H49l-.21,1.32a26.76,26.76,0,0,0-.25,3.62,27.19,27.19,0,0,0,4.56,15.18Z"/><path class="cls-2" d="M97.51,92.65l1.27-1.93a27,27,0,0,0,4.56-15.09,27.52,27.52,0,0,0-.25-3.7l-.16-1.32h35.61l-.29,1.4c0,.21-1.07,4.77-6.42,9.58-8.72,7.85-22.25,10.28-32,10.9Z"/></g></g></svg>