<?xml version="1.0" encoding="UTF-8" standalone="no"?>
<!-- Created with Inkscape (http://www.inkscape.org/) -->

<svg
   xmlns:dc="http://purl.org/dc/elements/1.1/"
   xmlns:cc="http://creativecommons.org/ns#"
   xmlns:rdf="http://www.w3.org/1999/02/22-rdf-syntax-ns#"
   xmlns:svg="http://www.w3.org/2000/svg"
   xmlns="http://www.w3.org/2000/svg"
   xmlns:sodipodi="http://sodipodi.sourceforge.net/DTD/sodipodi-0.dtd"
   xmlns:inkscape="http://www.inkscape.org/namespaces/inkscape"
   width="62mm"
   height="62mm"
   viewBox="0 0 62 62"
   version="1.1"
   id="svg4709"
   inkscape:version="0.92.2 5c3e80d, 2017-08-06"
   sodipodi:docname="Melonport.svg">
  <defs
     id="defs4703" />
  <sodipodi:namedview
     id="base"
     pagecolor="#ffffff"
     bordercolor="#666666"
     borderopacity="1.0"
     inkscape:pageopacity="0.0"
     inkscape:pageshadow="2"
     inkscape:zoom="1.4"
     inkscape:cx="10.39256"
     inkscape:cy="61.422728"
     inkscape:document-units="mm"
     inkscape:current-layer="layer1"
     showgrid="false"
     fit-margin-top="10"
     fit-margin-right="10"
     fit-margin-bottom="10"
     fit-margin-left="10"
     inkscape:window-width="1335"
     inkscape:window-height="1050"
     inkscape:window-x="0"
     inkscape:window-y="0"
     inkscape:window-maximized="0" />
  <metadata
     id="metadata4706">
    <rdf:RDF>
      <cc:Work
         rdf:about="">
        <dc:format>image/svg+xml</dc:format>
        <dc:type
           rdf:resource="http://purl.org/dc/dcmitype/StillImage" />
        <dc:title></dc:title>
      </cc:Work>
    </rdf:RDF>
  </metadata>
  <g
     inkscape:label="Layer 1"
     inkscape:groupmode="layer"
     id="layer1"
     transform="translate(-76.781893,-22.610303)">
    <g
       transform="matrix(0.35277777,0,0,-0.35277777,-106.76326,141.77778)"
       id="g4675">
      <g
         style="fill:#4d4d4d;fill-opacity:1"
         transform="translate(599.4375,250.6602)"
         id="g41">
        <path
           inkscape:connector-curvature="0"
           id="path43"
           style="fill:#4d4d4d;fill-opacity:1;fill-rule:nonzero;stroke:none"
           d="M 0,0 0.911,-0.463 0.872,-1.508 -6.673,-5.869 -7.545,-4.36 Z" />
      </g>
      <g
         style="fill:#4d4d4d;fill-opacity:1"
         transform="translate(567.2637,232.1318)"
         id="g45">
        <path
           inkscape:connector-curvature="0"
           id="path47"
           style="fill:#4d4d4d;fill-opacity:1;fill-rule:nonzero;stroke:none"
           d="M 0,0 0.869,-1.511 8.85,3.08 7.981,4.592 Z" />
      </g>
      <g
         style="fill:#4d4d4d;fill-opacity:1"
         transform="translate(579.811,239.2881)"
         id="g49">
        <path
           inkscape:connector-curvature="0"
           id="path51"
           style="fill:#4d4d4d;fill-opacity:1;fill-rule:nonzero;stroke:none"
           d="M 0,0 0.875,-1.507 8.411,2.87 7.536,4.378 Z" />
      </g>
      <g
         style="fill:#4d4d4d;fill-opacity:1"
         transform="translate(616.8809,250.6602)"
         id="g53">
        <path
           inkscape:connector-curvature="0"
           id="path55"
           style="fill:#4d4d4d;fill-opacity:1;fill-rule:nonzero;stroke:none"
           d="m 0,0 -0.911,-0.463 0.039,-1.045 7.545,-4.361 0.872,1.509 z" />
      </g>
      <g
         style="fill:#4d4d4d;fill-opacity:1"
         transform="translate(649.0552,232.1318)"
         id="g57">
        <path
           inkscape:connector-curvature="0"
           id="path59"
           style="fill:#4d4d4d;fill-opacity:1;fill-rule:nonzero;stroke:none"
           d="m 0,0 -0.869,-1.511 -7.982,4.591 0.87,1.512 z" />
      </g>
      <g
         style="fill:#4d4d4d;fill-opacity:1"
         transform="translate(636.5078,239.2881)"
         id="g61">
        <path
           inkscape:connector-curvature="0"
           id="path63"
           style="fill:#4d4d4d;fill-opacity:1;fill-rule:nonzero;stroke:none"
           d="M 0,0 -0.876,-1.507 -8.412,2.87 -7.536,4.378 Z" />
      </g>
      <path
         inkscape:connector-curvature="0"
         id="path65"
         style="fill:#4d4d4d;fill-opacity:1;fill-rule:evenodd;stroke:none"
         d="m 608.921,278.05 h -1.743 v 8.715 h 1.743 z" />
      <g
         style="fill:#4d4d4d;fill-opacity:1"
         transform="translate(608.9209,264.1064)"
         id="g67">
        <path
           inkscape:connector-curvature="0"
           id="path69"
           style="fill:#4d4d4d;fill-opacity:1;fill-rule:evenodd;stroke:none"
           d="M 0,0 -0.858,-0.348 -1.743,0 V 8.715 H 0 Z" />
      </g>
      <path
         inkscape:connector-curvature="0"
         id="path71"
         style="fill:#4d4d4d;fill-opacity:1;fill-rule:evenodd;stroke:none"
         d="m 607.178,301.201 h 1.743 v -9.208 h -1.743 z" />
      <path
         d="m 572.146,279.915 36.014,-20.792 36.013,20.792 -32.992,19.048 -3.012,1.755 -5.948,-3.439 -0.414,-0.239 c -9.887,-5.708 -19.773,-11.416 -29.661,-17.125 m 37.945,28.576 43.712,-25.237 1.463,-0.845 0.469,-0.27 v -0.538 -1.681 -25.238 -25.238 -1.681 -0.538 l -0.469,-0.27 -1.463,-0.846 -21.856,-12.619 -11.249,-6.494 -1.405,-0.81 v 1.618 6.742 0.539 l 0.469,0.269 8.322,4.806 15.606,9.01 4.327,2.494 -0.008,4.329 v 18.689 18.566 l -35.987,-20.777 v -52.569 -1.688 -5.054 -0.535 l -0.472,-0.273 -1.463,-0.843 -1.463,-0.846 -0.464,-0.267 -0.465,0.267 -1.463,0.846 -1.463,0.843 -0.472,0.273 v 0.535 5.054 1.688 52.569 l -35.987,20.777 v -18.566 -19.755 -2.257 l 0.009,0.007 0.004,-1.032 2.806,-1.61 17.105,-9.875 8.324,-4.806 0.467,-0.271 v -0.537 -6.742 -1.617 l -1.4,0.809 -11.25,6.494 h -0.003 l -21.856,12.619 -1.464,0.846 -0.468,0.27 v 0.538 1.681 25.238 25.238 1.681 0.538 l 0.468,0.27 1.464,0.845 c 14.57,8.412 29.141,16.825 43.712,25.237 h 0.004 l 1.463,0.845 0.465,0.268 0.464,-0.268 1.463,-0.845 z"
         style="fill:#4d4d4d;fill-opacity:1;fill-rule:nonzero;stroke:none"
         id="path83"
         inkscape:connector-curvature="0" />
    </g>
  </g>
</svg>
