<svg xmlns="http://www.w3.org/2000/svg" viewBox="0 0 385.88 341.55"><defs><style>.cls-1{fill:#e6e6e6;}.cls-2{fill:#4d4d4d;}.cls-3{opacity:0.5;}.cls-4{fill:#333;}.cls-5{fill:#fff;}.cls-6{fill:#d64ca8;}</style></defs><title>Asset 50</title><g id="Layer_2" data-name="Layer 2"><g id="_005_how_does_it_work" data-name="005_how does it work"><circle class="cls-1" cx="202.24" cy="272.85" r="34.57"/><path class="cls-2" d="M205.33,288.74H201.6l-12.69-31.39h4.39l9.51,23.72.63,2,.63-2,9.51-23.72H218Z"/><g class="cls-3"><circle class="cls-1" cx="264.41" cy="324.27" r="17.28"/><path d="M264,332.21h-1.86l-6.35-15.7h2.2l4.75,11.86.31,1,.31-1,4.75-11.86h2.2Z"/></g><g class="cls-3"><circle class="cls-1" cx="122.64" cy="300.07" r="17.28"/><path d="M122.18,308h-1.86L114,292.31h2.2l4.75,11.86.31,1,.31-1,4.75-11.86h2.2Z"/></g><circle class="cls-2" cx="63.67" cy="136.24" r="51.8"/><path class="cls-4" d="M63.67,199.91a63.67,63.67,0,1,1,63.67-63.67A63.74,63.74,0,0,1,63.67,199.91Zm0-124.51a60.84,60.84,0,1,0,60.84,60.84A60.91,60.91,0,0,0,63.67,75.4Z"/><path class="cls-5" d="M77.82,155.85H72.53l-20.45-29.5-1.59-2.53v32H45.15V114.72h5.23L70.71,144.1l1.76,2.7V114.72h5.35Z"/><rect class="cls-2" x="159.83" y="224.93" width="4" height="15.16" transform="translate(-119.21 196.92) rotate(-47.94)"/><rect class="cls-2" x="115.73" y="185.53" width="4" height="14.37" transform="translate(-104.22 151.03) rotate(-47.94)"/><polygon class="cls-2" points="155.35 240.41 155.02 236.42 165.89 235.52 164.99 224.64 168.97 224.31 170.21 239.17 155.35 240.41"/><rect class="cls-2" x="248.9" y="245.2" width="30.11" height="4" transform="translate(-93.53 192.58) rotate(-34.44)"/><rect class="cls-2" x="306.79" y="208.92" width="20.17" height="4" transform="translate(-63.74 216.14) rotate(-34.44)"/><polygon class="cls-2" points="264.12 260.21 249.37 258.03 251.55 243.28 255.5 243.86 253.91 254.66 264.7 256.25 264.12 260.21"/><rect class="cls-2" x="215" y="204.28" width="27.41" height="4" transform="translate(-47.58 342.39) rotate(-68.28)"/><rect class="cls-2" x="233.16" y="130.82" width="49.58" height="4" transform="translate(39.09 323.29) rotate(-68.28)"/><polygon class="cls-2" points="222.7 221.68 216.19 208.27 219.79 206.52 224.56 216.34 234.37 211.57 236.12 215.16 222.7 221.68"/><circle class="cls-2" cx="285.57" cy="51.8" r="42.15"/><path class="cls-4" d="M285.57,103.61a51.8,51.8,0,1,1,51.8-51.8A51.86,51.86,0,0,1,285.57,103.61Zm0-101.31a49.5,49.5,0,1,0,49.5,49.5A49.56,49.56,0,0,0,285.57,2.3Z"/><path class="cls-5" d="M297.09,67.76h-4.3l-16.64-24-1.29-2.06V67.76h-4.35V34.3h4.25L291.3,58.2l1.43,2.2V34.3h4.35Z"/><circle class="cls-2" cx="353.96" cy="178.76" r="25.97"/><path class="cls-4" d="M354,210.68a31.91,31.91,0,1,1,31.91-31.91A31.95,31.95,0,0,1,354,210.68Zm0-62.41a30.49,30.49,0,1,0,30.49,30.49A30.53,30.53,0,0,0,354,148.27Z"/><path class="cls-5" d="M361.06,188.59h-2.65l-10.25-14.78-.79-1.27v16.05h-2.68V168h2.62l10.19,14.73.88,1.35V168h2.68Z"/><rect class="cls-5" x="226.62" y="159.06" width="28.84" height="28.84" rx="14.42" ry="14.42"/><path class="cls-2" d="M241,189.4A15.92,15.92,0,1,1,257,173.48,15.94,15.94,0,0,1,241,189.4Zm0-28.84A12.92,12.92,0,1,0,254,173.48,12.94,12.94,0,0,0,241,160.56Z"/><path class="cls-6" d="M238.8,182.47l-8-8a2,2,0,0,1,2.83-2.83l5.13,5.13,9-9a2,2,0,0,1,2.83,2.83Z"/><rect class="cls-5" x="276.37" y="213.2" width="28.84" height="28.84" rx="14.42" ry="14.42"/><path class="cls-2" d="M290.79,243.54a15.92,15.92,0,1,1,15.92-15.92A15.94,15.94,0,0,1,290.79,243.54Zm0-28.84a12.92,12.92,0,1,0,12.92,12.92A12.94,12.94,0,0,0,290.79,214.7Z"/><path class="cls-6" d="M288.78,236l-7.18-7.18a2,2,0,0,1,2.83-2.83l4.35,4.35,7.78-7.78a2,2,0,0,1,2.83,2.83Z"/><rect class="cls-5" x="127.34" y="196.74" width="28.84" height="28.84" rx="14.42" ry="14.42"/><path class="cls-2" d="M141.76,227.09a15.92,15.92,0,1,1,15.92-15.92A15.94,15.94,0,0,1,141.76,227.09Zm0-28.84a12.92,12.92,0,1,0,12.92,12.92A12.94,12.94,0,0,0,141.76,198.24Z"/><path class="cls-6" d="M139.78,219.45l-7.08-7.08a2,2,0,0,1,2.83-2.83l4.25,4.25,7.61-7.61a2,2,0,0,1,2.83,2.83Z"/><circle class="cls-2" cx="204.34" cy="227.76" r="5"/><circle class="cls-2" cx="163.95" cy="249.31" r="5" transform="translate(-133.94 266.62) rotate(-60)"/><circle class="cls-2" cx="162.42" cy="295.07" r="5" transform="translate(-125.79 120.76) rotate(-30)"/><circle class="cls-2" cx="201.28" cy="319.27" r="5"/><circle class="cls-2" cx="241.67" cy="297.72" r="5" transform="translate(-137 358.12) rotate(-60)"/><circle class="cls-2" cx="243.2" cy="251.96" r="5" transform="translate(-93.41 155.38) rotate(-30)"/></g></g></svg>