<svg xmlns="http://www.w3.org/2000/svg" xmlns:xlink="http://www.w3.org/1999/xlink" viewBox="0 0 744.16 697.49"><defs><style>.cls-1,.cls-9{fill:none;}.cls-2{fill:#f7f7f7;}.cls-3{fill:#ccc;}.cls-4{clip-path:url(#clip-path);}.cls-17,.cls-5{fill:#e6e6e6;}.cls-5{stroke:#b3b3b3;}.cls-13,.cls-5,.cls-6,.cls-8,.cls-9{stroke-miterlimit:10;}.cls-13,.cls-5,.cls-6,.cls-7{stroke-width:3px;}.cls-13,.cls-15,.cls-6{fill:#fff;}.cls-6,.cls-7,.cls-8,.cls-9{stroke:#4d4d4d;}.cls-7,.cls-8{fill:#f7d7d7;}.cls-7{stroke-linejoin:round;}.cls-8,.cls-9{stroke-width:2px;}.cls-10{fill:#666;}.cls-11,.cls-12{fill:#4d4d4d;}.cls-11{opacity:0.3;}.cls-13{stroke:#999;}.cls-14{fill:#dd3a75;}.cls-16{fill:#b3b3b3;}.cls-18{fill:#d64ca8;}.cls-19{fill:#d85da1;}.cls-20{fill:gray;}.cls-21{fill:#999;}</style><clipPath id="clip-path"><polygon class="cls-1" points="627.78 575.72 454.43 497.95 523.05 359.39 687.24 473.32 627.78 575.72"/></clipPath></defs><title>Asset 47</title><g id="Layer_2" data-name="Layer 2"><g id="_003_what_is_it_" data-name="003_what is it?"><circle class="cls-2" cx="348.78" cy="348.74" r="346.78"/><polygon class="cls-3" points="627.78 575.72 454.43 497.95 523.05 359.39 687.24 473.32 627.78 575.72"/><g class="cls-4"><line class="cls-5" x1="661.46" y1="346.04" x2="427.7" y2="407.2"/><line class="cls-5" x1="664.96" y1="359.44" x2="431.21" y2="420.59"/><line class="cls-5" x1="668.47" y1="372.83" x2="434.71" y2="433.99"/><line class="cls-5" x1="671.97" y1="386.22" x2="438.22" y2="447.38"/><line class="cls-5" x1="675.48" y1="399.62" x2="441.72" y2="460.77"/><line class="cls-5" x1="678.98" y1="413.01" x2="445.22" y2="474.17"/><line class="cls-5" x1="682.48" y1="426.4" x2="448.73" y2="487.56"/><line class="cls-5" x1="685.99" y1="439.79" x2="452.23" y2="500.95"/><line class="cls-5" x1="689.49" y1="453.19" x2="455.74" y2="514.35"/><line class="cls-5" x1="693" y1="466.58" x2="459.24" y2="527.74"/><line class="cls-5" x1="696.5" y1="479.97" x2="462.74" y2="541.13"/><line class="cls-5" x1="700.01" y1="493.37" x2="466.25" y2="554.53"/><line class="cls-5" x1="703.51" y1="506.76" x2="469.75" y2="567.92"/><line class="cls-5" x1="707.01" y1="520.15" x2="473.26" y2="581.31"/><line class="cls-5" x1="710.52" y1="533.55" x2="476.76" y2="594.71"/></g><circle class="cls-6" cx="651.05" cy="520.17" r="59.65"/><polygon class="cls-7" points="651.05 540.73 651.05 561.34 676.35 525.8 651.05 540.73"/><polygon class="cls-7" points="651.05 479.01 651.05 509.5 651.05 535.96 676.35 520.99 651.05 479.01"/><polygon class="cls-7" points="651.05 540.73 651.05 561.34 625.75 525.8 651.05 540.73"/><polygon class="cls-7" points="625.75 520.99 651.05 535.96 651.05 509.5 651.05 479.01 625.75 520.99"/><polygon class="cls-5" points="459.88 150.07 234.49 150.07 121.79 345.27 234.49 540.46 459.88 540.46 572.58 345.27 459.88 150.07"/><line class="cls-8" x1="516.43" y1="198.27" x2="459.78" y2="286.17"/><line class="cls-8" x1="574.06" y1="286.17" x2="459.78" y2="286.17"/><line class="cls-8" x1="516.43" y1="198.27" x2="574.06" y2="286.17"/><circle class="cls-8" cx="516.81" cy="198.53" r="11.54"/><circle class="cls-8" cx="516.81" cy="255.07" r="20.2"/><circle class="cls-8" cx="573.95" cy="286.43" r="11.54"/><circle class="cls-8" cx="459.67" cy="286.43" r="11.54"/><circle class="cls-8" cx="352.04" cy="150.62" r="20.2" transform="translate(-3.4 293.04) rotate(-45)"/><circle class="cls-9" cx="352.68" cy="150.16" r="57.12" transform="translate(-2.88 293.36) rotate(-45)"/><circle class="cls-8" cx="392.3" cy="191.17" r="11.54" transform="translate(-20.27 333.39) rotate(-45)"/><circle class="cls-8" cx="311.49" cy="110.36" r="11.54" transform="translate(13.2 252.58) rotate(-45)"/><rect class="cls-9" x="139.21" y="201.68" width="81.94" height="81.94"/><circle class="cls-8" cx="180.05" cy="242.28" r="20.2"/><circle class="cls-8" cx="220.45" cy="202.08" r="11.54" transform="translate(-78.32 215.07) rotate(-45)"/><circle class="cls-8" cx="139.64" cy="282.88" r="11.54" transform="translate(-159.13 181.6) rotate(-45)"/><circle class="cls-8" cx="139.64" cy="202.08" r="11.54" transform="translate(-101.99 157.93) rotate(-45)"/><circle class="cls-8" cx="220.45" cy="282.88" r="11.54" transform="translate(-135.46 238.74) rotate(-45)"/><circle class="cls-8" cx="353.13" cy="542.57" r="20.2"/><polygon class="cls-9" points="352.68 485.81 297.81 525.68 318.77 590.19 386.6 590.19 407.56 525.68 352.68 485.81"/><circle class="cls-8" cx="353.84" cy="485.81" r="11.54" transform="translate(-239.88 392.49) rotate(-45)"/><circle class="cls-8" cx="408.08" cy="526.2" r="11.54" transform="translate(-252.56 442.67) rotate(-45)"/><circle class="cls-8" cx="316.91" cy="590.83" r="11.54" transform="translate(-324.96 397.14) rotate(-45)"/><circle class="cls-8" cx="297.29" cy="526.2" r="11.54" transform="translate(-285.01 364.34) rotate(-45)"/><circle class="cls-8" cx="386.15" cy="590.83" r="11.54" transform="translate(-304.68 446.1) rotate(-45)"/><path class="cls-10" d="M301.43,281.39l-3.35,15.78h.55c5.67,0,9.7-6.7,9.7-11.89,0-3.83-2.19-7.17-7.52-7.17-11.07,0-18.45,6.22-18.45,16.6a9.52,9.52,0,0,0,1,4.65c-4.71,0-7.31-1.71-7.31-6.63,0-9.09,12.57-17.77,24-17.77,10.8,0,15.51,5.33,15.51,10.93,0,4.17-2.67,8.88-7.38,11.68,3.62,1,4.71,3.62,4.71,6.83,0,5.6-3.35,13-3.35,17.29a4.66,4.66,0,0,0,2.67,4.51,25.71,25.71,0,0,1-6.76,1.16c-4.44,0-5.33-2.32-5.33-4.58,0-4.51,3.62-12.78,3.62-18,0-2.73-1-4.65-4.1-4.65a16.61,16.61,0,0,0-2.25.27l-5.47,25.76H282l9.29-43.46Z"/><path class="cls-10" d="M330.81,320.89c5.4,0,8.68-3,12.09-6.9h2.32c-3.9,6.29-9.7,12.64-18.79,12.64-6.42,0-10.66-3.14-10.66-10.86s4.44-24.33,18.45-24.33c6.08,0,7.52,3.14,7.52,6.56,0,7.86-7.52,13.94-15.72,14.42-.07,1-.14,1.91-.14,2.73C325.89,319.8,327.53,320.89,330.81,320.89Zm4-25.83c-3.48,0-6.83,7.31-8.2,14.08,5.26-.34,9.91-5.6,9.91-11.27C336.48,296.15,336.07,295.06,334.78,295.06Z"/><path class="cls-10" d="M360.33,278.39l-7.86,36.9a9.48,9.48,0,0,0-.27,2.19c0,1.91.89,2.53,2.8,2.53,2.66,0,5.12-2.6,6.15-6H364c-3.9,11.14-10.66,12.64-14.35,12.64-4.1,0-7.31-2.46-7.31-8.2a22.4,22.4,0,0,1,.55-4.44l7.31-34.23Z"/><path class="cls-10" d="M394,292.05,389,315.29a9.48,9.48,0,0,0-.27,2.19c0,1.91.89,2.94,2.8,2.94,2.67,0,4.51-3,5.53-6.42H400c-3.89,11.14-10,12.64-13.73,12.64s-6.29-2.19-6.7-6.29c-2.12,3.14-5.33,6.29-10.18,6.29-4.65,0-9.09-2.87-9.09-11,0-9.22,5.67-23.92,17.56-23.92,3.89,0,5.54,1.5,5.54,3.48v.48l.75-3.62Zm-23.57,22.62c0,5.26,2.19,5.33,3.42,5.33,2,0,4.85-2,5.67-6l3.28-15.44a2.65,2.65,0,0,0-2.8-2.6C374.13,295.95,370.38,308.25,370.38,314.67Z"/><path class="cls-10" d="M411.58,292.05l-4.92,23.23a7.3,7.3,0,0,0-.21,1.71c0,1.57.48,3,2,3,2.67,0,4.44-2.6,5.47-6l4.65-21.93h9.91l-8.34,39.63c-2,9.77-7.93,11.62-12.44,11.62-4.17,0-8.06-2.94-8.06-7.38,0-6.35,5.33-8.34,11.82-10.25l.68-3a10.56,10.56,0,0,1-8.34,4c-4.1,0-7.31-2.46-7.31-8.2a22.4,22.4,0,0,1,.55-4.44l4.65-21.93Zm-5.4,45.17c1.37,0,3.14-1.3,4-5.33l.82-4c-4.3,1.44-7.58,3.42-7.58,7.11A2.76,2.76,0,0,0,406.18,337.22Z"/><path class="cls-10" d="M311,396.6c-3.62,9.16-13.26,12.71-19.47,12.71-10.11,0-15-4.51-15-16.81S282.47,357,300.37,357c6.42,0,11.41,2.53,11.41,9.16,0,3.62-1.3,6.29-4.78,6.29a4.92,4.92,0,0,1-3.9-1.78c1.64-.82,3.14-3.69,3.14-6.29,0-2.19-1.09-4.17-4.17-4.17-7.52,0-14.21,18-14.21,31.91,0,6.29,1.64,10.66,8.2,10.66a16.57,16.57,0,0,0,13.32-6.83Z"/><path class="cls-10" d="M326.34,380c-2.66,0-4.78,4.17-5.19,6l-4.71,22.21h-9.84l9.91-46.46,10.11-1.37-3.69,17.22a10.15,10.15,0,0,1,8-3.83c4.37,0,7.58,2.25,7.58,7.72s-3.28,13.8-3.28,17.63c0,1.71.68,2.87,2.73,2.87,3,0,4.24-2.46,5.74-6h2.87c-3.83,11.21-9.09,12.64-12.71,12.64-5.94,0-8.06-3.83-8.06-7.72,0-4.65,3.07-13.05,3.07-17.42C328.86,381.23,328,380,326.34,380Z"/><path class="cls-10" d="M376.49,374.05l-4.92,23.23a9.48,9.48,0,0,0-.27,2.19c0,1.91.89,2.94,2.8,2.94,2.67,0,4.51-3,5.53-6.42h2.87c-3.89,11.14-10,12.64-13.73,12.64s-6.29-2.19-6.7-6.29c-2.12,3.14-5.33,6.29-10.18,6.29-4.65,0-9.09-2.87-9.09-11,0-9.22,5.67-23.92,17.56-23.92,3.89,0,5.54,1.5,5.54,3.49v.48l.75-3.62Zm-23.57,22.62c0,5.26,2.19,5.33,3.42,5.33,2,0,4.85-2,5.67-6l3.28-15.44a2.65,2.65,0,0,0-2.8-2.6C356.68,377.95,352.92,390.25,352.92,396.67Z"/><path class="cls-10" d="M394.12,374.05l-4.92,23.23a9.48,9.48,0,0,0-.27,2.19c0,1.91.89,2.53,2.8,2.53,2.66,0,5.12-2.6,6.15-6h2.87c-3.9,11.14-10.66,12.64-14.35,12.64-4.1,0-7.31-2.46-7.31-8.2a22.4,22.4,0,0,1,.55-4.44l4.65-21.93ZM391,359.5a5.48,5.48,0,0,1,5.47,5.47,5.42,5.42,0,0,1-5.47,5.4,5.37,5.37,0,0,1-5.4-5.4A5.42,5.42,0,0,1,391,359.5Z"/><path class="cls-10" d="M415.1,380c-2.46,0-4.3,2.87-5.33,6.29l-4.65,21.93h-9.84l7.24-34.16h9.84l-.75,3.55a10.16,10.16,0,0,1,8-3.83c4.37,0,7.58,2.25,7.58,7.72s-3.28,13.8-3.28,17.63c0,1.71.68,2.87,2.73,2.87a4.2,4.2,0,0,0,2.25-.41c-.62,4.92-3.9,7-7.52,7-5.26,0-6.9-3.83-6.9-7.72,0-4.65,3.08-13.05,3.08-17.42C417.56,381.23,416.74,380,415.1,380Z"/><polygon class="cls-11" points="744.16 441.51 590.49 441.51 581.77 458.3 572.54 441.51 561.87 441.51 561.87 358.37 744.16 358.37 744.16 441.51"/><polygon class="cls-6" points="741.03 438.39 587.37 438.39 578.65 455.18 569.41 438.39 558.74 438.39 558.74 355.25 741.03 355.25 741.03 438.39"/><path class="cls-12" d="M601.24,370.37h-8.85v6.38h7.8v2.56h-7.8v7h8.85v2.56H589.65V367.81h11.59Z"/><path class="cls-12" d="M608.37,373.71h3.88v2.41h-3.91l-.06,8.13a3,3,0,0,0,.47,1.91,2.13,2.13,0,0,0,1.7.56,5.69,5.69,0,0,0,1.81-.27v2.32a6.33,6.33,0,0,1-2.26.33,4.48,4.48,0,0,1-3.27-1.05,4.4,4.4,0,0,1-1-3.31l.06-8.61h-2.83v-2.41h2.83l0-3.79h2.62Z"/><path class="cls-12" d="M618.07,375.61a3.7,3.7,0,0,1,1.58-1.61,5.17,5.17,0,0,1,2.57-.62,4.51,4.51,0,0,1,3.64,1.54,6.24,6.24,0,0,1,1.29,4.15v9.81h-2.62v-9.39a4,4,0,0,0-.78-2.65,2.68,2.68,0,0,0-2.17-.93,3,3,0,0,0-2.54,1.31,5.78,5.78,0,0,0-1,3.54v8.13h-2.59v-22h2.59Z"/><path class="cls-12" d="M642.6,375.4a8.07,8.07,0,0,1,1.87,5.69v1.23H632.94a4.79,4.79,0,0,0,1.43,3.28,4.57,4.57,0,0,0,3.27,1.2q3.16,0,4.09-2.47h2.59a6.86,6.86,0,0,1-2.45,3.6,7,7,0,0,1-4.29,1.28,6.92,6.92,0,0,1-5.27-2.17,9,9,0,0,1,0-11.41,6.82,6.82,0,0,1,5.3-2.26A6.52,6.52,0,0,1,642.6,375.4Zm-8.16,1.55A4.88,4.88,0,0,0,633,380h8.88a4,4,0,0,0-4.28-4.21A4.39,4.39,0,0,0,634.44,376.95Z"/><path class="cls-12" d="M655.37,376.15a4.34,4.34,0,0,0-3.07,1.11,4.77,4.77,0,0,0-1.38,3.58v8h-2.59V373.71h2.32l.18,2.65a4.05,4.05,0,0,1,1.64-2,5.17,5.17,0,0,1,2.91-.78Z"/><path class="cls-12" d="M669.19,375.4a8.07,8.07,0,0,1,1.87,5.69v1.23H659.52A4.79,4.79,0,0,0,661,385.6a4.57,4.57,0,0,0,3.27,1.2q3.16,0,4.09-2.47h2.59a6.86,6.86,0,0,1-2.45,3.6,7,7,0,0,1-4.29,1.28,6.92,6.92,0,0,1-5.27-2.17,9,9,0,0,1,0-11.41,6.82,6.82,0,0,1,5.3-2.26A6.52,6.52,0,0,1,669.19,375.4ZM661,376.95a4.88,4.88,0,0,0-1.48,3.06h8.88a4,4,0,0,0-4.27-4.21A4.39,4.39,0,0,0,661,376.95Z"/><path class="cls-12" d="M686,388.89h-2.32l-.15-2.08a4.21,4.21,0,0,1-4.18,2.41,4.43,4.43,0,0,1-3.61-1.52,6.33,6.33,0,0,1-1.26-4.17v-9.81h2.59v9.39a4.16,4.16,0,0,0,.75,2.69,2.61,2.61,0,0,0,2.14.92,3,3,0,0,0,2.5-1.23,5.29,5.29,0,0,0,1-3.34v-8.43H686Z"/><path class="cls-12" d="M709.93,374.92a6.29,6.29,0,0,1,1.28,4.15v9.81h-2.59v-9.39a4.07,4.07,0,0,0-.77-2.65,2.63,2.63,0,0,0-2.15-.93,3,3,0,0,0-2.5,1.25,5.54,5.54,0,0,0-1,3.39v8.34h-2.59v-9.39a4.07,4.07,0,0,0-.77-2.65,2.63,2.63,0,0,0-2.15-.93,3,3,0,0,0-2.53,1.31,5.85,5.85,0,0,0-1,3.54v8.13h-2.59V373.71h2.32l.15,2.08a4.42,4.42,0,0,1,1.67-1.75,4.83,4.83,0,0,1,2.54-.66,4.37,4.37,0,0,1,4.42,2.89,4.87,4.87,0,0,1,4.58-2.89A4.46,4.46,0,0,1,709.93,374.92Z"/><path class="cls-12" d="M585.54,405.49a5.25,5.25,0,0,1,1.78,4.17,4.87,4.87,0,0,1-2.26,4.31,5.13,5.13,0,0,1,3.55,5,5.85,5.85,0,0,1-.86,3.18,5.58,5.58,0,0,1-2.42,2.11,8.53,8.53,0,0,1-3.67.74h-6.8V403.94h5.87A7.07,7.07,0,0,1,585.54,405.49ZM577.59,413h3.25a4,4,0,0,0,2.69-.87,2.91,2.91,0,0,0,1-2.32,3,3,0,0,0-1-2.45,4.21,4.21,0,0,0-2.81-.86h-3.13Zm0,9.45h4.06a4.58,4.58,0,0,0,3-.93,3.19,3.19,0,0,0,1.11-2.59,3.06,3.06,0,0,0-1.1-2.5,4.68,4.68,0,0,0-3.06-.9h-4.06Z"/><path class="cls-12" d="M599.21,412.28a4.35,4.35,0,0,0-3.07,1.11,4.77,4.77,0,0,0-1.38,3.58v8h-2.59V409.84h2.32l.18,2.65a4.05,4.05,0,0,1,1.64-2,5.17,5.17,0,0,1,2.91-.78Z"/><path class="cls-12" d="M604.88,406.41a1.77,1.77,0,0,1-1.28.51,1.71,1.71,0,0,1-1.26-.51,1.68,1.68,0,0,1-.51-1.23,1.75,1.75,0,0,1,1.78-1.78,1.77,1.77,0,0,1,1.28.51,1.7,1.7,0,0,1,.53,1.26A1.66,1.66,0,0,1,604.88,406.41Zm0,18.6h-2.59V409.84h2.59Z"/><path class="cls-12" d="M623.08,425h-2.32l-.15-2.23a5.89,5.89,0,0,1-5.21,2.56,6.49,6.49,0,0,1-5.12-2.23,9.21,9.21,0,0,1,0-11.35,6.54,6.54,0,0,1,5.15-2.26,5.63,5.63,0,0,1,5.06,2.41V403h2.59Zm-10.72-11.5a5.56,5.56,0,0,0-1.35,3.91,5.85,5.85,0,0,0,1.31,4,4.59,4.59,0,0,0,6.79,0,5.4,5.4,0,0,0,1.42-3.85v-.15a5.52,5.52,0,0,0-1.42-3.94,4.5,4.5,0,0,0-6.74,0Z"/><path class="cls-12" d="M640.6,412.13H638a5.32,5.32,0,0,1,.75,2.83,5.12,5.12,0,0,1-1.6,3.85,5.72,5.72,0,0,1-4.18,1.54,6.57,6.57,0,0,1-3.28-.81,2,2,0,0,0-.6,1.5,1.34,1.34,0,0,0,.53,1.13,2.23,2.23,0,0,0,1.4.41h4a5.26,5.26,0,0,1,3.57,1.07,3.85,3.85,0,0,1,1.22,3.06,4.54,4.54,0,0,1-1.7,3.76,7.22,7.22,0,0,1-4.62,1.35,8.32,8.32,0,0,1-4.91-1.23,4,4,0,0,1-1.72-3.49,2.94,2.94,0,0,1,1.66-2.74,3.88,3.88,0,0,1-1.44-1.29,3.25,3.25,0,0,1-.57-1.87,3.59,3.59,0,0,1,1.57-3.1,5.58,5.58,0,0,1,.63-7,5.93,5.93,0,0,1,4.25-1.54,7.39,7.39,0,0,1,2.17.33h5.51ZM630,425.46a2,2,0,0,0-.59,1.54,2.07,2.07,0,0,0,1.07,1.88,5.8,5.8,0,0,0,3,.65,4.78,4.78,0,0,0,2.78-.69,2.32,2.32,0,0,0,1-2q0-2-2.74-2H631.6A2.52,2.52,0,0,0,630,425.46Zm.56-8.28a3.59,3.59,0,0,0,4.7,0,3,3,0,0,0,.9-2.23,3.05,3.05,0,0,0-.9-2.27,3.55,3.55,0,0,0-4.7,0,3,3,0,0,0-.9,2.27A3,3,0,0,0,630.55,417.18Z"/><path class="cls-12" d="M653.94,411.52a8.07,8.07,0,0,1,1.87,5.69v1.23H644.27a4.79,4.79,0,0,0,1.43,3.28,4.57,4.57,0,0,0,3.27,1.2q3.16,0,4.09-2.47h2.59a6.86,6.86,0,0,1-2.45,3.6,7,7,0,0,1-4.29,1.28,6.92,6.92,0,0,1-5.27-2.17,9,9,0,0,1,0-11.41,6.82,6.82,0,0,1,5.3-2.26A6.52,6.52,0,0,1,653.94,411.52Zm-8.16,1.55a4.88,4.88,0,0,0-1.47,3.06h8.88a4,4,0,0,0-4.28-4.21A4.39,4.39,0,0,0,645.78,413.08Z"/><path class="cls-12" d="M670.25,410.83a6.11,6.11,0,0,1,2.35,3.73H670a3.72,3.72,0,0,0-1.55-2,4.72,4.72,0,0,0-2.57-.69,4.31,4.31,0,0,0-3.4,1.57,6,6,0,0,0-1.32,4,5.84,5.84,0,0,0,1.35,3.91,4.34,4.34,0,0,0,3.43,1.57,4.6,4.6,0,0,0,2.56-.72,3.56,3.56,0,0,0,1.5-1.93h2.62a6.36,6.36,0,0,1-2.41,3.73,7.18,7.18,0,0,1-4.37,1.32,6.93,6.93,0,0,1-5.3-2.23,8,8,0,0,1-2.08-5.66,8.08,8.08,0,0,1,2.08-5.69,7,7,0,0,1,5.3-2.26A7.23,7.23,0,0,1,670.25,410.83Z"/><path class="cls-12" d="M678.68,411.74a3.7,3.7,0,0,1,1.58-1.61,5.17,5.17,0,0,1,2.57-.62,4.5,4.5,0,0,1,3.64,1.54,6.24,6.24,0,0,1,1.29,4.15V425h-2.62v-9.39a4,4,0,0,0-.78-2.65,2.68,2.68,0,0,0-2.17-.93,3,3,0,0,0-2.54,1.31,5.78,5.78,0,0,0-1,3.54V425h-2.59V403h2.59Z"/><path class="cls-12" d="M701.28,410.92a5.43,5.43,0,0,1,1.43,4V425h-2.35l-.12-2.08a4.5,4.5,0,0,1-1.84,1.76,5.76,5.76,0,0,1-2.77.65,4.45,4.45,0,0,1-3.22-1.16,4.12,4.12,0,0,1-1.2-3.12q0-3.58,4.25-4.4l4.64-.87V415q0-3.13-2.8-3.13a3.32,3.32,0,0,0-2.24.74,2.54,2.54,0,0,0-.86,2h-2.56a4.92,4.92,0,0,1,1.63-3.7,5.64,5.64,0,0,1,4-1.48A5.43,5.43,0,0,1,701.28,410.92Zm-5.34,8a3.8,3.8,0,0,0-1.58.74,1.95,1.95,0,0,0,.08,2.74,2.63,2.63,0,0,0,1.72.5,3.56,3.56,0,0,0,3.07-1.51,4.64,4.64,0,0,0,.87-2.8v-.57Z"/><path class="cls-12" d="M709.65,406.41a1.77,1.77,0,0,1-1.28.51,1.71,1.71,0,0,1-1.26-.51,1.68,1.68,0,0,1-.51-1.23,1.75,1.75,0,0,1,1.78-1.78,1.77,1.77,0,0,1,1.28.51,1.7,1.7,0,0,1,.53,1.26A1.66,1.66,0,0,1,709.65,406.41Zm0,18.6h-2.59V409.84h2.59Z"/><path class="cls-12" d="M724.71,411A6.24,6.24,0,0,1,726,415.2V425h-2.62v-9.39a4,4,0,0,0-.78-2.65,2.68,2.68,0,0,0-2.17-.93,3,3,0,0,0-2.54,1.31,5.78,5.78,0,0,0-1,3.54V425h-2.59V409.84h2.32l.15,2.08a4.44,4.44,0,0,1,4.27-2.41A4.5,4.5,0,0,1,724.71,411Z"/><polygon class="cls-11" points="497.34 138.8 363.19 138.8 354.47 155.59 345.24 138.8 334.57 138.8 334.57 96.25 497.34 96.25 497.34 138.8"/><polygon class="cls-13" points="494.21 134.9 360.07 134.9 351.35 151.68 342.11 134.9 331.44 134.9 331.44 92.35 494.21 92.35 494.21 134.9"/><path class="cls-12" d="M363.38,104.38a6.73,6.73,0,0,1,0,9.3,7,7,0,0,1-5,1.75h-3.49v8.22h-2.74V102.57h6.23A6.86,6.86,0,0,1,363.38,104.38Zm-8.52,8.49h3.49a4.28,4.28,0,0,0,3-1,3.61,3.61,0,0,0,1.11-2.8,3.72,3.72,0,0,0-1.13-2.86,4.21,4.21,0,0,0-3-1.05h-3.49Z"/><path class="cls-12" d="M377.13,109.56a5.43,5.43,0,0,1,1.43,4v10.06h-2.35l-.12-2.08a4.52,4.52,0,0,1-1.84,1.76,5.76,5.76,0,0,1-2.77.65,4.45,4.45,0,0,1-3.22-1.16,4.12,4.12,0,0,1-1.2-3.12q0-3.58,4.24-4.4l4.64-.87v-.75q0-3.13-2.8-3.13a3.32,3.32,0,0,0-2.24.74,2.54,2.54,0,0,0-.86,2h-2.56a4.93,4.93,0,0,1,1.63-3.7,5.65,5.65,0,0,1,4-1.47A5.43,5.43,0,0,1,377.13,109.56Zm-5.34,8a3.8,3.8,0,0,0-1.58.74,1.69,1.69,0,0,0-.53,1.34,1.71,1.71,0,0,0,.6,1.4,2.63,2.63,0,0,0,1.72.5,3.56,3.56,0,0,0,3.07-1.51,4.64,4.64,0,0,0,.87-2.8v-.57Z"/><path class="cls-12" d="M390.06,110.91A4.34,4.34,0,0,0,387,112a4.77,4.77,0,0,0-1.38,3.58v8H383V108.47h2.32l.18,2.65a4,4,0,0,1,1.64-2,5.17,5.17,0,0,1,2.91-.78Z"/><path class="cls-12" d="M401.84,109.56a5.43,5.43,0,0,1,1.43,4v10.06h-2.35l-.12-2.08a4.52,4.52,0,0,1-1.84,1.76,5.76,5.76,0,0,1-2.77.65,4.45,4.45,0,0,1-3.22-1.16,4.12,4.12,0,0,1-1.2-3.12q0-3.58,4.24-4.4l4.64-.87v-.75q0-3.13-2.8-3.13a3.32,3.32,0,0,0-2.24.74,2.54,2.54,0,0,0-.86,2h-2.56a4.93,4.93,0,0,1,1.63-3.7,5.65,5.65,0,0,1,4-1.47A5.43,5.43,0,0,1,401.84,109.56Zm-5.34,8a3.8,3.8,0,0,0-1.58.74,1.69,1.69,0,0,0-.53,1.34,1.71,1.71,0,0,0,.6,1.4,2.63,2.63,0,0,0,1.72.5,3.56,3.56,0,0,0,3.07-1.51,4.64,4.64,0,0,0,.87-2.8v-.57Z"/><path class="cls-12" d="M418.08,109.47a6.11,6.11,0,0,1,2.35,3.73h-2.59a3.72,3.72,0,0,0-1.55-2,4.73,4.73,0,0,0-2.57-.69,4.31,4.31,0,0,0-3.4,1.57,6,6,0,0,0-1.32,4,5.84,5.84,0,0,0,1.35,3.91,4.34,4.34,0,0,0,3.43,1.57,4.6,4.6,0,0,0,2.56-.72,3.56,3.56,0,0,0,1.5-1.93h2.62a6.37,6.37,0,0,1-2.41,3.73,7.18,7.18,0,0,1-4.37,1.32,6.93,6.93,0,0,1-5.3-2.23,8,8,0,0,1-2.08-5.66,8.08,8.08,0,0,1,2.08-5.69,7,7,0,0,1,5.3-2.26A7.23,7.23,0,0,1,418.08,109.47Z"/><path class="cls-12" d="M426.51,110.37a3.7,3.7,0,0,1,1.58-1.61,5.17,5.17,0,0,1,2.57-.62,4.51,4.51,0,0,1,3.64,1.54,6.24,6.24,0,0,1,1.29,4.15v9.81H433v-9.39a4,4,0,0,0-.78-2.65,2.68,2.68,0,0,0-2.17-.93,3,3,0,0,0-2.54,1.31,5.78,5.78,0,0,0-1,3.54v8.13h-2.59v-22h2.59Z"/><path class="cls-12" d="M449.11,109.56a5.43,5.43,0,0,1,1.43,4v10.06h-2.35l-.12-2.08a4.51,4.51,0,0,1-1.84,1.76,5.76,5.76,0,0,1-2.77.65,4.45,4.45,0,0,1-3.22-1.16,4.12,4.12,0,0,1-1.2-3.12q0-3.58,4.25-4.4l4.64-.87v-.75q0-3.13-2.8-3.13a3.32,3.32,0,0,0-2.24.74,2.54,2.54,0,0,0-.86,2h-2.56a4.92,4.92,0,0,1,1.63-3.7,5.64,5.64,0,0,1,4-1.47A5.43,5.43,0,0,1,449.11,109.56Zm-5.34,8a3.79,3.79,0,0,0-1.58.74,1.95,1.95,0,0,0,.08,2.74,2.63,2.63,0,0,0,1.72.5,3.56,3.56,0,0,0,3.07-1.51,4.64,4.64,0,0,0,.87-2.8v-.57Z"/><path class="cls-12" d="M457.48,105a1.77,1.77,0,0,1-1.28.51,1.72,1.72,0,0,1-1.26-.51,1.68,1.68,0,0,1-.51-1.23A1.75,1.75,0,0,1,456.2,102a1.77,1.77,0,0,1,1.28.51,1.69,1.69,0,0,1,.53,1.26A1.66,1.66,0,0,1,457.48,105Zm0,18.6H454.9V108.47h2.59Z"/><path class="cls-12" d="M472.54,109.68a6.24,6.24,0,0,1,1.29,4.15v9.81h-2.62v-9.39a4,4,0,0,0-.78-2.65,2.68,2.68,0,0,0-2.17-.93,3,3,0,0,0-2.54,1.31,5.78,5.78,0,0,0-1,3.54v8.13h-2.59V108.47h2.32l.15,2.08a4.44,4.44,0,0,1,4.27-2.41A4.51,4.51,0,0,1,472.54,109.68Z"/><polygon class="cls-11" points="212.74 529.5 346.89 529.5 355.6 546.28 364.84 529.5 375.51 529.5 375.51 486.95 212.74 486.95 212.74 529.5"/><polygon class="cls-6" points="210.51 525.59 344.66 525.59 353.38 542.38 362.62 525.59 373.29 525.59 373.29 483.04 210.51 483.04 210.51 525.59"/><path class="cls-12" d="M241.11,495.07a6.73,6.73,0,0,1,0,9.3,7,7,0,0,1-5,1.75h-3.49v8.22h-2.74V493.27h6.23A6.86,6.86,0,0,1,241.11,495.07Zm-8.52,8.49h3.49a4.27,4.27,0,0,0,3-1,3.61,3.61,0,0,0,1.11-2.8,3.72,3.72,0,0,0-1.13-2.86,4.21,4.21,0,0,0-3-1.05h-3.49Z"/><path class="cls-12" d="M254.86,500.25a5.43,5.43,0,0,1,1.43,4v10.05h-2.35l-.12-2.08A4.51,4.51,0,0,1,252,514a5.77,5.77,0,0,1-2.77.65,4.45,4.45,0,0,1-3.22-1.16,4.12,4.12,0,0,1-1.2-3.12q0-3.58,4.24-4.4l4.64-.87v-.75q0-3.13-2.8-3.13a3.32,3.32,0,0,0-2.24.74,2.54,2.54,0,0,0-.86,2h-2.56a4.93,4.93,0,0,1,1.63-3.7,5.64,5.64,0,0,1,4-1.48A5.43,5.43,0,0,1,254.86,500.25Zm-5.34,8a3.81,3.81,0,0,0-1.58.74,1.69,1.69,0,0,0-.53,1.34,1.71,1.71,0,0,0,.6,1.4,2.63,2.63,0,0,0,1.72.5,3.56,3.56,0,0,0,3.07-1.5,4.64,4.64,0,0,0,.87-2.8v-.57Z"/><path class="cls-12" d="M267.79,501.6a4.35,4.35,0,0,0-3.07,1.11,4.77,4.77,0,0,0-1.38,3.58v8h-2.59V499.17h2.32l.18,2.65a4,4,0,0,1,1.64-2,5.17,5.17,0,0,1,2.91-.78Z"/><path class="cls-12" d="M279.57,500.25a5.43,5.43,0,0,1,1.43,4v10.05h-2.35l-.12-2.08A4.51,4.51,0,0,1,276.7,514a5.77,5.77,0,0,1-2.77.65,4.45,4.45,0,0,1-3.22-1.16,4.12,4.12,0,0,1-1.2-3.12q0-3.58,4.24-4.4l4.64-.87v-.75q0-3.13-2.8-3.13a3.32,3.32,0,0,0-2.24.74,2.54,2.54,0,0,0-.86,2h-2.56a4.93,4.93,0,0,1,1.63-3.7,5.64,5.64,0,0,1,4-1.48A5.43,5.43,0,0,1,279.57,500.25Zm-5.34,8a3.81,3.81,0,0,0-1.58.74,1.69,1.69,0,0,0-.53,1.34,1.71,1.71,0,0,0,.6,1.4,2.63,2.63,0,0,0,1.72.5,3.56,3.56,0,0,0,3.07-1.5,4.64,4.64,0,0,0,.87-2.8v-.57Z"/><path class="cls-12" d="M295.81,500.16a6.11,6.11,0,0,1,2.35,3.73h-2.59a3.72,3.72,0,0,0-1.55-2,4.73,4.73,0,0,0-2.57-.69,4.31,4.31,0,0,0-3.4,1.57,6,6,0,0,0-1.32,4,5.84,5.84,0,0,0,1.35,3.91,4.34,4.34,0,0,0,3.43,1.57,4.6,4.6,0,0,0,2.56-.72,3.56,3.56,0,0,0,1.5-1.93h2.62a6.36,6.36,0,0,1-2.41,3.73,7.18,7.18,0,0,1-4.37,1.32,6.93,6.93,0,0,1-5.3-2.23,8,8,0,0,1-2.08-5.66,8.08,8.08,0,0,1,2.08-5.69,7,7,0,0,1,5.3-2.26A7.23,7.23,0,0,1,295.81,500.16Z"/><path class="cls-12" d="M304.24,501.06a3.7,3.7,0,0,1,1.58-1.61,5.17,5.17,0,0,1,2.57-.62,4.5,4.5,0,0,1,3.64,1.54,6.24,6.24,0,0,1,1.29,4.15v9.81h-2.62v-9.39a4,4,0,0,0-.78-2.65,2.68,2.68,0,0,0-2.17-.93,3,3,0,0,0-2.54,1.31,5.78,5.78,0,0,0-1,3.54v8.13h-2.59v-22h2.59Z"/><path class="cls-12" d="M326.84,500.25a5.42,5.42,0,0,1,1.43,4v10.05h-2.35l-.12-2.08A4.5,4.5,0,0,1,324,514a5.76,5.76,0,0,1-2.77.65,4.45,4.45,0,0,1-3.22-1.16,4.12,4.12,0,0,1-1.2-3.12q0-3.58,4.25-4.4l4.64-.87v-.75q0-3.13-2.8-3.13a3.32,3.32,0,0,0-2.24.74,2.54,2.54,0,0,0-.86,2h-2.56a4.92,4.92,0,0,1,1.63-3.7,5.64,5.64,0,0,1,4-1.48A5.43,5.43,0,0,1,326.84,500.25Zm-5.34,8a3.81,3.81,0,0,0-1.58.74,1.95,1.95,0,0,0,.08,2.74,2.63,2.63,0,0,0,1.72.5,3.56,3.56,0,0,0,3.07-1.5,4.64,4.64,0,0,0,.87-2.8v-.57Z"/><path class="cls-12" d="M335.21,495.73a1.77,1.77,0,0,1-1.28.51,1.71,1.71,0,0,1-1.26-.51,1.68,1.68,0,0,1-.51-1.23,1.75,1.75,0,0,1,1.78-1.78,1.77,1.77,0,0,1,1.28.51,1.7,1.7,0,0,1,.53,1.26A1.66,1.66,0,0,1,335.21,495.73Zm0,18.6h-2.59V499.17h2.59Z"/><path class="cls-12" d="M350.27,500.37a6.24,6.24,0,0,1,1.29,4.15v9.81h-2.62v-9.39a4,4,0,0,0-.78-2.65,2.68,2.68,0,0,0-2.17-.93,3,3,0,0,0-2.54,1.31,5.78,5.78,0,0,0-1,3.54v8.13h-2.59V499.17h2.32l.15,2.08a4.44,4.44,0,0,1,4.27-2.41A4.5,4.5,0,0,1,350.27,500.37Z"/><line class="cls-14" x1="516.43" y1="198.27" x2="459.78" y2="286.17"/><line class="cls-14" x1="574.06" y1="286.17" x2="459.78" y2="286.17"/><line class="cls-14" x1="516.43" y1="198.27" x2="574.06" y2="286.17"/><circle class="cls-15" cx="348.78" cy="348.74" r="346.78"/><path class="cls-16" d="M353.47,697.49a2,2,0,0,1,0-4h1a2,2,0,0,1,0,4l-1,0Zm-10,0h0l-1,0a2,2,0,1,1,.08-4l1,0a2,2,0,0,1,0,4Zm21-.31a2,2,0,0,1-.09-4l1,0a2,2,0,1,1,.19,4l-1,0Zm-32,0h-.1l-1,0a2,2,0,0,1,.19-4l1,0a2,2,0,0,1-.09,4Zm43-.63a2,2,0,0,1-.15-4l1-.08a2,2,0,0,1,.32,4l-1,.08Zm-53.94,0h-.16l-1-.08a2,2,0,0,1,.32-4l1,.08a2,2,0,0,1-.15,4Zm64.89-1a2,2,0,0,1-.21-4l1-.11a2,2,0,0,1,.44,4l-1,.11Zm-75.85-.07h-.22l-1-.11a2,2,0,1,1,.45-4l1,.11a2,2,0,0,1-.21,4Zm86.76-1.28a2,2,0,0,1-.27-4l1-.14a2,2,0,1,1,.57,4l-1,.14Zm-97.68-.09-.28,0-1-.14a2,2,0,1,1,.57-4l1,.14a2,2,0,0,1-.28,4Zm108.55-1.61a2,2,0,0,1-.34-4l1-.17a2,2,0,1,1,.69,3.94l-1,.17Zm-119.42-.11a2,2,0,0,1-.34,0l-1-.17a2,2,0,1,1,.7-3.94l1,.17a2,2,0,0,1-.34,4ZM419,690.41a2,2,0,0,1-.4-4l1-.2a2,2,0,0,1,.81,3.92l-1,.2A2,2,0,0,1,419,690.41Zm-141-.13a2,2,0,0,1-.41,0l-1-.21a2,2,0,0,1,.82-3.92l1,.2a2,2,0,0,1-.4,4ZM429.72,688a2,2,0,0,1-.46-3.95l1-.23a2,2,0,1,1,.94,3.89l-1,.24A2,2,0,0,1,429.72,688Zm-162.51-.15a2,2,0,0,1-.47-.06l-1-.24a2,2,0,0,1,.95-3.89l1,.23a2,2,0,0,1-.47,3.94Zm173.17-2.58a2,2,0,0,1-.53-3.93l1-.26a2,2,0,0,1,1.07,3.86l-1,.27A2,2,0,0,1,440.38,685.29Zm-183.82-.17a2,2,0,0,1-.53-.07l-1-.27a2,2,0,0,1,1.08-3.85l1,.26a2,2,0,0,1-.53,3.93Zm194.39-2.9a2,2,0,0,1-.58-3.91l.95-.29a2,2,0,0,1,1.19,3.82l-1,.3A2,2,0,0,1,450.95,682.22ZM246,682a2,2,0,0,1-.59-.09l-1-.3a2,2,0,1,1,1.19-3.82l1,.3A2,2,0,0,1,246,682Zm215.41-3.22a2,2,0,0,1-.65-3.89l.94-.32a2,2,0,1,1,1.31,3.78l-1,.33A2,2,0,0,1,461.41,678.82Zm-225.9-.22a2,2,0,0,1-.65-.11l-1-.33a2,2,0,1,1,1.32-3.78l.94.33a2,2,0,0,1-.65,3.89Zm236.25-3.52a2,2,0,0,1-.71-3.87l.93-.35a2,2,0,1,1,1.43,3.74l-.94.36A2,2,0,0,1,471.76,675.08Zm-246.63-.25a2,2,0,0,1-.71-.13l-.94-.36a2,2,0,0,1,1.44-3.73l.93.36a2,2,0,0,1-.71,3.87ZM482,671a2,2,0,0,1-.77-3.85l.91-.38a2,2,0,1,1,1.55,3.69l-.92.39A2,2,0,0,1,482,671Zm-267.06-.3a2,2,0,0,1-.77-.16l-.93-.39a2,2,0,0,1,1.55-3.69l.92.39a2,2,0,0,1-.77,3.84ZM492,666.65a2,2,0,0,1-.83-3.82l.9-.41a2,2,0,1,1,1.67,3.64l-.91.42A2,2,0,0,1,492,666.65Zm-287.22-.35a2,2,0,0,1-.83-.18l-.92-.42a2,2,0,1,1,1.67-3.63l.91.42a2,2,0,0,1-.83,3.82ZM501.92,662a2,2,0,0,1-.88-3.79l.88-.44a2,2,0,0,1,1.78,3.58l-.9.45A2,2,0,0,1,501.92,662Zm-307.09-.4a2,2,0,0,1-.89-.21l-.91-.45a2,2,0,1,1,1.79-3.58l.89.44a2,2,0,0,1-.89,3.79ZM511.69,657a2,2,0,0,1-.94-3.77l.87-.47a2,2,0,1,1,1.89,3.52l-.89.47A2,2,0,0,1,511.69,657ZM185,656.5a2,2,0,0,1-.94-.24l-.89-.48a2,2,0,1,1,1.9-3.52l.88.47a2,2,0,0,1-.95,3.76Zm336.26-4.87a2,2,0,0,1-1-3.73l.86-.5a2,2,0,0,1,2,3.46l-.87.5A2,2,0,0,1,521.29,651.63Zm-345.89-.5a2,2,0,0,1-1-.27l-.87-.5a2,2,0,1,1,2-3.46l.86.5a2,2,0,0,1-1,3.73ZM530.72,646a2,2,0,0,1-1.05-3.7l.84-.52a2,2,0,1,1,2.11,3.4l-.85.53A2,2,0,0,1,530.72,646ZM166,645.47a2,2,0,0,1-1.05-.3l-.86-.53a2,2,0,1,1,2.12-3.39l.84.53a2,2,0,0,1-1.06,3.7Zm374-5.37a2,2,0,0,1-1.11-3.67l.83-.55a2,2,0,0,1,2.22,3.33l-.84.56A2,2,0,0,1,540,640.1Zm-383.29-.59a2,2,0,0,1-1.11-.34l-.84-.56a2,2,0,0,1,2.23-3.32l.83.55a2,2,0,0,1-1.11,3.66ZM549,633.89a2,2,0,0,1-1.16-3.63l.81-.57a2,2,0,1,1,2.32,3.26l-.82.58A2,2,0,0,1,549,633.89Zm-401.41-.63a2,2,0,0,1-1.16-.37l-.82-.59A2,2,0,1,1,148,629l.81.58a2,2,0,0,1-1.16,3.63Zm410.28-5.86a2,2,0,0,1-1.21-3.59l.79-.6a2,2,0,1,1,2.42,3.18l-.8.61A2,2,0,0,1,557.9,627.39Zm-419.14-.67a2,2,0,0,1-1.21-.41l-.8-.61a2,2,0,1,1,2.44-3.17l.79.6a2,2,0,0,1-1.21,3.59Zm427.8-6.1a2,2,0,0,1-1.26-3.56l.77-.63a2,2,0,0,1,2.52,3.1l-.78.63A2,2,0,0,1,566.56,620.62Zm-436.45-.71a2,2,0,0,1-1.26-.45l-.78-.63a2,2,0,1,1,2.53-3.1l.77.63a2,2,0,0,1-1.26,3.55ZM575,613.58a2,2,0,0,1-1.31-3.52l.75-.65a2,2,0,0,1,2.62,3l-.76.66A2,2,0,0,1,575,613.58Zm-453.32-.75a2,2,0,0,1-1.31-.49l-.76-.66a2,2,0,1,1,2.63-3l.75.65a2,2,0,0,1-1.31,3.51Zm461.54-6.56a2,2,0,0,1-1.35-3.47l.73-.67a2,2,0,0,1,2.71,2.94l-.74.68A2,2,0,0,1,583.22,606.27Zm-469.73-.78a2,2,0,0,1-1.36-.53l-.74-.69a2,2,0,1,1,2.72-2.93l.73.67a2,2,0,0,1-1.36,3.47ZM591.2,598.7a2,2,0,0,1-1.4-3.43l.71-.7a2,2,0,0,1,2.8,2.85l-.72.7A2,2,0,0,1,591.2,598.7Zm-485.68-.81a2,2,0,0,1-1.4-.57l-.72-.71a2,2,0,1,1,2.81-2.84l.71.7a2,2,0,0,1-1.4,3.43Zm493.42-7a2,2,0,0,1-1.44-3.38l.69-.72a2,2,0,1,1,2.89,2.76l-.69.73A2,2,0,0,1,598.95,590.89Zm-501.14-.84a2,2,0,0,1-1.45-.62l-.69-.73a2,2,0,1,1,2.9-2.75l.69.72a2,2,0,0,1-1.45,3.38Zm508.64-7.25A2,2,0,0,1,605,579.5l.67-.74a2,2,0,0,1,3,2.67l-.64.71A2,2,0,0,1,606.45,582.81ZM90.34,582a2,2,0,0,1-1.49-.67l-.67-.75a2,2,0,0,1,3-2.66l.66.74A2,2,0,0,1,90.34,582Zm523.34-7.43a2,2,0,0,1-1.53-3.29l.64-.76a2,2,0,1,1,3.06,2.58l-.65.77A2,2,0,0,1,613.68,574.54Zm-530.54-.87a2,2,0,0,1-1.53-.71l-.65-.77A2,2,0,1,1,84,569.62l.64.76a2,2,0,0,1-1.53,3.29ZM620.65,566a2,2,0,0,1-1.57-3.24l.62-.78a2,2,0,0,1,3.14,2.48l-.62.79A2,2,0,0,1,620.65,566ZM76.2,565.14a2,2,0,0,1-1.57-.76l-.62-.79a2,2,0,0,1,3.15-2.47l.61.78a2,2,0,0,1-1.57,3.24Zm551.15-7.85a2,2,0,0,1-1.6-3.19l.59-.8a2,2,0,1,1,3.22,2.38l-.6.81A2,2,0,0,1,627.36,557.29ZM69.54,556.4a2,2,0,0,1-1.61-.81l-.6-.81a2,2,0,1,1,3.23-2.36l.59.8a2,2,0,0,1-1.61,3.19Zm564.24-8.05a2,2,0,0,1-1.64-3.14l.56-.82a2,2,0,0,1,3.29,2.27l-.57.83A2,2,0,0,1,633.78,548.35Zm-570.63-.89a2,2,0,0,1-1.65-.86l-.57-.83a2,2,0,1,1,3.3-2.26l.56.82a2,2,0,0,1-1.64,3.14Zm576.76-8.25a2,2,0,0,1-1.68-3.09l.54-.84a2,2,0,0,1,3.36,2.17l-.55.84A2,2,0,0,1,639.92,539.2Zm-582.86-.89a2,2,0,0,1-1.68-.92l-.54-.84a2,2,0,0,1,3.37-2.16l.54.84a2,2,0,0,1-1.68,3.08Zm588.71-8.45a2,2,0,0,1-1.71-3l.51-.85A2,2,0,1,1,648,528l-.52.87A2,2,0,0,1,645.77,529.87ZM51.26,529a2,2,0,0,1-1.72-1l-.52-.86a2,2,0,1,1,3.44-2L53,526a2,2,0,0,1-1.71,3Zm600.06-8.65a2,2,0,0,1-1.74-3l.49-.87a2,2,0,1,1,3.49,2l-.49.88A2,2,0,0,1,651.32,520.35Zm-605.56-.85a2,2,0,0,1-1.75-1l-.49-.88a2,2,0,0,1,3.5-1.94l.48.86a2,2,0,0,1-1.74,3Zm610.81-8.84a2,2,0,0,1-1.77-2.93l.46-.88a2,2,0,1,1,3.55,1.84l-.47.9A2,2,0,0,1,656.56,510.65Zm-616-.83a2,2,0,0,1-1.78-1.08l-.46-.9A2,2,0,0,1,41.88,506l.45.88a2,2,0,0,1-1.77,2.92Zm620.94-9a2,2,0,0,1-1.8-2.87l.43-.9a2,2,0,1,1,3.61,1.72l-.44.91A2,2,0,0,1,661.5,500.79ZM35.68,500a2,2,0,0,1-1.81-1.14l-.43-.9a2,2,0,1,1,3.61-1.71l.43.89a2,2,0,0,1-1.8,2.86Zm630.44-9.22a2,2,0,0,1-1.83-2.81l.4-.91a2,2,0,0,1,3.66,1.6l-.41.92A2,2,0,0,1,666.12,490.78Zm-635-.75a2,2,0,0,1-1.83-1.2l-.4-.92a2,2,0,0,1,3.67-1.6l.4.91a2,2,0,0,1-1.83,2.8Zm639.31-9.41a2,2,0,0,1-1.85-2.75l.37-.93a2,2,0,1,1,3.71,1.49l-.38.94A2,2,0,0,1,670.42,480.62Zm-643.56-.7A2,2,0,0,1,25,478.66l-.37-.94a2,2,0,0,1,3.72-1.48l.37.92a2,2,0,0,1-1.85,2.75Zm647.53-9.6a2,2,0,0,1-1.88-2.69l.34-.94a2,2,0,1,1,3.76,1.37l-.35.95A2,2,0,0,1,674.39,470.32Zm-651.47-.68A2,2,0,0,1,21,468.33l-.34-.95A2,2,0,1,1,24.46,466l.34.94a2,2,0,0,1-1.88,2.69ZM678,459.9a2,2,0,0,1-1.9-2.63l.31-.95a2,2,0,1,1,3.8,1.25l-.32,1A2,2,0,0,1,678,459.9Zm-658.71-.65a2,2,0,0,1-1.9-1.37l-.31-1a2,2,0,0,1,3.8-1.24l.31.94a2,2,0,0,1-1.9,2.63Zm662-9.85a2,2,0,0,1-1.92-2.57l.28-1a2,2,0,1,1,3.84,1.12l-.28,1A2,2,0,0,1,681.32,449.4ZM16,448.75a2,2,0,0,1-1.92-1.44l-.28-1a2,2,0,0,1,3.84-1.11l.28,1A2,2,0,0,1,16,448.75Zm668.24-9.95a2,2,0,0,1-1.94-2.51l.25-1a2,2,0,1,1,3.87,1l-.25,1A2,2,0,0,1,684.28,438.8Zm-671.17-.66a2,2,0,0,1-1.93-1.5l-.25-1a2,2,0,1,1,3.88-1l.25,1a2,2,0,0,1-1.94,2.5Zm673.79-10a2,2,0,0,1-2-2.45l.22-1a2,2,0,1,1,3.9.88l-.22,1A2,2,0,0,1,686.89,428.11Zm-676.38-.66a2,2,0,0,1-1.95-1.56l-.22-1a2,2,0,0,1,3.9-.87l.22,1a2,2,0,0,1-2,2.44Zm678.66-10.1a2,2,0,0,1-2-2.38l.19-1a2,2,0,0,1,3.93.75l-.19,1A2,2,0,0,1,689.17,417.35ZM8.26,416.68a2,2,0,0,1-2-1.62l-.19-1a2,2,0,0,1,3.93-.74l.19,1a2,2,0,0,1-1.59,2.34A2,2,0,0,1,8.26,416.68ZM691.1,406.52l-.32,0a2,2,0,0,1-1.65-2.29l.16-1a2,2,0,1,1,4,.63l-.16,1A2,2,0,0,1,691.1,406.52ZM6.35,405.85a2,2,0,0,1-2-1.68l-.16-1a2,2,0,0,1,4-.61l.15,1a2,2,0,0,1-1.66,2.29Zm686.33-10.22-.26,0a2,2,0,0,1-1.73-2.24l.13-1a2,2,0,0,1,4,.5l-.13,1A2,2,0,0,1,692.68,395.63ZM4.79,395a2,2,0,0,1-2-1.75l-.13-1a2,2,0,0,1,4-.5l.12,1A2,2,0,0,1,5,394.94ZM693.92,384.7h-.2a2,2,0,0,1-1.8-2.18l.09-1a2,2,0,0,1,4,.38l-.1,1A2,2,0,0,1,693.92,384.7ZM3.57,384a2,2,0,0,1-2-1.81l-.09-1a2,2,0,0,1,4-.36l.09,1A2,2,0,0,1,3.77,384Zm691.23-10.29h-.13a2,2,0,0,1-1.87-2.12l.06-1a2,2,0,1,1,4,.25l-.06,1A2,2,0,0,1,694.81,373.73ZM2.7,373.05a2,2,0,0,1-2-1.87l-.06-1a2,2,0,1,1,4-.25l.06,1a2,2,0,0,1-1.87,2.12Zm692.65-10.31h-.07a2,2,0,0,1-1.93-2.07l0-1a2,2,0,1,1,4,.12l0,1A2,2,0,0,1,695.35,362.74ZM2.18,362.06a2,2,0,0,1-2-1.94l0-1a2,2,0,0,1,1.94-2.05A2,2,0,0,1,4.15,359l0,1a2,2,0,0,1-1.93,2.06Zm693.37-10.32h0a2,2,0,0,1-2-2v-1.62a2,2,0,0,1,2-2h0a2,2,0,0,1,2,2v1.64A2,2,0,0,1,695.55,351.74ZM2,351.07a2,2,0,0,1-2-2v-1a2,2,0,0,1,2-2H2a2,2,0,0,1,2,2v1A2,2,0,0,1,2,351.07Zm693.4-11a2,2,0,0,1-2-1.94l0-1a2,2,0,0,1,4-.13l0,1a2,2,0,0,1-1.94,2.06Zm-693.23,0H2.1A2,2,0,0,1,.16,338l0-1a2,2,0,1,1,4,.13l0,1A2,2,0,0,1,2.16,340.07Zm692.73-10.94a2,2,0,0,1-2-1.88l-.06-1a2,2,0,1,1,4-.26l.06,1a2,2,0,0,1-1.87,2.12ZM2.67,329.08H2.54A2,2,0,0,1,.67,327l.06-1a2,2,0,0,1,4,.26l-.06,1A2,2,0,0,1,2.67,329.08ZM694,318.16a2,2,0,0,1-2-1.81l-.09-1a2,2,0,1,1,4-.38l.09,1a2,2,0,0,1-1.8,2.18ZM3.52,318.11H3.33a2,2,0,0,1-1.81-2.18l.1-1a2,2,0,0,1,4,.39l-.09,1A2,2,0,0,1,3.52,318.11Zm689.33-10.89a2,2,0,0,1-2-1.75l-.12-1a2,2,0,0,1,4-.51l.13,1a2,2,0,0,1-1.74,2.23ZM4.71,307.17l-.25,0a2,2,0,0,1-1.74-2.23l.13-1a2,2,0,1,1,4,.51l-.13,1A2,2,0,0,1,4.71,307.17Zm686.6-10.84a2,2,0,0,1-2-1.69l-.16-1a2,2,0,1,1,3.95-.63l.16,1a2,2,0,0,1-1.66,2.29Zm-685.05,0-.31,0A2,2,0,0,1,4.28,294l.16-1a2,2,0,0,1,3.95.64l-.16,1A2,2,0,0,1,6.25,296.28Zm683.17-10.79a2,2,0,0,1-2-1.63l-.19-1a2,2,0,0,1,3.93-.76l.19,1a2,2,0,0,1-1.59,2.34A2,2,0,0,1,689.42,285.49Zm-681.28,0a2,2,0,0,1-2-2.38l.19-1a2,2,0,0,1,3.93.76l-.19,1A2,2,0,0,1,8.14,285.44Zm679.05-10.72a2,2,0,0,1-1.95-1.56l-.22-1a2,2,0,0,1,3.9-.88l.22,1a2,2,0,0,1-2,2.44Zm-676.82,0a2,2,0,0,1-2-2.44l.22-1a2,2,0,0,1,3.9.89l-.22,1A2,2,0,0,1,10.37,274.67ZM684.62,264a2,2,0,0,1-1.94-1.5l-.25-1a2,2,0,1,1,3.87-1l.25,1a2,2,0,0,1-1.94,2.5ZM12.95,264a2,2,0,0,1-1.94-2.5l.25-1a2,2,0,1,1,3.87,1l-.25,1A2,2,0,0,1,12.95,264Zm668.76-10.56a2,2,0,0,1-1.92-1.44l-.28-1a2,2,0,0,1,3.84-1.13l.28,1a2,2,0,0,1-1.92,2.56Zm-665.85,0a2,2,0,0,1-1.92-2.56l.28-1A2,2,0,0,1,18.06,251l-.28,1A2,2,0,0,1,15.86,253.36Zm662.6-10.46a2,2,0,0,1-1.9-1.38l-.31-.94a2,2,0,0,1,3.8-1.25l.31,1a2,2,0,0,1-1.9,2.62Zm-659.34,0a2,2,0,0,1-1.9-2.62l.32-1a2,2,0,0,1,3.8,1.26l-.31.95A2,2,0,0,1,19.11,242.85ZM674.87,232.5a2,2,0,0,1-1.88-1.32l-.34-.93a2,2,0,0,1,3.76-1.38l.35.95a2,2,0,0,1-1.88,2.68Zm-652.16-.08a2,2,0,0,1-1.88-2.68l.35-.95a2,2,0,1,1,3.76,1.38l-.34.94A2,2,0,0,1,22.71,232.41ZM671,222.22A2,2,0,0,1,669.1,221l-.37-.92a2,2,0,0,1,3.71-1.49l.37.93a2,2,0,0,1-1.86,2.74ZM26.64,222.1a2,2,0,0,1-1.86-2.74l.38-.94a2,2,0,1,1,3.71,1.5l-.37.92A2,2,0,0,1,26.64,222.1Zm640.09-10a2,2,0,0,1-1.83-1.2l-.4-.91a2,2,0,1,1,3.66-1.61l.4.92a2,2,0,0,1-1.83,2.8ZM30.9,211.92a2,2,0,0,1-1.83-2.8l.41-.92a2,2,0,0,1,3.66,1.62l-.4.91A2,2,0,0,1,30.9,211.92Zm631.28-9.81a2,2,0,0,1-1.81-1.14l-.42-.89a2,2,0,0,1,3.61-1.73l.43.91a2,2,0,0,1-1.81,2.86Zm-626.7-.22a2,2,0,0,1-1.8-2.86l.44-.91a2,2,0,0,1,3.61,1.73l-.43.9A2,2,0,0,1,35.48,201.89Zm621.83-9.61a2,2,0,0,1-1.78-1.09l-.45-.88a2,2,0,1,1,3.55-1.84l.46.89a2,2,0,0,1-1.78,2.92ZM40.38,192a2,2,0,0,1-1.78-2.92l.47-.9A2,2,0,0,1,42.61,190l-.46.88A2,2,0,0,1,40.38,192Zm611.76-9.41a2,2,0,0,1-1.75-1l-.48-.87a2,2,0,1,1,3.49-2l.49.87a2,2,0,0,1-1.74,3Zm-606.55-.3a2,2,0,0,1-1.75-3l.49-.88a2,2,0,0,1,3.49,2l-.49.87A2,2,0,0,1,45.59,182.3Zm601.07-9.21a2,2,0,0,1-1.72-1l-.51-.85a2,2,0,0,1,3.43-2.06l.52.86a2,2,0,0,1-1.71,3ZM51.1,172.75a2,2,0,0,1-1.71-3l.52-.86a2,2,0,1,1,3.43,2.06l-.52.86A2,2,0,0,1,51.1,172.75Zm589.78-9a2,2,0,0,1-1.69-.92l-.54-.83a2,2,0,1,1,3.36-2.17l.54.84a2,2,0,0,1-1.68,3.08Zm-584-.36a2,2,0,0,1-1.68-3.08l.54-.85a2,2,0,1,1,3.36,2.17l-.54.84A2,2,0,0,1,56.91,163.39ZM634.8,154.6a2,2,0,0,1-1.65-.87l-.56-.82a2,2,0,0,1,3.29-2.28l.57.83a2,2,0,0,1-1.65,3.13ZM63,154.23a2,2,0,0,1-1.65-3.13l.57-.83a2,2,0,0,1,3.29,2.28l-.57.82A2,2,0,0,1,63,154.23Zm565.42-8.58a2,2,0,0,1-1.61-.81l-.59-.8a2,2,0,1,1,3.22-2.38l.59.81a2,2,0,0,1-1.61,3.19Zm-559-.39a2,2,0,0,1-1.61-3.19l.6-.81a2,2,0,1,1,3.21,2.38l-.59.8A2,2,0,0,1,69.41,145.26Zm552.38-8.37a2,2,0,0,1-1.58-.77l-.61-.78a2,2,0,0,1,3.14-2.48l.62.79a2,2,0,0,1-1.57,3.23ZM76.08,136.5a2,2,0,0,1-1.57-3.24l.62-.79A2,2,0,0,1,78.27,135l-.62.78A2,2,0,0,1,76.08,136.5Zm538.79-8.15a2,2,0,0,1-1.53-.71l-.64-.76a2,2,0,0,1,3.06-2.57l.64.77a2,2,0,0,1-1.53,3.29ZM83,128a2,2,0,0,1-1.53-3.29l.65-.77a2,2,0,1,1,3.06,2.58l-.64.76A2,2,0,0,1,83,128ZM607.68,120a2,2,0,0,1-1.49-.67l-.66-.74a2,2,0,0,1,3-2.67l.67.75a2,2,0,0,1-1.49,3.33Zm-517.45-.39a2,2,0,0,1-1.49-3.33l.67-.75a2,2,0,1,1,3,2.67l-.66.74A2,2,0,0,1,90.23,119.64Zm510-7.7a2,2,0,0,1-1.45-.62l-.68-.72a2,2,0,1,1,2.89-2.77l.7.73a2,2,0,0,1-1.45,3.38Zm-502.54-.38a2,2,0,0,1-1.45-3.38l.69-.73a2,2,0,1,1,2.89,2.77l-.69.72A2,2,0,0,1,97.69,111.55Zm494.83-7.47a2,2,0,0,1-1.41-.58l-.71-.7a2,2,0,1,1,2.8-2.85l.72.71a2,2,0,0,1-1.41,3.42Zm-487.12-.37a2,2,0,0,1-1.4-3.42l.72-.71a2,2,0,1,1,2.8,2.86l-.71.7A2,2,0,0,1,105.41,103.71Zm479.17-7.24a2,2,0,0,1-1.36-.53l-.73-.68a2,2,0,0,1,2.71-2.94l.74.68a2,2,0,0,1-1.36,3.47Zm-471.22-.36A2,2,0,0,1,112,92.64l.74-.68a2,2,0,1,1,2.71,2.94l-.73.67A2,2,0,0,1,113.36,96.11Zm463-7a2,2,0,0,1-1.31-.49l-.75-.65a2,2,0,0,1,2.62-3l.76.66a2,2,0,0,1-1.31,3.51Zm-454.84-.34a2,2,0,0,1-1.31-3.51l.76-.66a2,2,0,0,1,2.61,3l-.75.65A2,2,0,0,1,121.55,88.77ZM568,82a2,2,0,0,1-1.26-.45l-.77-.63a2,2,0,0,1,2.52-3.1l.78.63A2,2,0,0,1,568,82ZM130,81.7a2,2,0,0,1-1.26-3.55l.78-.63A2,2,0,0,1,132,80.62l-.77.63A2,2,0,0,1,130,81.7Zm429.38-6.51a2,2,0,0,1-1.21-.41l-.79-.6A2,2,0,0,1,559.76,71l.8.61a2,2,0,0,1-1.22,3.59Zm-420.74-.3a2,2,0,0,1-1.22-3.59l.8-.61a2,2,0,0,1,2.42,3.19l-.79.6A2,2,0,0,1,138.6,74.89ZM550.5,68.64a2,2,0,0,1-1.16-.37l-.81-.58a2,2,0,1,1,2.32-3.26l.82.58a2,2,0,0,1-1.17,3.63Zm-403.05-.27a2,2,0,0,1-1.16-3.63l.82-.58a2,2,0,1,1,2.32,3.26l-.81.58A2,2,0,0,1,147.44,68.36Zm394-6a2,2,0,0,1-1.11-.34l-.83-.55a2,2,0,1,1,2.22-3.33l.83.56a2,2,0,0,1-1.11,3.66Zm-385-.25a2,2,0,0,1-1.11-3.66l.83-.56a2,2,0,1,1,2.21,3.33l-.83.55A2,2,0,0,1,156.48,62.12Zm375.71-5.74a2,2,0,0,1-1.06-.3l-.85-.53a2,2,0,0,1,2.11-3.4l.85.53a2,2,0,0,1-1.06,3.7Zm-366.48-.22a2,2,0,0,1-1.06-3.7l.85-.53a2,2,0,0,1,2.11,3.4l-.84.52A2,2,0,0,1,165.71,56.17Zm357-5.47a2,2,0,0,1-1-.27l-.86-.5a2,2,0,1,1,2-3.46l.87.5a2,2,0,0,1-1,3.73Zm-347.63-.19a2,2,0,0,1-1-3.73l.87-.5a2,2,0,0,1,2,3.47l-.86.5A2,2,0,0,1,175.13,50.51Zm338-5.2a2,2,0,0,1-1-.24l-.87-.47a2,2,0,1,1,1.89-3.53l.89.48a2,2,0,0,1-1,3.76Zm-328.43-.16a2,2,0,0,1-.95-3.76l.89-.47a2,2,0,0,1,1.88,3.53l-.87.47A2,2,0,0,1,184.71,45.16Zm318.64-4.92a2,2,0,0,1-.89-.21l-.89-.44A2,2,0,0,1,503.34,36l.91.45a2,2,0,0,1-.9,3.79Zm-308.9-.12a2,2,0,0,1-.89-3.79l.9-.45a2,2,0,1,1,1.77,3.59l-.89.44A2,2,0,0,1,194.45,40.11Zm299-4.64a2,2,0,0,1-.84-.18l-.91-.41a2,2,0,0,1,1.66-3.64l.92.42a2,2,0,0,1-.84,3.82Zm-289.05-.09a2,2,0,0,1-.84-3.82l.91-.42a2,2,0,0,1,1.66,3.64l-.9.41A2,2,0,0,1,204.35,35.38Zm279-4.35a2,2,0,0,1-.78-.16l-.92-.39a2,2,0,0,1,1.54-3.69l.93.39a2,2,0,0,1-.78,3.84ZM214.39,31a2,2,0,0,1-.78-3.84l.93-.39a2,2,0,0,1,1.54,3.69l-.91.38A2,2,0,0,1,214.39,31Zm258.69-4.06a2,2,0,0,1-.72-.13l-.93-.36a2,2,0,1,1,1.42-3.74l.94.36a2,2,0,0,1-.72,3.87Zm-248.51,0a2,2,0,0,1-.72-3.87l.94-.36a2,2,0,0,1,1.42,3.74l-.93.35A2,2,0,0,1,224.56,26.88Zm238.15-3.76a2,2,0,0,1-.66-.11l-.94-.33a2,2,0,0,1,1.3-3.78l1,.33a2,2,0,0,1-.66,3.89Zm-227.82,0a2,2,0,0,1-.66-3.89l1-.33a2,2,0,0,1,1.3,3.78l-.94.32A2,2,0,0,1,234.89,23.1Zm217.33-3.44a2,2,0,0,1-.6-.09l-1-.3a2,2,0,1,1,1.18-3.82l1,.3a2,2,0,0,1-.6,3.91Zm-206.88,0a2,2,0,0,1-.59-3.91l1-.3a2,2,0,1,1,1.18,3.82l-1,.3A2,2,0,0,1,245.34,19.65Zm196.33-3.11a2,2,0,0,1-.53-.07l-1-.27a2,2,0,1,1,1.06-3.86l1,.27a2,2,0,0,1-.53,3.93Zm-185.77,0a2,2,0,0,1-.53-3.93l1-.27a2,2,0,0,1,1.05,3.86l-1,.26A2,2,0,0,1,255.9,16.54ZM431,13.78a2,2,0,0,1-.48-.06l-1-.23a2,2,0,0,1,.94-3.89l1,.24a2,2,0,0,1-.47,3.94Zm-164.48,0a2,2,0,0,1-.47-3.94l1-.24a2,2,0,0,1,.94,3.89l-1,.23A2,2,0,0,1,266.54,13.77Zm153.75-2.43a2,2,0,0,1-.42,0l-1-.2a2,2,0,0,1,.81-3.92l1,.21a2,2,0,0,1-.41,4Zm-143,0a2,2,0,0,1-.41-4l1-.21a2,2,0,1,1,.81,3.92l-1,.2A2,2,0,0,1,277.27,11.35ZM409.49,9.26a2,2,0,0,1-.35,0l-1-.17a2,2,0,0,1,.69-3.94l1,.17a2,2,0,0,1-.35,4Zm-121.42,0a2,2,0,0,1-.35-4l1-.17a2,2,0,0,1,.68,3.94l-1,.17A2,2,0,0,1,288.07,9.26ZM398.63,7.52l-.29,0-1-.14a2,2,0,1,1,.56-4l1,.14a2,2,0,0,1-.28,4Zm-99.69,0a2,2,0,0,1-.28-4l1-.14a2,2,0,0,1,.56,4l-1,.14Zm88.78-1.39h-.23l-1-.11a2,2,0,1,1,.43-4l1,.11a2,2,0,0,1-.22,4Zm-77.86,0a2,2,0,0,1-.22-4l1-.11a2,2,0,1,1,.43,4l-1,.11Zm66.91-1h-.16l-1-.08a2,2,0,1,1,.3-4l1,.08a2,2,0,0,1-.16,4Zm-56,0a2,2,0,0,1-.16-4l1-.08A2,2,0,0,1,322,5l-1,.08Zm45-.7h-.1l-1,0a2,2,0,1,1,.18-4l1,0a2,2,0,0,1-.1,4Zm-34,0a2,2,0,0,1-.1-4l1,0a2,2,0,1,1,.18,4l-1,0Zm23-.36h0l-1,0a2,2,0,0,1,0-4h0l1,0a2,2,0,0,1,0,4Zm-12,0a2,2,0,0,1,0-4l1,0a2,2,0,0,1,.05,4l-1,0Z"/><polygon class="cls-3" points="627.78 575.72 454.43 497.95 523.05 359.39 687.24 473.32 627.78 575.72"/><g class="cls-4"><line class="cls-17" x1="661.46" y1="346.04" x2="427.7" y2="407.2"/><rect class="cls-16" x="423.77" y="375.12" width="241.63" height="3" transform="matrix(0.97, -0.25, 0.25, 0.97, -77.62, 150.19)"/><line class="cls-17" x1="664.96" y1="359.44" x2="431.21" y2="420.59"/><rect class="cls-16" x="427.27" y="388.51" width="241.63" height="3" transform="matrix(0.97, -0.25, 0.25, 0.97, -80.9, 151.51)"/><line class="cls-17" x1="668.47" y1="372.83" x2="434.71" y2="433.99"/><rect class="cls-16" x="430.78" y="401.91" width="241.63" height="3" transform="matrix(0.97, -0.25, 0.25, 0.97, -84.18, 152.84)"/><line class="cls-17" x1="671.97" y1="386.22" x2="438.22" y2="447.38"/><rect class="cls-16" x="434.28" y="415.3" width="241.63" height="3" transform="matrix(0.97, -0.25, 0.25, 0.97, -87.46, 154.16)"/><line class="cls-17" x1="675.48" y1="399.62" x2="441.72" y2="460.77"/><rect class="cls-16" x="437.79" y="428.69" width="241.62" height="3" transform="matrix(0.97, -0.25, 0.25, 0.97, -90.74, 155.48)"/><line class="cls-17" x1="678.98" y1="413.01" x2="445.22" y2="474.17"/><rect class="cls-16" x="441.29" y="442.09" width="241.63" height="3" transform="matrix(0.97, -0.25, 0.25, 0.97, -94.01, 156.81)"/><line class="cls-17" x1="682.48" y1="426.4" x2="448.73" y2="487.56"/><rect class="cls-16" x="444.79" y="455.48" width="241.63" height="3" transform="matrix(0.97, -0.25, 0.25, 0.97, -97.29, 158.13)"/><line class="cls-17" x1="685.99" y1="439.79" x2="452.23" y2="500.95"/><rect class="cls-16" x="448.3" y="468.87" width="241.63" height="3" transform="matrix(0.97, -0.25, 0.25, 0.97, -100.57, 159.46)"/><line class="cls-17" x1="689.49" y1="453.19" x2="455.74" y2="514.35"/><rect class="cls-16" x="451.8" y="482.27" width="241.63" height="3" transform="matrix(0.97, -0.25, 0.25, 0.97, -103.85, 160.78)"/><line class="cls-17" x1="693" y1="466.58" x2="459.24" y2="527.74"/><rect class="cls-16" x="455.31" y="495.66" width="241.63" height="3" transform="matrix(0.97, -0.25, 0.25, 0.97, -107.12, 162.1)"/><line class="cls-17" x1="696.5" y1="479.97" x2="462.74" y2="541.13"/><rect class="cls-16" x="458.81" y="509.05" width="241.63" height="3" transform="matrix(0.97, -0.25, 0.25, 0.97, -110.4, 163.43)"/><line class="cls-17" x1="700.01" y1="493.37" x2="466.25" y2="554.53"/><rect class="cls-16" x="462.31" y="522.45" width="241.63" height="3" transform="matrix(0.97, -0.25, 0.25, 0.97, -113.68, 164.75)"/><line class="cls-17" x1="703.51" y1="506.76" x2="469.75" y2="567.92"/><rect class="cls-16" x="465.82" y="535.84" width="241.63" height="3" transform="matrix(0.97, -0.25, 0.25, 0.97, -116.96, 166.08)"/><line class="cls-17" x1="707.01" y1="520.15" x2="473.26" y2="581.31"/><rect class="cls-16" x="469.32" y="549.23" width="241.62" height="3" transform="matrix(0.97, -0.25, 0.25, 0.97, -120.23, 167.4)"/><line class="cls-17" x1="710.52" y1="533.55" x2="476.76" y2="594.71"/><rect class="cls-16" x="472.83" y="562.63" width="241.63" height="3" transform="matrix(0.97, -0.25, 0.25, 0.97, -123.51, 168.72)"/></g><circle class="cls-15" cx="651.05" cy="520.17" r="59.65"/><path class="cls-10" d="M651,581.33a61.15,61.15,0,1,1,61.15-61.15A61.22,61.22,0,0,1,651,581.33ZM651,462a58.15,58.15,0,1,0,58.15,58.15A58.22,58.22,0,0,0,651,462Z"/><polygon class="cls-15" points="651.05 540.73 651.05 561.34 676.35 525.8 651.05 540.73"/><path class="cls-18" d="M651,562.84a1.5,1.5,0,0,1-1.5-1.5V540.72a1.5,1.5,0,0,1,.74-1.29l25.3-14.93a1.5,1.5,0,0,1,2,2.16l-25.3,35.54A1.5,1.5,0,0,1,651,562.84Zm1.5-21.26v15.06l18.49-26Z"/><polygon class="cls-15" points="651.05 479.01 651.05 509.5 651.05 535.96 676.35 520.99 651.05 479.01"/><path class="cls-18" d="M651,537.46a1.5,1.5,0,0,1-1.5-1.5V479a1.5,1.5,0,0,1,2.78-.77l25.3,42a1.5,1.5,0,0,1-.52,2.07l-25.3,15A1.5,1.5,0,0,1,651,537.46Zm1.5-53.05v48.92l21.74-12.86Z"/><polygon class="cls-15" points="651.05 540.73 651.05 561.34 625.75 525.8 651.05 540.73"/><path class="cls-18" d="M651,562.84a1.5,1.5,0,0,1-1.22-.63l-25.3-35.54a1.5,1.5,0,0,1,2-2.16l25.3,14.93a1.5,1.5,0,0,1,.74,1.29v20.61a1.5,1.5,0,0,1-1.5,1.5Zm-20-32.16,18.49,26V541.58Z"/><polygon class="cls-15" points="625.75 520.99 651.05 535.96 651.05 509.5 651.05 479.01 625.75 520.99"/><path class="cls-18" d="M651,537.46a1.5,1.5,0,0,1-.76-.21l-25.3-15a1.5,1.5,0,0,1-.52-2.07l25.3-42a1.5,1.5,0,0,1,2.78.77V536a1.5,1.5,0,0,1-1.5,1.5Zm-23.24-17,21.74,12.86V484.41Z"/><polygon class="cls-17" points="459.88 150.07 234.49 150.07 121.79 345.27 234.49 540.46 459.88 540.46 572.58 345.27 459.88 150.07"/><path class="cls-18" d="M460.75,542H233.62l-.43-.75L120.06,345.27l113.56-196.7H460.75l.43.75L574.31,345.27Zm-225.4-3H459l111.83-193.7L459,151.57H235.35L123.52,345.27Z"/><path class="cls-10" d="M301.43,281.39l-3.35,15.78h.55c5.67,0,9.7-6.7,9.7-11.89,0-3.83-2.19-7.17-7.52-7.17-11.07,0-18.45,6.22-18.45,16.6a9.52,9.52,0,0,0,1,4.65c-4.71,0-7.31-1.71-7.31-6.63,0-9.09,12.57-17.77,24-17.77,10.8,0,15.51,5.33,15.51,10.93,0,4.17-2.67,8.88-7.38,11.68,3.62,1,4.71,3.62,4.71,6.83,0,5.6-3.35,13-3.35,17.29a4.66,4.66,0,0,0,2.67,4.51,25.71,25.71,0,0,1-6.76,1.16c-4.44,0-5.33-2.32-5.33-4.58,0-4.51,3.62-12.78,3.62-18,0-2.73-1-4.65-4.1-4.65a16.61,16.61,0,0,0-2.25.27l-5.47,25.76H282l9.29-43.46Z"/><path class="cls-10" d="M330.81,320.89c5.4,0,8.68-3,12.09-6.9h2.32c-3.9,6.29-9.7,12.64-18.79,12.64-6.42,0-10.66-3.14-10.66-10.86s4.44-24.33,18.45-24.33c6.08,0,7.52,3.14,7.52,6.56,0,7.86-7.52,13.94-15.72,14.42-.07,1-.14,1.91-.14,2.73C325.89,319.8,327.53,320.89,330.81,320.89Zm4-25.83c-3.48,0-6.83,7.31-8.2,14.08,5.26-.34,9.91-5.6,9.91-11.27C336.48,296.15,336.07,295.06,334.78,295.06Z"/><path class="cls-10" d="M360.33,278.39l-7.86,36.9a9.48,9.48,0,0,0-.27,2.19c0,1.91.89,2.53,2.8,2.53,2.66,0,5.12-2.6,6.15-6H364c-3.9,11.14-10.66,12.64-14.35,12.64-4.1,0-7.31-2.46-7.31-8.2a22.4,22.4,0,0,1,.55-4.44l7.31-34.23Z"/><path class="cls-10" d="M394,292.05,389,315.29a9.48,9.48,0,0,0-.27,2.19c0,1.91.89,2.94,2.8,2.94,2.67,0,4.51-3,5.53-6.42H400c-3.89,11.14-10,12.64-13.73,12.64s-6.29-2.19-6.7-6.29c-2.12,3.14-5.33,6.29-10.18,6.29-4.65,0-9.09-2.87-9.09-11,0-9.22,5.67-23.92,17.56-23.92,3.89,0,5.54,1.5,5.54,3.48v.48l.75-3.62Zm-23.57,22.62c0,5.26,2.19,5.33,3.42,5.33,2,0,4.85-2,5.67-6l3.28-15.44a2.65,2.65,0,0,0-2.8-2.6C374.13,295.95,370.38,308.25,370.38,314.67Z"/><path class="cls-10" d="M411.58,292.05l-4.92,23.23a7.3,7.3,0,0,0-.21,1.71c0,1.57.48,3,2,3,2.67,0,4.44-2.6,5.47-6l4.65-21.93h9.91l-8.34,39.63c-2,9.77-7.93,11.62-12.44,11.62-4.17,0-8.06-2.94-8.06-7.38,0-6.35,5.33-8.34,11.82-10.25l.68-3a10.56,10.56,0,0,1-8.34,4c-4.1,0-7.31-2.46-7.31-8.2a22.4,22.4,0,0,1,.55-4.44l4.65-21.93Zm-5.4,45.17c1.37,0,3.14-1.3,4-5.33l.82-4c-4.3,1.44-7.58,3.42-7.58,7.11A2.76,2.76,0,0,0,406.18,337.22Z"/><path class="cls-10" d="M303.55,396.6c-3.62,9.16-13.26,12.71-19.47,12.71-10.11,0-15-4.51-15-16.81S275.05,357,293,357c6.42,0,11.41,2.53,11.41,9.16,0,3.62-1.3,6.29-4.78,6.29a4.92,4.92,0,0,1-3.89-1.78c1.64-.82,3.14-3.69,3.14-6.29,0-2.19-1.09-4.17-4.17-4.17-7.52,0-14.21,18-14.21,31.91,0,6.29,1.64,10.66,8.2,10.66A16.57,16.57,0,0,0,302,395.92Z"/><path class="cls-10" d="M318.92,380c-2.67,0-4.78,4.17-5.19,6L309,408.22h-9.84l9.91-46.46,10.11-1.37-3.69,17.22a10.16,10.16,0,0,1,8-3.83c4.37,0,7.58,2.25,7.58,7.72s-3.28,13.8-3.28,17.63c0,1.71.68,2.87,2.73,2.87,3,0,4.24-2.46,5.74-6h2.87c-3.83,11.21-9.09,12.64-12.71,12.64-5.94,0-8.06-3.83-8.06-7.72,0-4.65,3.08-13.05,3.08-17.42C321.45,381.23,320.63,380,318.92,380Z"/><path class="cls-10" d="M369.08,374.05l-4.92,23.23a9.53,9.53,0,0,0-.27,2.19c0,1.91.89,2.94,2.8,2.94,2.67,0,4.51-3,5.54-6.42h2.87c-3.89,11.14-10,12.64-13.73,12.64s-6.29-2.19-6.7-6.29c-2.12,3.14-5.33,6.29-10.18,6.29-4.65,0-9.09-2.87-9.09-11,0-9.22,5.67-23.92,17.56-23.92,3.89,0,5.53,1.5,5.53,3.49v.48l.75-3.62ZM345.5,396.67c0,5.26,2.19,5.33,3.42,5.33,2,0,4.85-2,5.67-6l3.28-15.44a2.65,2.65,0,0,0-2.8-2.6C349.26,377.95,345.5,390.25,345.5,396.67Z"/><path class="cls-10" d="M386.71,374.05l-4.92,23.23a9.48,9.48,0,0,0-.27,2.19c0,1.91.89,2.53,2.8,2.53,2.67,0,5.13-2.6,6.15-6h2.87c-3.89,11.14-10.66,12.64-14.35,12.64-4.1,0-7.31-2.46-7.31-8.2a22.4,22.4,0,0,1,.55-4.44l4.65-21.93Zm-3.07-14.55A5.48,5.48,0,0,1,389.1,365a5.42,5.42,0,0,1-5.47,5.4,5.37,5.37,0,0,1-5.4-5.4A5.42,5.42,0,0,1,383.63,359.5Z"/><path class="cls-10" d="M407.68,380c-2.46,0-4.3,2.87-5.33,6.29l-4.65,21.93h-9.84l7.24-34.16H405l-.75,3.55a10.15,10.15,0,0,1,8-3.83c4.37,0,7.58,2.25,7.58,7.72s-3.28,13.8-3.28,17.63c0,1.71.68,2.87,2.73,2.87a4.2,4.2,0,0,0,2.25-.41c-.62,4.92-3.89,7-7.52,7-5.26,0-6.9-3.83-6.9-7.72,0-4.65,3.07-13.05,3.07-17.42C410.14,381.23,409.33,380,407.68,380Z"/><rect class="cls-10" x="459.78" y="285.17" width="114.28" height="2"/><rect class="cls-10" x="435.82" y="241.22" width="104.58" height="2" transform="translate(20.14 521.37) rotate(-57.21)"/><rect class="cls-10" x="544.24" y="189.66" width="2" height="105.11" transform="translate(-43.55 338.58) rotate(-33.25)"/><circle class="cls-18" cx="516.81" cy="198.53" r="11.54"/><path class="cls-10" d="M516.81,211.07a12.54,12.54,0,1,1,12.54-12.54A12.55,12.55,0,0,1,516.81,211.07Zm0-23.08a10.54,10.54,0,1,0,10.54,10.54A10.55,10.55,0,0,0,516.81,188Z"/><circle class="cls-19" cx="516.81" cy="255.07" r="20.2"/><path class="cls-10" d="M516.81,276.27a21.2,21.2,0,1,1,21.2-21.2A21.22,21.22,0,0,1,516.81,276.27Zm0-40.39a19.2,19.2,0,1,0,19.2,19.2A19.22,19.22,0,0,0,516.81,235.88Z"/><circle class="cls-18" cx="573.95" cy="286.43" r="11.54"/><path class="cls-10" d="M573.95,299a12.54,12.54,0,1,1,12.54-12.54A12.55,12.55,0,0,1,573.95,299Zm0-23.08a10.54,10.54,0,1,0,10.54,10.54A10.55,10.55,0,0,0,573.95,275.89Z"/><circle class="cls-18" cx="459.67" cy="286.43" r="11.54"/><path class="cls-10" d="M459.67,299a12.54,12.54,0,1,1,12.54-12.54A12.55,12.55,0,0,1,459.67,299Zm0-23.08a10.54,10.54,0,1,0,10.54,10.54A10.55,10.55,0,0,0,459.67,275.89Z"/><circle class="cls-18" cx="352.04" cy="150.62" r="20.2" transform="translate(-3.4 293.04) rotate(-45)"/><path class="cls-20" d="M352,171.81a21.19,21.19,0,1,1,15-6.2h0A21.13,21.13,0,0,1,352,171.81Zm0-40.37A19.19,19.19,0,1,0,365.61,137,19.13,19.13,0,0,0,352,131.44Z"/><path class="cls-20" d="M352.68,208.26a58.1,58.1,0,1,1,41.1-17h0A58,58,0,0,1,352.68,208.26Zm0-114.22a56.12,56.12,0,1,0,39.69,16.44A55.76,55.76,0,0,0,352.68,94Z"/><circle class="cls-18" cx="392.3" cy="191.17" r="11.54" transform="translate(-20.27 333.39) rotate(-45)"/><path class="cls-20" d="M392.3,203.71a12.54,12.54,0,1,1,8.87-3.67A12.46,12.46,0,0,1,392.3,203.71Zm0-23.08a10.54,10.54,0,1,0,7.45,3.09A10.47,10.47,0,0,0,392.3,180.63Z"/><circle class="cls-18" cx="311.49" cy="110.36" r="11.54" transform="translate(13.2 252.58) rotate(-45)"/><path class="cls-20" d="M311.49,122.9a12.54,12.54,0,1,1,8.87-3.67h0A12.46,12.46,0,0,1,311.49,122.9Zm0-23.08a10.54,10.54,0,1,0,7.45,18h0a10.54,10.54,0,0,0-7.45-18Z"/><path class="cls-10" d="M222.14,284.62H138.21V200.68h83.94Zm-81.94-2h79.94V202.68H140.21Z"/><circle class="cls-18" cx="180.05" cy="242.28" r="20.2"/><path class="cls-10" d="M180,263.48a21.2,21.2,0,1,1,21.2-21.2A21.22,21.22,0,0,1,180,263.48Zm0-40.39a19.2,19.2,0,1,0,19.2,19.2A19.22,19.22,0,0,0,180,223.09Z"/><circle class="cls-18" cx="220.45" cy="202.08" r="11.54" transform="translate(-78.32 215.07) rotate(-45)"/><path class="cls-10" d="M220.45,214.61a12.53,12.53,0,1,1,8.87-3.67A12.5,12.5,0,0,1,220.45,214.61Zm0-23.07a10.54,10.54,0,1,0,7.45,3.08A10.51,10.51,0,0,0,220.45,191.54Z"/><circle class="cls-18" cx="139.64" cy="282.88" r="11.54" transform="translate(-159.13 181.6) rotate(-45)"/><path class="cls-10" d="M139.64,295.42a12.53,12.53,0,1,1,8.87-3.67A12.5,12.5,0,0,1,139.64,295.42Zm0-23.07a10.54,10.54,0,1,0,7.45,3.08A10.51,10.51,0,0,0,139.64,272.35Z"/><circle class="cls-18" cx="139.64" cy="202.08" r="11.54" transform="translate(-101.99 157.93) rotate(-45)"/><path class="cls-10" d="M139.64,214.61a12.53,12.53,0,1,1,8.87-3.67A12.5,12.5,0,0,1,139.64,214.61Zm0-23.07a10.54,10.54,0,1,0,7.45,3.08A10.51,10.51,0,0,0,139.64,191.54Z"/><circle class="cls-18" cx="220.45" cy="282.88" r="11.54" transform="translate(-135.46 238.74) rotate(-45)"/><path class="cls-10" d="M220.45,295.42a12.53,12.53,0,1,1,8.87-3.67A12.5,12.5,0,0,1,220.45,295.42Zm0-23.07a10.54,10.54,0,1,0,7.45,3.08A10.51,10.51,0,0,0,220.45,272.35Z"/><circle class="cls-18" cx="353.13" cy="542.57" r="20.2"/><path class="cls-10" d="M353.13,563.77a21.2,21.2,0,1,1,21.2-21.2A21.22,21.22,0,0,1,353.13,563.77Zm0-40.39a19.2,19.2,0,1,0,19.2,19.2A19.22,19.22,0,0,0,353.13,523.38Z"/><path class="cls-10" d="M387.33,591.19H318L296.63,525.3l56.05-40.72,56.05,40.72Zm-67.83-2h66.38l20.51-63.13-53.7-39-53.7,39Z"/><circle class="cls-18" cx="353.84" cy="485.81" r="11.54" transform="translate(-239.88 392.49) rotate(-45)"/><path class="cls-10" d="M353.84,498.35a12.54,12.54,0,1,1,8.87-21.41h0a12.54,12.54,0,0,1-8.87,21.41Zm0-23.08a10.54,10.54,0,1,0,7.45,3.09h0A10.47,10.47,0,0,0,353.84,475.27Z"/><circle class="cls-18" cx="408.08" cy="526.2" r="11.54" transform="translate(-252.56 442.67) rotate(-45)"/><path class="cls-10" d="M408.08,538.74a12.54,12.54,0,1,1,8.87-3.67A12.46,12.46,0,0,1,408.08,538.74Zm0-23.08a10.54,10.54,0,1,0,7.45,3.09A10.47,10.47,0,0,0,408.08,515.66Z"/><circle class="cls-18" cx="316.91" cy="590.83" r="11.54" transform="translate(-324.96 397.14) rotate(-45)"/><path class="cls-10" d="M316.91,603.36a12.54,12.54,0,1,1,8.87-21.4h0a12.53,12.53,0,0,1-8.87,21.4Zm0-23.07a10.53,10.53,0,1,0,7.45,3.08A10.51,10.51,0,0,0,316.91,580.29Z"/><circle class="cls-18" cx="297.29" cy="526.2" r="11.54" transform="translate(-285.01 364.34) rotate(-45)"/><path class="cls-10" d="M297.29,538.74a12.53,12.53,0,1,1,8.87-3.67A12.5,12.5,0,0,1,297.29,538.74Zm0-23.07a10.54,10.54,0,1,0,7.45,3.08A10.51,10.51,0,0,0,297.29,515.67Z"/><circle class="cls-18" cx="386.15" cy="590.83" r="11.54" transform="translate(-304.68 446.1) rotate(-45)"/><path class="cls-10" d="M386.15,603.36a12.53,12.53,0,0,1-8.87-21.4h0a12.54,12.54,0,1,1,8.87,21.4Zm-7.45-20a10.54,10.54,0,1,0,14.91,0,10.47,10.47,0,0,0-14.91,0Z"/><polygon class="cls-11" points="744.16 441.51 590.49 441.51 581.77 458.3 572.54 441.51 561.87 441.51 561.87 358.37 744.16 358.37 744.16 441.51"/><polygon class="cls-15" points="741.03 438.39 587.37 438.39 578.65 455.18 569.41 438.39 558.74 438.39 558.74 355.25 741.03 355.25 741.03 438.39"/><path class="cls-12" d="M578.69,458.36l-10.16-18.47H557.24V353.75H742.53v86.14H588.28Zm-18.45-21.47H570.3l8.31,15.1,7.84-15.1H739.53V356.75H560.24Z"/><path class="cls-12" d="M601.24,370.37h-8.85v6.38h7.8v2.56h-7.8v7h8.85v2.56H589.65V367.81h11.59Z"/><path class="cls-12" d="M608.37,373.71h3.88v2.41h-3.91l-.06,8.13a3,3,0,0,0,.47,1.91,2.13,2.13,0,0,0,1.7.56,5.69,5.69,0,0,0,1.81-.27v2.32a6.33,6.33,0,0,1-2.26.33,4.48,4.48,0,0,1-3.27-1.05,4.4,4.4,0,0,1-1-3.31l.06-8.61h-2.83v-2.41h2.83l0-3.79h2.62Z"/><path class="cls-12" d="M618.07,375.61a3.7,3.7,0,0,1,1.58-1.61,5.17,5.17,0,0,1,2.57-.62,4.51,4.51,0,0,1,3.64,1.54,6.24,6.24,0,0,1,1.29,4.15v9.81h-2.62v-9.39a4,4,0,0,0-.78-2.65,2.68,2.68,0,0,0-2.17-.93,3,3,0,0,0-2.54,1.31,5.78,5.78,0,0,0-1,3.54v8.13h-2.59v-22h2.59Z"/><path class="cls-12" d="M642.6,375.4a8.07,8.07,0,0,1,1.87,5.69v1.23H632.94a4.79,4.79,0,0,0,1.43,3.28,4.57,4.57,0,0,0,3.27,1.2q3.16,0,4.09-2.47h2.59a6.86,6.86,0,0,1-2.45,3.6,7,7,0,0,1-4.29,1.28,6.92,6.92,0,0,1-5.27-2.17,9,9,0,0,1,0-11.41,6.82,6.82,0,0,1,5.3-2.26A6.52,6.52,0,0,1,642.6,375.4Zm-8.16,1.55A4.88,4.88,0,0,0,633,380h8.88a4,4,0,0,0-4.28-4.21A4.39,4.39,0,0,0,634.44,376.95Z"/><path class="cls-12" d="M655.37,376.15a4.34,4.34,0,0,0-3.07,1.11,4.77,4.77,0,0,0-1.38,3.58v8h-2.59V373.71h2.32l.18,2.65a4.05,4.05,0,0,1,1.64-2,5.17,5.17,0,0,1,2.91-.78Z"/><path class="cls-12" d="M669.19,375.4a8.07,8.07,0,0,1,1.87,5.69v1.23H659.52A4.79,4.79,0,0,0,661,385.6a4.57,4.57,0,0,0,3.27,1.2q3.16,0,4.09-2.47h2.59a6.86,6.86,0,0,1-2.45,3.6,7,7,0,0,1-4.29,1.28,6.92,6.92,0,0,1-5.27-2.17,9,9,0,0,1,0-11.41,6.82,6.82,0,0,1,5.3-2.26A6.52,6.52,0,0,1,669.19,375.4ZM661,376.95a4.88,4.88,0,0,0-1.48,3.06h8.88a4,4,0,0,0-4.27-4.21A4.39,4.39,0,0,0,661,376.95Z"/><path class="cls-12" d="M686,388.89h-2.32l-.15-2.08a4.21,4.21,0,0,1-4.18,2.41,4.43,4.43,0,0,1-3.61-1.52,6.33,6.33,0,0,1-1.26-4.17v-9.81h2.59v9.39a4.16,4.16,0,0,0,.75,2.69,2.61,2.61,0,0,0,2.14.92,3,3,0,0,0,2.5-1.23,5.29,5.29,0,0,0,1-3.34v-8.43H686Z"/><path class="cls-12" d="M709.93,374.92a6.29,6.29,0,0,1,1.28,4.15v9.81h-2.59v-9.39a4.07,4.07,0,0,0-.77-2.65,2.63,2.63,0,0,0-2.15-.93,3,3,0,0,0-2.5,1.25,5.54,5.54,0,0,0-1,3.39v8.34h-2.59v-9.39a4.07,4.07,0,0,0-.77-2.65,2.63,2.63,0,0,0-2.15-.93,3,3,0,0,0-2.53,1.31,5.85,5.85,0,0,0-1,3.54v8.13h-2.59V373.71h2.32l.15,2.08a4.42,4.42,0,0,1,1.67-1.75,4.83,4.83,0,0,1,2.54-.66,4.37,4.37,0,0,1,4.42,2.89,4.87,4.87,0,0,1,4.58-2.89A4.46,4.46,0,0,1,709.93,374.92Z"/><path class="cls-12" d="M585.54,405.49a5.25,5.25,0,0,1,1.78,4.17,4.87,4.87,0,0,1-2.26,4.31,5.13,5.13,0,0,1,3.55,5,5.85,5.85,0,0,1-.86,3.18,5.58,5.58,0,0,1-2.42,2.11,8.53,8.53,0,0,1-3.67.74h-6.8V403.94h5.87A7.07,7.07,0,0,1,585.54,405.49ZM577.59,413h3.25a4,4,0,0,0,2.69-.87,2.91,2.91,0,0,0,1-2.32,3,3,0,0,0-1-2.45,4.21,4.21,0,0,0-2.81-.86h-3.13Zm0,9.45h4.06a4.58,4.58,0,0,0,3-.93,3.19,3.19,0,0,0,1.11-2.59,3.06,3.06,0,0,0-1.1-2.5,4.68,4.68,0,0,0-3.06-.9h-4.06Z"/><path class="cls-12" d="M599.21,412.28a4.35,4.35,0,0,0-3.07,1.11,4.77,4.77,0,0,0-1.38,3.58v8h-2.59V409.84h2.32l.18,2.65a4.05,4.05,0,0,1,1.64-2,5.17,5.17,0,0,1,2.91-.78Z"/><path class="cls-12" d="M604.88,406.41a1.77,1.77,0,0,1-1.28.51,1.71,1.71,0,0,1-1.26-.51,1.68,1.68,0,0,1-.51-1.23,1.75,1.75,0,0,1,1.78-1.78,1.77,1.77,0,0,1,1.28.51,1.7,1.7,0,0,1,.53,1.26A1.66,1.66,0,0,1,604.88,406.41Zm0,18.6h-2.59V409.84h2.59Z"/><path class="cls-12" d="M623.08,425h-2.32l-.15-2.23a5.89,5.89,0,0,1-5.21,2.56,6.49,6.49,0,0,1-5.12-2.23,9.21,9.21,0,0,1,0-11.35,6.54,6.54,0,0,1,5.15-2.26,5.63,5.63,0,0,1,5.06,2.41V403h2.59Zm-10.72-11.5a5.56,5.56,0,0,0-1.35,3.91,5.85,5.85,0,0,0,1.31,4,4.59,4.59,0,0,0,6.79,0,5.4,5.4,0,0,0,1.42-3.85v-.15a5.52,5.52,0,0,0-1.42-3.94,4.5,4.5,0,0,0-6.74,0Z"/><path class="cls-12" d="M640.6,412.13H638a5.32,5.32,0,0,1,.75,2.83,5.12,5.12,0,0,1-1.6,3.85,5.72,5.72,0,0,1-4.18,1.54,6.57,6.57,0,0,1-3.28-.81,2,2,0,0,0-.6,1.5,1.34,1.34,0,0,0,.53,1.13,2.23,2.23,0,0,0,1.4.41h4a5.26,5.26,0,0,1,3.57,1.07,3.85,3.85,0,0,1,1.22,3.06,4.54,4.54,0,0,1-1.7,3.76,7.22,7.22,0,0,1-4.62,1.35,8.32,8.32,0,0,1-4.91-1.23,4,4,0,0,1-1.72-3.49,2.94,2.94,0,0,1,1.66-2.74,3.88,3.88,0,0,1-1.44-1.29,3.25,3.25,0,0,1-.57-1.87,3.59,3.59,0,0,1,1.57-3.1,5.58,5.58,0,0,1,.63-7,5.93,5.93,0,0,1,4.25-1.54,7.39,7.39,0,0,1,2.17.33h5.51ZM630,425.46a2,2,0,0,0-.59,1.54,2.07,2.07,0,0,0,1.07,1.88,5.8,5.8,0,0,0,3,.65,4.78,4.78,0,0,0,2.78-.69,2.32,2.32,0,0,0,1-2q0-2-2.74-2H631.6A2.52,2.52,0,0,0,630,425.46Zm.56-8.28a3.59,3.59,0,0,0,4.7,0,3,3,0,0,0,.9-2.23,3.05,3.05,0,0,0-.9-2.27,3.55,3.55,0,0,0-4.7,0,3,3,0,0,0-.9,2.27A3,3,0,0,0,630.55,417.18Z"/><path class="cls-12" d="M653.94,411.52a8.07,8.07,0,0,1,1.87,5.69v1.23H644.27a4.79,4.79,0,0,0,1.43,3.28,4.57,4.57,0,0,0,3.27,1.2q3.16,0,4.09-2.47h2.59a6.86,6.86,0,0,1-2.45,3.6,7,7,0,0,1-4.29,1.28,6.92,6.92,0,0,1-5.27-2.17,9,9,0,0,1,0-11.41,6.82,6.82,0,0,1,5.3-2.26A6.52,6.52,0,0,1,653.94,411.52Zm-8.16,1.55a4.88,4.88,0,0,0-1.47,3.06h8.88a4,4,0,0,0-4.28-4.21A4.39,4.39,0,0,0,645.78,413.08Z"/><path class="cls-12" d="M670.25,410.83a6.11,6.11,0,0,1,2.35,3.73H670a3.72,3.72,0,0,0-1.55-2,4.72,4.72,0,0,0-2.57-.69,4.31,4.31,0,0,0-3.4,1.57,6,6,0,0,0-1.32,4,5.84,5.84,0,0,0,1.35,3.91,4.34,4.34,0,0,0,3.43,1.57,4.6,4.6,0,0,0,2.56-.72,3.56,3.56,0,0,0,1.5-1.93h2.62a6.36,6.36,0,0,1-2.41,3.73,7.18,7.18,0,0,1-4.37,1.32,6.93,6.93,0,0,1-5.3-2.23,8,8,0,0,1-2.08-5.66,8.08,8.08,0,0,1,2.08-5.69,7,7,0,0,1,5.3-2.26A7.23,7.23,0,0,1,670.25,410.83Z"/><path class="cls-12" d="M678.68,411.74a3.7,3.7,0,0,1,1.58-1.61,5.17,5.17,0,0,1,2.57-.62,4.5,4.5,0,0,1,3.64,1.54,6.24,6.24,0,0,1,1.29,4.15V425h-2.62v-9.39a4,4,0,0,0-.78-2.65,2.68,2.68,0,0,0-2.17-.93,3,3,0,0,0-2.54,1.31,5.78,5.78,0,0,0-1,3.54V425h-2.59V403h2.59Z"/><path class="cls-12" d="M701.28,410.92a5.43,5.43,0,0,1,1.43,4V425h-2.35l-.12-2.08a4.5,4.5,0,0,1-1.84,1.76,5.76,5.76,0,0,1-2.77.65,4.45,4.45,0,0,1-3.22-1.16,4.12,4.12,0,0,1-1.2-3.12q0-3.58,4.25-4.4l4.64-.87V415q0-3.13-2.8-3.13a3.32,3.32,0,0,0-2.24.74,2.54,2.54,0,0,0-.86,2h-2.56a4.92,4.92,0,0,1,1.63-3.7,5.64,5.64,0,0,1,4-1.48A5.43,5.43,0,0,1,701.28,410.92Zm-5.34,8a3.8,3.8,0,0,0-1.58.74,1.95,1.95,0,0,0,.08,2.74,2.63,2.63,0,0,0,1.72.5,3.56,3.56,0,0,0,3.07-1.51,4.64,4.64,0,0,0,.87-2.8v-.57Z"/><path class="cls-12" d="M709.65,406.41a1.77,1.77,0,0,1-1.28.51,1.71,1.71,0,0,1-1.26-.51,1.68,1.68,0,0,1-.51-1.23,1.75,1.75,0,0,1,1.78-1.78,1.77,1.77,0,0,1,1.28.51,1.7,1.7,0,0,1,.53,1.26A1.66,1.66,0,0,1,709.65,406.41Zm0,18.6h-2.59V409.84h2.59Z"/><path class="cls-12" d="M724.71,411A6.24,6.24,0,0,1,726,415.2V425h-2.62v-9.39a4,4,0,0,0-.78-2.65,2.68,2.68,0,0,0-2.17-.93,3,3,0,0,0-2.54,1.31,5.78,5.78,0,0,0-1,3.54V425h-2.59V409.84h2.32l.15,2.08a4.44,4.44,0,0,1,4.27-2.41A4.5,4.5,0,0,1,724.71,411Z"/><polygon class="cls-11" points="497.34 138.8 363.19 138.8 354.47 155.59 345.24 138.8 334.57 138.8 334.57 96.25 497.34 96.25 497.34 138.8"/><polygon class="cls-15" points="494.21 134.9 360.07 134.9 351.35 151.68 342.11 134.9 331.44 134.9 331.44 92.35 494.21 92.35 494.21 134.9"/><path class="cls-21" d="M351.39,154.86,341.23,136.4H329.94V90.85H495.72V136.4H361ZM332.94,133.4H343l8.31,15.1,7.84-15.1H492.72V93.85H332.94Z"/><path class="cls-12" d="M363.38,104.38a6.73,6.73,0,0,1,0,9.3,7,7,0,0,1-5,1.75h-3.49v8.22h-2.74V102.57h6.23A6.86,6.86,0,0,1,363.38,104.38Zm-8.52,8.49h3.49a4.28,4.28,0,0,0,3-1,3.61,3.61,0,0,0,1.11-2.8,3.72,3.72,0,0,0-1.13-2.86,4.21,4.21,0,0,0-3-1.05h-3.49Z"/><path class="cls-12" d="M377.13,109.56a5.43,5.43,0,0,1,1.43,4v10.06h-2.35l-.12-2.08a4.52,4.52,0,0,1-1.84,1.76,5.76,5.76,0,0,1-2.77.65,4.45,4.45,0,0,1-3.22-1.16,4.12,4.12,0,0,1-1.2-3.12q0-3.58,4.24-4.4l4.64-.87v-.75q0-3.13-2.8-3.13a3.32,3.32,0,0,0-2.24.74,2.54,2.54,0,0,0-.86,2h-2.56a4.93,4.93,0,0,1,1.63-3.7,5.65,5.65,0,0,1,4-1.47A5.43,5.43,0,0,1,377.13,109.56Zm-5.34,8a3.8,3.8,0,0,0-1.58.74,1.69,1.69,0,0,0-.53,1.34,1.71,1.71,0,0,0,.6,1.4,2.63,2.63,0,0,0,1.72.5,3.56,3.56,0,0,0,3.07-1.51,4.64,4.64,0,0,0,.87-2.8v-.57Z"/><path class="cls-12" d="M390.06,110.91A4.34,4.34,0,0,0,387,112a4.77,4.77,0,0,0-1.38,3.58v8H383V108.47h2.32l.18,2.65a4,4,0,0,1,1.64-2,5.17,5.17,0,0,1,2.91-.78Z"/><path class="cls-12" d="M401.84,109.56a5.43,5.43,0,0,1,1.43,4v10.06h-2.35l-.12-2.08a4.52,4.52,0,0,1-1.84,1.76,5.76,5.76,0,0,1-2.77.65,4.45,4.45,0,0,1-3.22-1.16,4.12,4.12,0,0,1-1.2-3.12q0-3.58,4.24-4.4l4.64-.87v-.75q0-3.13-2.8-3.13a3.32,3.32,0,0,0-2.24.74,2.54,2.54,0,0,0-.86,2h-2.56a4.93,4.93,0,0,1,1.63-3.7,5.65,5.65,0,0,1,4-1.47A5.43,5.43,0,0,1,401.84,109.56Zm-5.34,8a3.8,3.8,0,0,0-1.58.74,1.69,1.69,0,0,0-.53,1.34,1.71,1.71,0,0,0,.6,1.4,2.63,2.63,0,0,0,1.72.5,3.56,3.56,0,0,0,3.07-1.51,4.64,4.64,0,0,0,.87-2.8v-.57Z"/><path class="cls-12" d="M418.08,109.47a6.11,6.11,0,0,1,2.35,3.73h-2.59a3.72,3.72,0,0,0-1.55-2,4.73,4.73,0,0,0-2.57-.69,4.31,4.31,0,0,0-3.4,1.57,6,6,0,0,0-1.32,4,5.84,5.84,0,0,0,1.35,3.91,4.34,4.34,0,0,0,3.43,1.57,4.6,4.6,0,0,0,2.56-.72,3.56,3.56,0,0,0,1.5-1.93h2.62a6.37,6.37,0,0,1-2.41,3.73,7.18,7.18,0,0,1-4.37,1.32,6.93,6.93,0,0,1-5.3-2.23,8,8,0,0,1-2.08-5.66,8.08,8.08,0,0,1,2.08-5.69,7,7,0,0,1,5.3-2.26A7.23,7.23,0,0,1,418.08,109.47Z"/><path class="cls-12" d="M426.51,110.37a3.7,3.7,0,0,1,1.58-1.61,5.17,5.17,0,0,1,2.57-.62,4.51,4.51,0,0,1,3.64,1.54,6.24,6.24,0,0,1,1.29,4.15v9.81H433v-9.39a4,4,0,0,0-.78-2.65,2.68,2.68,0,0,0-2.17-.93,3,3,0,0,0-2.54,1.31,5.78,5.78,0,0,0-1,3.54v8.13h-2.59v-22h2.59Z"/><path class="cls-12" d="M449.11,109.56a5.43,5.43,0,0,1,1.43,4v10.06h-2.35l-.12-2.08a4.51,4.51,0,0,1-1.84,1.76,5.76,5.76,0,0,1-2.77.65,4.45,4.45,0,0,1-3.22-1.16,4.12,4.12,0,0,1-1.2-3.12q0-3.58,4.25-4.4l4.64-.87v-.75q0-3.13-2.8-3.13a3.32,3.32,0,0,0-2.24.74,2.54,2.54,0,0,0-.86,2h-2.56a4.92,4.92,0,0,1,1.63-3.7,5.64,5.64,0,0,1,4-1.47A5.43,5.43,0,0,1,449.11,109.56Zm-5.34,8a3.79,3.79,0,0,0-1.58.74,1.95,1.95,0,0,0,.08,2.74,2.63,2.63,0,0,0,1.72.5,3.56,3.56,0,0,0,3.07-1.51,4.64,4.64,0,0,0,.87-2.8v-.57Z"/><path class="cls-12" d="M457.48,105a1.77,1.77,0,0,1-1.28.51,1.72,1.72,0,0,1-1.26-.51,1.68,1.68,0,0,1-.51-1.23A1.75,1.75,0,0,1,456.2,102a1.77,1.77,0,0,1,1.28.51,1.69,1.69,0,0,1,.53,1.26A1.66,1.66,0,0,1,457.48,105Zm0,18.6H454.9V108.47h2.59Z"/><path class="cls-12" d="M472.54,109.68a6.24,6.24,0,0,1,1.29,4.15v9.81h-2.62v-9.39a4,4,0,0,0-.78-2.65,2.68,2.68,0,0,0-2.17-.93,3,3,0,0,0-2.54,1.31,5.78,5.78,0,0,0-1,3.54v8.13h-2.59V108.47h2.32l.15,2.08a4.44,4.44,0,0,1,4.27-2.41A4.51,4.51,0,0,1,472.54,109.68Z"/><polygon class="cls-11" points="212.74 529.5 346.89 529.5 355.6 546.28 364.84 529.5 375.51 529.5 375.51 486.95 212.74 486.95 212.74 529.5"/><polygon class="cls-15" points="210.51 525.59 344.66 525.59 353.38 542.38 362.62 525.59 373.29 525.59 373.29 483.04 210.51 483.04 210.51 525.59"/><path class="cls-12" d="M353.34,545.56l-9.59-18.47H209V481.54H374.78v45.55H363.5ZM212,524.09H345.57l7.84,15.1,8.31-15.1h10.06V484.54H212Z"/><path class="cls-12" d="M241.11,495.07a6.73,6.73,0,0,1,0,9.3,7,7,0,0,1-5,1.75h-3.49v8.22h-2.74V493.27h6.23A6.86,6.86,0,0,1,241.11,495.07Zm-8.52,8.49h3.49a4.27,4.27,0,0,0,3-1,3.61,3.61,0,0,0,1.11-2.8,3.72,3.72,0,0,0-1.13-2.86,4.21,4.21,0,0,0-3-1.05h-3.49Z"/><path class="cls-12" d="M254.86,500.25a5.43,5.43,0,0,1,1.43,4v10.05h-2.35l-.12-2.08A4.51,4.51,0,0,1,252,514a5.77,5.77,0,0,1-2.77.65,4.45,4.45,0,0,1-3.22-1.16,4.12,4.12,0,0,1-1.2-3.12q0-3.58,4.24-4.4l4.64-.87v-.75q0-3.13-2.8-3.13a3.32,3.32,0,0,0-2.24.74,2.54,2.54,0,0,0-.86,2h-2.56a4.93,4.93,0,0,1,1.63-3.7,5.64,5.64,0,0,1,4-1.48A5.43,5.43,0,0,1,254.86,500.25Zm-5.34,8a3.81,3.81,0,0,0-1.58.74,1.69,1.69,0,0,0-.53,1.34,1.71,1.71,0,0,0,.6,1.4,2.63,2.63,0,0,0,1.72.5,3.56,3.56,0,0,0,3.07-1.5,4.64,4.64,0,0,0,.87-2.8v-.57Z"/><path class="cls-12" d="M267.79,501.6a4.35,4.35,0,0,0-3.07,1.11,4.77,4.77,0,0,0-1.38,3.58v8h-2.59V499.17h2.32l.18,2.65a4,4,0,0,1,1.64-2,5.17,5.17,0,0,1,2.91-.78Z"/><path class="cls-12" d="M279.57,500.25a5.43,5.43,0,0,1,1.43,4v10.05h-2.35l-.12-2.08A4.51,4.51,0,0,1,276.7,514a5.77,5.77,0,0,1-2.77.65,4.45,4.45,0,0,1-3.22-1.16,4.12,4.12,0,0,1-1.2-3.12q0-3.58,4.24-4.4l4.64-.87v-.75q0-3.13-2.8-3.13a3.32,3.32,0,0,0-2.24.74,2.54,2.54,0,0,0-.86,2h-2.56a4.93,4.93,0,0,1,1.63-3.7,5.64,5.64,0,0,1,4-1.48A5.43,5.43,0,0,1,279.57,500.25Zm-5.34,8a3.81,3.81,0,0,0-1.58.74,1.69,1.69,0,0,0-.53,1.34,1.71,1.71,0,0,0,.6,1.4,2.63,2.63,0,0,0,1.72.5,3.56,3.56,0,0,0,3.07-1.5,4.64,4.64,0,0,0,.87-2.8v-.57Z"/><path class="cls-12" d="M295.81,500.16a6.11,6.11,0,0,1,2.35,3.73h-2.59a3.72,3.72,0,0,0-1.55-2,4.73,4.73,0,0,0-2.57-.69,4.31,4.31,0,0,0-3.4,1.57,6,6,0,0,0-1.32,4,5.84,5.84,0,0,0,1.35,3.91,4.34,4.34,0,0,0,3.43,1.57,4.6,4.6,0,0,0,2.56-.72,3.56,3.56,0,0,0,1.5-1.93h2.62a6.36,6.36,0,0,1-2.41,3.73,7.18,7.18,0,0,1-4.37,1.32,6.93,6.93,0,0,1-5.3-2.23,8,8,0,0,1-2.08-5.66,8.08,8.08,0,0,1,2.08-5.69,7,7,0,0,1,5.3-2.26A7.23,7.23,0,0,1,295.81,500.16Z"/><path class="cls-12" d="M304.24,501.06a3.7,3.7,0,0,1,1.58-1.61,5.17,5.17,0,0,1,2.57-.62,4.5,4.5,0,0,1,3.64,1.54,6.24,6.24,0,0,1,1.29,4.15v9.81h-2.62v-9.39a4,4,0,0,0-.78-2.65,2.68,2.68,0,0,0-2.17-.93,3,3,0,0,0-2.54,1.31,5.78,5.78,0,0,0-1,3.54v8.13h-2.59v-22h2.59Z"/><path class="cls-12" d="M326.84,500.25a5.42,5.42,0,0,1,1.43,4v10.05h-2.35l-.12-2.08A4.5,4.5,0,0,1,324,514a5.76,5.76,0,0,1-2.77.65,4.45,4.45,0,0,1-3.22-1.16,4.12,4.12,0,0,1-1.2-3.12q0-3.58,4.25-4.4l4.64-.87v-.75q0-3.13-2.8-3.13a3.32,3.32,0,0,0-2.24.74,2.54,2.54,0,0,0-.86,2h-2.56a4.92,4.92,0,0,1,1.63-3.7,5.64,5.64,0,0,1,4-1.48A5.43,5.43,0,0,1,326.84,500.25Zm-5.34,8a3.81,3.81,0,0,0-1.58.74,1.95,1.95,0,0,0,.08,2.74,2.63,2.63,0,0,0,1.72.5,3.56,3.56,0,0,0,3.07-1.5,4.64,4.64,0,0,0,.87-2.8v-.57Z"/><path class="cls-12" d="M335.21,495.73a1.77,1.77,0,0,1-1.28.51,1.71,1.71,0,0,1-1.26-.51,1.68,1.68,0,0,1-.51-1.23,1.75,1.75,0,0,1,1.78-1.78,1.77,1.77,0,0,1,1.28.51,1.7,1.7,0,0,1,.53,1.26A1.66,1.66,0,0,1,335.21,495.73Zm0,18.6h-2.59V499.17h2.59Z"/><path class="cls-12" d="M350.27,500.37a6.24,6.24,0,0,1,1.29,4.15v9.81h-2.62v-9.39a4,4,0,0,0-.78-2.65,2.68,2.68,0,0,0-2.17-.93,3,3,0,0,0-2.54,1.31,5.78,5.78,0,0,0-1,3.54v8.13h-2.59V499.17h2.32l.15,2.08a4.44,4.44,0,0,1,4.27-2.41A4.5,4.5,0,0,1,350.27,500.37Z"/></g></g></svg>