<svg xmlns="http://www.w3.org/2000/svg" viewBox="0 0 78.03 78.03"><defs><style>.cls-1{fill:#4d4d4d;}</style></defs><title>Asset 15</title><g id="Layer_2" data-name="Layer 2"><g id="_005_how_does_it_work" data-name="005_how does it work"><path class="cls-1" d="M49.21,16.27h-18a8.15,8.15,0,0,1-8.07-7.1,2,2,0,1,1,4-.5,4.14,4.14,0,0,0,4.1,3.61h18a4.14,4.14,0,1,0,0-8.27h-18a4.18,4.18,0,0,0-.83.08,2,2,0,1,1-.8-3.92A8.15,8.15,0,0,1,31.25,0h18a8.14,8.14,0,1,1,0,16.27Z"/><path class="cls-1" d="M11.68,30.8a8.09,8.09,0,0,1-5-1.7,2,2,0,0,1,2.45-3.16,4.14,4.14,0,0,0,5.45-.35l12.7-12.7A4.14,4.14,0,1,0,21.47,7L8.76,19.75a4.24,4.24,0,0,0-.53.65,2,2,0,1,1-3.34-2.21,8.16,8.16,0,0,1,1-1.27l12.7-12.7a8.14,8.14,0,1,1,11.5,11.5l-12.7,12.7A8.13,8.13,0,0,1,11.68,30.8Z"/><path class="cls-1" d="M8.91,54.87a2,2,0,0,1-.25-4,4.14,4.14,0,0,0,3.61-4.1v-18a4.14,4.14,0,1,0-8.27,0v18a4.21,4.21,0,0,0,.08.84,2,2,0,1,1-3.92.8A8.2,8.2,0,0,1,0,46.78v-18a8.14,8.14,0,1,1,16.27,0v18a8.15,8.15,0,0,1-7.1,8.07Z"/><path class="cls-1" d="M19.29,73.47a2,2,0,0,1-1.1-.33,8.24,8.24,0,0,1-1.27-1L4.22,59.39a8.14,8.14,0,0,1,11.5-11.5l12.7,12.7a8.15,8.15,0,0,1,.68,10.73,2,2,0,0,1-3.16-2.45,4.14,4.14,0,0,0-.35-5.45l-12.7-12.7A4.14,4.14,0,0,0,7,56.56l12.7,12.7a4.25,4.25,0,0,0,.65.53,2,2,0,0,1-1.1,3.67Z"/><path class="cls-1" d="M46.78,78h-18a8.14,8.14,0,1,1,0-16.27h18a8.15,8.15,0,0,1,8.07,7.1,2,2,0,0,1-4,.5,4.14,4.14,0,0,0-4.1-3.61h-18a4.14,4.14,0,1,0,0,8.27h18a4.21,4.21,0,0,0,.84-.08,2,2,0,0,1,.8,3.92A8.2,8.2,0,0,1,46.78,78Z"/><path class="cls-1" d="M53.64,76.19a8.13,8.13,0,0,1-5.75-13.88l12.7-12.7a8.15,8.15,0,0,1,10.73-.68,2,2,0,0,1-2.45,3.16,4.14,4.14,0,0,0-5.45.35l-12.7,12.7A4.14,4.14,0,1,0,56.56,71l12.7-12.7a4.2,4.2,0,0,0,.53-.65,2,2,0,0,1,3.34,2.2,8.18,8.18,0,0,1-1,1.27l-12.7,12.7A8.11,8.11,0,0,1,53.64,76.19Z"/><path class="cls-1" d="M69.9,57.35a8.14,8.14,0,0,1-8.14-8.14v-18a8.15,8.15,0,0,1,7.1-8.07,2,2,0,0,1,.5,4,4.14,4.14,0,0,0-3.61,4.1v18a4.14,4.14,0,0,0,8.27,0v-18a4.2,4.2,0,0,0-.08-.84,2,2,0,1,1,3.92-.8A8.2,8.2,0,0,1,78,31.25v18A8.14,8.14,0,0,1,69.9,57.35Z"/><path class="cls-1" d="M68.06,32.52a8.11,8.11,0,0,1-5.75-2.38l-12.7-12.7a8.15,8.15,0,0,1-.68-10.73,2,2,0,1,1,3.16,2.45,4.14,4.14,0,0,0,.35,5.45l12.7,12.7A4.14,4.14,0,1,0,71,21.47L58.28,8.76a4.16,4.16,0,0,0-.65-.53,2,2,0,0,1,2.2-3.34,8.19,8.19,0,0,1,1.28,1l12.7,12.7a8.13,8.13,0,0,1-5.75,13.88Z"/></g></g></svg>