<svg xmlns="http://www.w3.org/2000/svg" viewBox="0 0 302.95 302.95"><defs><style>.cls-1{fill:#e6e6e6;}.cls-2{fill:#4d4d4d;}.cls-3{fill:#fff;}.cls-4{fill:#d64ca8;}</style></defs><title>Asset 20</title><g id="Layer_2" data-name="Layer 2"><g id="_006_the_token" data-name="006_the token"><circle class="cls-1" cx="152.27" cy="151.47" r="137.5"/><circle class="cls-2" cx="70.13" cy="127.45" r="7.57"/><path class="cls-2" d="M70.13,137.63A12.44,12.44,0,0,0,57.72,150c0,6.82,5.58,22.95,12.4,22.95s12.4-16,12.4-22.95A12.44,12.44,0,0,0,70.13,137.63Z"/><circle class="cls-2" cx="212.18" cy="73.44" r="7.57"/><path class="cls-2" d="M212.18,83.61A12.44,12.44,0,0,0,199.78,96c0,6.82,5.58,22.95,12.4,22.95s12.4-16,12.4-22.95A12.44,12.44,0,0,0,212.18,83.61Z"/><circle class="cls-2" cx="209.45" cy="180.55" r="7.57"/><path class="cls-2" d="M209.45,190.72a12.44,12.44,0,0,0-12.4,12.4c0,6.82,5.58,22.95,12.4,22.95s12.4-16,12.4-22.95A12.44,12.44,0,0,0,209.45,190.72Z"/><path class="cls-2" d="M95.59,151.48a2.87,2.87,0,0,1-.59-.06,2.22,2.22,0,0,1-.56-.17,3.16,3.16,0,0,1-.52-.27,3.33,3.33,0,0,1-.46-.38,3,3,0,0,1-.82-2.71,3.66,3.66,0,0,1,.17-.56,3.18,3.18,0,0,1,.28-.51,2.74,2.74,0,0,1,.37-.46,2.79,2.79,0,0,1,.46-.37,3.28,3.28,0,0,1,.52-.28,3.67,3.67,0,0,1,.56-.17,3,3,0,0,1,2.71.82,2.76,2.76,0,0,1,.37.46,3.15,3.15,0,0,1,.28.51,3.66,3.66,0,0,1,.17.56,3,3,0,0,1,.06.59,3,3,0,0,1-.06.59,3.66,3.66,0,0,1-.17.56,3.72,3.72,0,0,1-.28.52,2.72,2.72,0,0,1-.38.45,2.78,2.78,0,0,1-.45.38,3.2,3.2,0,0,1-.52.27,2.23,2.23,0,0,1-.56.17A2.85,2.85,0,0,1,95.59,151.48Z"/><path class="cls-2" d="M137.38,152.41a3,3,0,0,1-2.93-3.06h0a3,3,0,0,1,3.06-2.94h0a3,3,0,0,1,2.94,3.07h0a3,3,0,0,1-3,2.93h-.06Zm-14-.31a3,3,0,0,1-2.94-3.06h0a3,3,0,0,1,3.07-2.94h0a3,3,0,0,1,2.93,3.07h0a3,3,0,0,1-3,2.93h-.07Zm-14-.31a3,3,0,0,1-2.93-3.07h0a3,3,0,0,1,3.07-2.93h0a3,3,0,0,1,2.93,3.07h0a3,3,0,0,1-3,2.93h-.07Z"/><path class="cls-2" d="M151.4,152.73a3,3,0,0,1-3-3,2.87,2.87,0,0,1,.06-.59,3.6,3.6,0,0,1,.17-.56,3.28,3.28,0,0,1,.28-.52,2.76,2.76,0,0,1,.37-.46,3.12,3.12,0,0,1,4.25,0,3,3,0,0,1,0,4.25,3.2,3.2,0,0,1-1,.65,3.49,3.49,0,0,1-.56.17A2.88,2.88,0,0,1,151.4,152.73Z"/><path class="cls-2" d="M192.86,111.27a3,3,0,0,1-2.12-5.12,3.1,3.1,0,0,1,4.24,0,3,3,0,0,1,0,4.24,2.81,2.81,0,0,1-.46.37,3.2,3.2,0,0,1-.51.28,3.6,3.6,0,0,1-.56.17A3,3,0,0,1,192.86,111.27Z"/><path class="cls-2" d="M157.57,143.56a3,3,0,0,1,0-4.25h0a3,3,0,0,1,4.25,0h0a3,3,0,0,1,0,4.25h0a3,3,0,0,1-2.13.87h0A3,3,0,0,1,157.57,143.56Zm8.29-8.3a3,3,0,0,1,0-4.24h0a3,3,0,0,1,4.25,0h0a3,3,0,0,1,0,4.24h0a3,3,0,0,1-2.12.88h0A3,3,0,0,1,165.86,135.26Zm8.29-8.29a3,3,0,0,1,0-4.24h0a3,3,0,0,1,4.25,0h0a3,3,0,0,1,0,4.24h0a3,3,0,0,1-2.12.88h0A3,3,0,0,1,174.15,127Zm8.3-8.29a3,3,0,0,1,0-4.24h0a3,3,0,0,1,4.24,0h0a3,3,0,0,1,0,4.24h0a3,3,0,0,1-2.12.88h0A3,3,0,0,1,182.45,118.68Z"/><path class="cls-2" d="M151.4,152.73a3,3,0,0,1-3-3,2.87,2.87,0,0,1,.06-.59,3.6,3.6,0,0,1,.17-.56,3.28,3.28,0,0,1,.28-.52,2.76,2.76,0,0,1,.37-.46,3.12,3.12,0,0,1,4.25,0,3,3,0,0,1,0,4.25,3.2,3.2,0,0,1-1,.65,3.49,3.49,0,0,1-.56.17A2.88,2.88,0,0,1,151.4,152.73Z"/><path class="cls-2" d="M151.4,152.73a3,3,0,0,1-3-3,2.87,2.87,0,0,1,.06-.59,3.6,3.6,0,0,1,.17-.56,3.28,3.28,0,0,1,.28-.52,2.76,2.76,0,0,1,.37-.46,3.12,3.12,0,0,1,4.25,0,3,3,0,0,1,0,4.25,3.2,3.2,0,0,1-1,.65,3.49,3.49,0,0,1-.56.17A2.88,2.88,0,0,1,151.4,152.73Z"/><path class="cls-2" d="M180.27,181a3,3,0,0,1-.13-4.25h0a3,3,0,0,1,4.24-.13h0a3,3,0,0,1,.13,4.24h0a3,3,0,0,1-2.19,1h0A3,3,0,0,1,180.27,181ZM170,171.28a3,3,0,0,1-.13-4.24h0a3,3,0,0,1,4.24-.13h0a3,3,0,0,1,.13,4.24h0a3,3,0,0,1-2.18.94h0A3,3,0,0,1,170,171.28Zm-10.31-9.69a3,3,0,0,1-.13-4.23h0a3,3,0,0,1,4.25-.14h0a3,3,0,0,1,.13,4.24h0a3,3,0,0,1-2.19,1h0A3,3,0,0,1,159.65,161.59Z"/><path class="cls-2" d="M192.63,191.47a3,3,0,0,1-.59-.06,3.56,3.56,0,0,1-.56-.17A3.13,3.13,0,0,1,191,191a2.75,2.75,0,0,1-.46-.37,2.8,2.8,0,0,1-.37-.46,2.88,2.88,0,0,1-.28-.52,3.64,3.64,0,0,1-.17-.56,2.88,2.88,0,0,1,0-1.17,3.62,3.62,0,0,1,.17-.56,3.24,3.24,0,0,1,.28-.52,2.69,2.69,0,0,1,.37-.45,3.09,3.09,0,0,1,4.24,0,3,3,0,0,1,.88,2.12,3,3,0,0,1-3,3Z"/><circle class="cls-3" cx="152.79" cy="148.96" r="30.31"/><path class="cls-2" d="M145.84,155.75c.95-4.34,2.61-14.92,4.71-20.61.52-1.41,3.95-2.05,5.88-.45-1.43,5.24-2.77,13.14-2.77,13.14a5,5,0,0,0,1.94-.55,7.56,7.56,0,0,0,1.7-1.21,9.29,9.29,0,0,0,1.42-1.7,12.43,12.43,0,0,0,1.75-4.25,10.84,10.84,0,0,0,.24-2.22,7.64,7.64,0,0,0-.29-2.12,5,5,0,0,0-.89-1.75,4.12,4.12,0,0,0-1.56-1.19,5.48,5.48,0,0,0-2.28-.43,13.46,13.46,0,0,0-4.4.67A9,9,0,0,0,148,135a10.23,10.23,0,0,0-2.31,3.08,9.68,9.68,0,0,0-.85,4.13,6,6,0,0,0,.11,1.25,4.74,4.74,0,0,0,.22.77,2.59,2.59,0,0,0,.22.44.52.52,0,0,1,.11.28,10.62,10.62,0,0,1-2.21-.21,4.38,4.38,0,0,1-1.61-.66,2.9,2.9,0,0,1-1-1.2,4.45,4.45,0,0,1-.34-1.85,5.55,5.55,0,0,1,.69-2.64,10.34,10.34,0,0,1,1.91-2.46,18.45,18.45,0,0,1,9.29-5,14.69,14.69,0,0,1,3.4-.4,12.4,12.4,0,0,1,4.28.66,8.61,8.61,0,0,1,3,1.76,6.83,6.83,0,0,1,1.72,2.53,8.22,8.22,0,0,1,.55,3,10,10,0,0,1-.8,3.86,10.93,10.93,0,0,1-2.31,3.48,11.69,11.69,0,0,1-8.54,3.48h-.22s-2.19,9.91-3.23,13.32c-1,3.26-3.53,4.75-7.17,4.75C142.93,167.37,145.2,158.7,145.84,155.75Z"/><path class="cls-2" d="M183.13,170.27v-1.51a1.07,1.07,0,0,0-1.07-1.07h-.19a1.75,1.75,0,0,1-1.68-1.32,12,12,0,0,0-1.16-2.81,1.76,1.76,0,0,1,.26-2.12l.13-.13a1.07,1.07,0,0,0,0-1.52l-1.07-1.07a1.07,1.07,0,0,0-1.52,0l-.1.1a1.76,1.76,0,0,1-2.14.25,12,12,0,0,0-2.84-1.2,1.75,1.75,0,0,1-1.31-1.68v-.12a1.07,1.07,0,0,0-1.07-1.07h-1.51a1.07,1.07,0,0,0-1.07,1.07v.07a1.75,1.75,0,0,1-1.33,1.69,12,12,0,0,0-2.9,1.18,1.76,1.76,0,0,1-2.12-.26l0,0a1.07,1.07,0,0,0-1.52,0l-1.07,1.07a1.07,1.07,0,0,0,0,1.52h0a1.76,1.76,0,0,1,.25,2.14,12,12,0,0,0-1.22,2.92,1.75,1.75,0,0,1-1.68,1.32h0a1.07,1.07,0,0,0-1.07,1.07v1.51a1.07,1.07,0,0,0,1.07,1.07h0a1.75,1.75,0,0,1,1.68,1.32,12,12,0,0,0,1.22,2.92,1.76,1.76,0,0,1-.25,2.14h0a1.07,1.07,0,0,0,0,1.52l1.07,1.07a1.07,1.07,0,0,0,1.52,0l0,0a1.76,1.76,0,0,1,2.12-.26,12,12,0,0,0,2.9,1.18,1.75,1.75,0,0,1,1.33,1.69V183a1.07,1.07,0,0,0,1.07,1.07h1.51a1.07,1.07,0,0,0,1.07-1.07v-.12a1.75,1.75,0,0,1,1.31-1.68,12,12,0,0,0,2.84-1.2,1.76,1.76,0,0,1,2.14.25l.1.1a1.07,1.07,0,0,0,1.52,0l1.07-1.07a1.07,1.07,0,0,0,0-1.52l-.13-.13a1.76,1.76,0,0,1-.26-2.12,12,12,0,0,0,1.16-2.81,1.75,1.75,0,0,1,1.68-1.32h.19A1.07,1.07,0,0,0,183.13,170.27Zm-13.51,5.65a6.5,6.5,0,1,1,5.3-5.3A6.5,6.5,0,0,1,169.62,175.92Z"/><path class="cls-4" d="M151.47,302.95C68,302.95,0,235,0,151.47S68,0,151.47,0,302.95,68,302.95,151.47,235,302.95,151.47,302.95ZM151.47,3C69.61,3,3,69.61,3,151.47S69.61,299.95,151.47,299.95s148.47-66.61,148.47-148.47S233.34,3,151.47,3Z"/></g></g></svg>