<svg xmlns="http://www.w3.org/2000/svg" viewBox="0 0 22.42 22.43"><defs><style>.cls-1{fill:#d64ca8;}</style></defs><title>Asset 6</title><g id="Layer_2" data-name="Layer 2"><g id="Layer_1-2" data-name="Layer 1"><path class="cls-1" d="M11.21,22.43A11.21,11.21,0,1,1,22.42,11.21,11.22,11.22,0,0,1,11.21,22.43ZM11.21,1A10.21,10.21,0,1,0,21.42,11.21,10.22,10.22,0,0,0,11.21,1Z"/><path class="cls-1" d="M4.5,13.85A1.11,1.11,0,1,1,3.39,15,1.11,1.11,0,0,1,4.5,13.85ZM3.39,11.21A1.11,1.11,0,1,0,4.5,10.1,1.11,1.11,0,0,0,3.39,11.21Zm0-3.75A1.11,1.11,0,1,0,4.5,6.35,1.11,1.11,0,0,0,3.39,7.47Zm3.42,9.33a1.11,1.11,0,1,0,1.11-1.11A1.11,1.11,0,0,0,6.81,16.79Zm0-3.75a1.11,1.11,0,1,0,1.11-1.11A1.11,1.11,0,0,0,6.81,13Zm0-3.75A1.11,1.11,0,1,0,7.92,8.19,1.11,1.11,0,0,0,6.81,9.3Zm0-3.75A1.11,1.11,0,1,0,7.92,4.44,1.11,1.11,0,0,0,6.81,5.55ZM10.1,18.71a1.11,1.11,0,1,0,1.11-1.11A1.11,1.11,0,0,0,10.1,18.71Zm0-3.75a1.11,1.11,0,1,0,1.11-1.11A1.11,1.11,0,0,0,10.1,15Zm0-3.75a1.11,1.11,0,1,0,1.11-1.11A1.11,1.11,0,0,0,10.1,11.21Zm0-3.75a1.11,1.11,0,1,0,1.11-1.11A1.11,1.11,0,0,0,10.1,7.47Zm0-3.75A1.11,1.11,0,1,0,11.21,2.6,1.11,1.11,0,0,0,10.1,3.72Zm3.42,13.08a1.11,1.11,0,1,0,1.11-1.11A1.11,1.11,0,0,0,13.52,16.79Zm0-3.75a1.11,1.11,0,1,0,1.11-1.11A1.11,1.11,0,0,0,13.52,13Zm0-3.75a1.11,1.11,0,1,0,1.11-1.11A1.11,1.11,0,0,0,13.52,9.3Zm0-3.75a1.11,1.11,0,1,0,1.11-1.11A1.11,1.11,0,0,0,13.52,5.55ZM16.81,15a1.11,1.11,0,1,0,1.11-1.11A1.11,1.11,0,0,0,16.81,15Zm0-3.75a1.11,1.11,0,1,0,1.11-1.11A1.11,1.11,0,0,0,16.81,11.21Zm0-3.75a1.11,1.11,0,1,0,1.11-1.11A1.11,1.11,0,0,0,16.81,7.47Z"/></g></g></svg>