<svg xmlns="http://www.w3.org/2000/svg" viewBox="0 0 302.95 302.95"><defs><style>.cls-1{fill:#e6e6e6;}.cls-2{fill:#d64ca8;}.cls-3{fill:#999;}.cls-4{fill:#fff;}.cls-5{fill:#4d4d4d;}</style></defs><title>Asset 22</title><g id="Layer_2" data-name="Layer 2"><g id="_006_the_token" data-name="006_the token"><circle class="cls-1" cx="151.47" cy="151.47" r="137.5"/><path class="cls-2" d="M151.47,302.95C68,302.95,0,235,0,151.47S68,0,151.47,0,302.95,68,302.95,151.47,235,302.95,151.47,302.95ZM151.47,3C69.61,3,3,69.61,3,151.47S69.61,299.95,151.47,299.95s148.47-66.61,148.47-148.47S233.34,3,151.47,3Z"/><polygon class="cls-3" points="185.3 94.95 120.19 94.95 87.64 151.34 120.19 207.72 185.3 207.72 217.86 151.34 185.3 94.95"/><line class="cls-4" x1="121.71" y1="67.2" x2="93.41" y2="111.12"/><rect class="cls-5" x="81.43" y="87.66" width="52.25" height="3" transform="translate(-25.65 131.27) rotate(-57.2)"/><line class="cls-4" x1="150.51" y1="111.12" x2="93.41" y2="111.12"/><rect class="cls-5" x="93.41" y="109.62" width="57.1" height="3"/><line class="cls-4" x1="121.71" y1="67.2" x2="150.51" y2="111.12"/><rect class="cls-5" x="134.61" y="62.9" width="3" height="52.52" transform="translate(-26.6 89.22) rotate(-33.25)"/><circle class="cls-4" cx="121.9" cy="67.33" r="5.77"/><path class="cls-5" d="M121.9,74.6a7.27,7.27,0,1,1,7.27-7.27A7.27,7.27,0,0,1,121.9,74.6Zm0-11.53a4.27,4.27,0,1,0,4.27,4.27A4.27,4.27,0,0,0,121.9,63.07Z"/><circle class="cls-4" cx="121.9" cy="95.59" r="10.09"/><path class="cls-5" d="M121.9,107.18a11.59,11.59,0,1,1,11.59-11.59A11.6,11.6,0,0,1,121.9,107.18Zm0-20.18a8.59,8.59,0,1,0,8.59,8.59A8.6,8.6,0,0,0,121.9,87Z"/><circle class="cls-4" cx="150.45" cy="111.25" r="5.77"/><path class="cls-5" d="M150.45,118.52a7.27,7.27,0,1,1,7.27-7.27A7.27,7.27,0,0,1,150.45,118.52Zm0-11.53a4.27,4.27,0,1,0,4.27,4.27A4.27,4.27,0,0,0,150.45,107Z"/><circle class="cls-4" cx="93.35" cy="111.25" r="5.77"/><path class="cls-5" d="M93.35,118.52a7.27,7.27,0,1,1,7.27-7.27A7.27,7.27,0,0,1,93.35,118.52Zm0-11.53a4.27,4.27,0,1,0,4.27,4.27A4.27,4.27,0,0,0,93.35,107Z"/><circle class="cls-4" cx="183.7" cy="207.18" r="10.65"/><path class="cls-5" d="M183.7,219.33a12.15,12.15,0,1,1,12.15-12.15A12.16,12.16,0,0,1,183.7,219.33Zm0-21.3a9.15,9.15,0,1,0,9.15,9.15A9.16,9.16,0,0,0,183.7,198Z"/><path class="cls-5" d="M202.44,233.79h-38l-11.73-36.1,30.7-22.31,30.7,22.31Zm-35.77-3h33.59l10.38-31.95L183.47,179.1l-27.18,19.75Z"/><circle class="cls-4" cx="184.07" cy="177.25" r="6.09" transform="translate(-71.42 182.07) rotate(-45)"/><path class="cls-5" d="M184.07,184.83a7.59,7.59,0,1,1,5.36-13h0a7.59,7.59,0,0,1-5.36,13Zm0-12.17a4.58,4.58,0,1,0,3.24,1.34A4.57,4.57,0,0,0,184.07,172.66Z"/><circle class="cls-4" cx="212.68" cy="198.55" r="6.09" transform="translate(-78.1 208.54) rotate(-45)"/><path class="cls-5" d="M212.68,206.13a7.59,7.59,0,1,1,5.36-13h0a7.59,7.59,0,0,1-5.36,13Zm0-12.17a4.59,4.59,0,1,0,3.24,1.34A4.56,4.56,0,0,0,212.68,194Z"/><circle class="cls-4" cx="164.6" cy="232.63" r="6.09" transform="translate(-116.28 184.52) rotate(-45)"/><path class="cls-5" d="M164.6,240.22a7.59,7.59,0,1,1,5.36-13h0a7.59,7.59,0,0,1-5.36,13Zm0-12.17a4.58,4.58,0,1,0,3.24,1.34A4.57,4.57,0,0,0,164.6,228Z"/><circle class="cls-4" cx="154.25" cy="198.55" r="6.09" transform="translate(-95.21 167.23) rotate(-45)"/><path class="cls-5" d="M154.25,206.13a7.59,7.59,0,0,1-5.36-13h0a7.59,7.59,0,1,1,5.36,13Zm0-12.17A4.56,4.56,0,0,0,151,195.3h0a4.59,4.59,0,1,0,3.24-1.34Z"/><circle class="cls-4" cx="201.12" cy="232.63" r="6.09" transform="translate(-105.59 210.35) rotate(-45)"/><path class="cls-5" d="M201.12,240.21a7.58,7.58,0,0,1-5.36-12.95h0a7.59,7.59,0,1,1,5.36,12.95Zm-3.24-10.83a4.59,4.59,0,1,0,6.49,0,4.59,4.59,0,0,0-6.49,0Z"/><circle class="cls-5" cx="183.47" cy="162.12" r="4.86"/><circle class="cls-5" cx="151.6" cy="175.32" r="4.86" transform="translate(-79.56 158.55) rotate(-45)"/><circle class="cls-5" cx="138.4" cy="207.18" r="4.86"/><circle class="cls-5" cx="151.6" cy="239.05" r="4.86" transform="translate(-124.63 177.21) rotate(-45)"/><circle class="cls-5" cx="183.47" cy="252.25" r="4.86"/><circle class="cls-5" cx="215.33" cy="239.05" r="4.86" transform="translate(-105.96 222.28) rotate(-45)"/><circle class="cls-5" cx="228.53" cy="207.18" r="4.86"/><circle class="cls-5" cx="215.33" cy="175.32" r="4.86" transform="translate(-60.9 203.61) rotate(-45)"/><circle class="cls-5" cx="121.9" cy="51.55" r="4.75"/><circle class="cls-5" cx="77.87" cy="95.59" r="4.75"/><circle class="cls-5" cx="121.9" cy="139.62" r="4.75"/><circle class="cls-5" cx="165.94" cy="95.59" r="4.75"/></g></g></svg>