<svg xmlns="http://www.w3.org/2000/svg" viewBox="0 0 302.95 302.95"><defs><style>.cls-1{fill:#e6e6e6;}.cls-2{fill:#4d4d4d;}.cls-3{fill:#fff;}.cls-4{fill:#d64ca8;}</style></defs><title>Asset 21</title><g id="Layer_2" data-name="Layer 2"><g id="_006_the_token" data-name="006_the token"><circle class="cls-1" cx="152.3" cy="151.47" r="137.5"/><circle class="cls-2" cx="202.3" cy="134.17" r="5.61"/><circle class="cls-2" cx="165.48" cy="149.42" r="5.61" transform="translate(-57.19 160.78) rotate(-45)"/><circle class="cls-2" cx="126.18" cy="188.62" r="5.61"/><circle class="cls-2" cx="165.48" cy="223.07" r="5.61" transform="translate(-109.26 182.35) rotate(-45)"/><circle class="cls-2" cx="202.3" cy="238.32" r="5.61"/><circle class="cls-2" cx="239.12" cy="223.07" r="5.61" transform="translate(-87.69 234.42) rotate(-45)"/><circle class="cls-2" cx="254.38" cy="186.25" r="5.61"/><circle class="cls-2" cx="239.12" cy="149.42" r="5.61" transform="translate(-35.62 212.85) rotate(-45)"/><path class="cls-3" d="M103.12,203.86l-14.2-2.76.17-1.67L108,203a4.5,4.5,0,0,0,5.27-2.27h0a4.5,4.5,0,0,0-3-6.42l-27-5.51c-3.42-1.67-21.14,5.23-27.39,7.75a3.41,3.41,0,0,0-2.16,3.21v10.71a3.44,3.44,0,0,0,4.64,3.24l12.21-4.43,19.68,6a14.08,14.08,0,0,0,8.13,1.61l40-10.92a3.58,3.58,0,0,0,2.65-3.42h0a3.54,3.54,0,0,0-4.47-3.42l-24.32,5.48Z"/><path class="cls-2" d="M96.86,218.53a15.7,15.7,0,0,1-7.22-1.79l-19.07-5.85-11.74,4.26a4.94,4.94,0,0,1-6.65-4.66V199.78a4.92,4.92,0,0,1,3.11-4.61c23.08-9.28,27.16-8.35,28.42-7.78l26.83,5.48a6,6,0,0,1,4.07,8.57,6.24,6.24,0,0,1-1,1.36l22.5-5.07a4.9,4.9,0,0,1,4.29.85,5,5,0,0,1,2,4,5.07,5.07,0,0,1-3.76,4.87l-40.18,11A14.62,14.62,0,0,1,96.86,218.53ZM70.5,207.72,90.91,214a12.55,12.55,0,0,0,7.15,1.45l39.83-10.89a2.07,2.07,0,0,0,1.55-2,2,2,0,0,0-.82-1.64,2,2,0,0,0-1.74-.34l-24.63,5.55-9.42-.84-15.55-3,.49-4.66,20.67,3.94a3,3,0,0,0,3.5-1.53,3,3,0,0,0-2-4.26l-27.17-5.55-.17-.08c-1.14-.56-7.93.45-26.17,7.79a1.91,1.91,0,0,0-1.22,1.82v10.71a1.94,1.94,0,0,0,2.62,1.84Z"/><circle class="cls-2" cx="202.13" cy="160.29" r="10.35"/><path class="cls-2" d="M202.13,174.2a17,17,0,0,0-17,17c0,9.33,7.63,31.38,17,31.38s17-21.88,17-31.38A17,17,0,0,0,202.13,174.2Z"/><path class="cls-3" d="M210,189.27a29,29,0,0,0-4.13.17c.46-1.86,1.07-4.44,1.29-5.64.35-1.9-2.36-2.58-3-1.09s-2.36,6.53-5.68,7.45a2.27,2.27,0,0,0-.33.13l0,10.16a67.14,67.14,0,0,0,10.27,1.35c1.9,0,3.19-.33,3.39-2.14.26-2.43.57-5.49.7-7.28C212.75,190.12,212.06,189.4,210,189.27Z"/><path class="cls-3" d="M195.73,189.53H193a1.08,1.08,0,0,0-1.09,1.09v9.55a1.08,1.08,0,0,0,1.09,1.09h2.78a1.08,1.08,0,0,0,1.09-1.09v-9.55A1.1,1.1,0,0,0,195.73,189.53Z"/><circle class="cls-2" cx="63.97" cy="104.31" r="5.61"/><circle class="cls-2" cx="146.49" cy="104.31" r="5.61"/><circle class="cls-2" cx="105.23" cy="77.99" r="10.5"/><path class="cls-2" d="M105.23,92.09A17.26,17.26,0,0,0,88,109.3c0,9.46,7.74,31.83,17.21,31.83s17.21-22.2,17.21-31.83A17.26,17.26,0,0,0,105.23,92.09Z"/><path class="cls-3" d="M97.76,117.52a31.36,31.36,0,0,0,4.46-.19c-.5,2-1.16,4.79-1.39,6.09-.38,2.05,2.55,2.78,3.19,1.18s2.55-7.06,6.14-8a2.46,2.46,0,0,0,.35-.14l0-11A72.51,72.51,0,0,0,99.44,104c-2.05,0-3.45.35-3.66,2.31-.28,2.62-.61,5.92-.76,7.86C94.83,116.6,95.59,117.38,97.76,117.52Z"/><path class="cls-3" d="M113.22,117.24h3a1.17,1.17,0,0,0,1.18-1.18V105.74a1.17,1.17,0,0,0-1.18-1.18h-3a1.17,1.17,0,0,0-1.18,1.18v10.31A1.18,1.18,0,0,0,113.22,117.24Z"/><path class="cls-3" d="M166.16,62.35l-21.73-6.92a3.08,3.08,0,0,0-3.66,1.5h0a3.08,3.08,0,0,0,1.53,4.26l11.12,4.7a.51.51,0,0,1-.17,1l-7,.36a2,2,0,0,0-1,.35L135.87,74a3.34,3.34,0,0,0-.51,5.09h0a3.34,3.34,0,0,0,4.13.52l8.16-5a2,2,0,0,1,1-.29l12.23-.48-11.27,1.3a3.86,3.86,0,0,0-3.22,2.62l-4,12a2.89,2.89,0,0,0,2.26,3.76h0A2.89,2.89,0,0,0,147.69,92l3.68-7.19a3.86,3.86,0,0,1,3.54-2.1l9.25.25a2.27,2.27,0,0,1,1,.26l4,2.11a2.27,2.27,0,0,1,1.19,2.43L169.1,94.7a2.27,2.27,0,0,1-.91,1.43l-7.85,5.66a3.66,3.66,0,0,0-.67,5.33h0a3.66,3.66,0,0,0,4.35,1l7.93-3.67a4.86,4.86,0,0,0,1.25-.83L188.28,89.7a4.86,4.86,0,0,1,1.57-1l6.23-2.35a5.24,5.24,0,0,0,3.26-6.06l-2.6-11.47a5.24,5.24,0,0,0-4.68-4.06l-23.21-1.91A12.11,12.11,0,0,1,166.16,62.35Z"/><path class="cls-2" d="M162.49,109.92a5.16,5.16,0,0,1-3-9.35l7.85-5.66a.77.77,0,0,0,.31-.49l1.28-6.95a.77.77,0,0,0-.4-.83l-4-2.11a.79.79,0,0,0-.33-.09l-9.25-.25a2.36,2.36,0,0,0-2.17,1.29L149,92.69A4.39,4.39,0,0,1,141,89.3l3.68-11-4.35,2.65A4.84,4.84,0,0,1,135,72.79l9.39-6.43a3.47,3.47,0,0,1,1.79-.61l2.68-.14-7.17-3A4.58,4.58,0,0,1,144.89,54l21.73,6.92a10.63,10.63,0,0,0,2.35.46l23.22,1.91a6.71,6.71,0,0,1,6,5.23L200.81,80a6.76,6.76,0,0,1-4.19,7.79l-6.23,2.35a3.32,3.32,0,0,0-1.09.67l-15.08,13.88a6.32,6.32,0,0,1-1.63,1.09l-7.93,3.67A5.15,5.15,0,0,1,162.49,109.92Zm-7.68-28.72H155l9.25.25a3.77,3.77,0,0,1,1.64.42l4,2.11a3.76,3.76,0,0,1,2,4L170.57,95a3.76,3.76,0,0,1-1.51,2.38L161.22,103a2.16,2.16,0,0,0-.39,3.15,2.17,2.17,0,0,0,2.57.57l7.93-3.67a3.34,3.34,0,0,0,.86-.57l15.08-13.88a6.33,6.33,0,0,1,2.06-1.27L195.55,85a3.75,3.75,0,0,0,2.33-4.32l-2.6-11.47a3.72,3.72,0,0,0-3.34-2.9l-23.21-1.91a13.63,13.63,0,0,1-3-.6h0L144,56.85a1.58,1.58,0,0,0-1.88.77,1.58,1.58,0,0,0,.78,2.19L154,64.51a2,2,0,0,1-.68,3.87l-7,.36a.48.48,0,0,0-.25.08l-9.39,6.43a1.84,1.84,0,0,0,2,3.09l8.16-5a3.5,3.5,0,0,1,1.68-.51l12.24-.48.23,3-11.27,1.3a2.37,2.37,0,0,0-2,1.6l-4,12a1.39,1.39,0,0,0,1.09,1.81,1.39,1.39,0,0,0,1.47-.74L150,84.13A5.39,5.39,0,0,1,154.81,81.21Z"/><path class="cls-4" d="M151.47,302.95C68,302.95,0,235,0,151.47S68,0,151.47,0,302.95,68,302.95,151.47,235,302.95,151.47,302.95ZM151.47,3C69.61,3,3,69.61,3,151.47S69.61,299.95,151.47,299.95s148.47-66.61,148.47-148.47S233.34,3,151.47,3Z"/></g></g></svg>