<svg xmlns="http://www.w3.org/2000/svg" viewBox="0 0 500.51 252.53"><defs><style>.cls-1{fill:#5b5b5b;}.cls-2{fill:#848484;}.cls-3,.cls-8{fill:#fff;}.cls-4{fill:#e6e6e6;}.cls-5{opacity:0.24;}.cls-6{fill:#d64ca8;}.cls-7{fill:#4d4d4d;}.cls-8{opacity:0.2;}</style></defs><title>Asset 49</title><g id="Layer_2" data-name="Layer 2"><g id="_005_how_does_it_work" data-name="005_how does it work"><polygon class="cls-1" points="161.1 67.2 64.92 67.2 16.83 150.49 64.92 233.79 161.1 233.79 209.19 150.49 161.1 67.2"/><path class="cls-2" d="M162,235.29H64.05l-49-84.79,49-84.79H162l49,84.79Zm-96.18-3h94.45l47.22-81.79L160.23,68.7H65.78L18.56,150.49Z"/><path class="cls-3" d="M85.27,111.19l-2,9.3h.32c3.34,0,5.72-3.95,5.72-7,0-2.25-1.29-4.23-4.43-4.23C78.39,109.26,74,112.92,74,119a5.62,5.62,0,0,0,.56,2.74c-2.78,0-4.31-1-4.31-3.9,0-5.35,7.41-10.47,14.13-10.47,6.36,0,9.14,3.14,9.14,6.44a8.44,8.44,0,0,1-4.35,6.88c2.13.6,2.78,2.13,2.78,4,0,3.3-2,7.65-2,10.18a2.75,2.75,0,0,0,1.57,2.66,15.17,15.17,0,0,1-4,.68c-2.62,0-3.14-1.37-3.14-2.7,0-2.66,2.13-7.53,2.13-10.59,0-1.61-.6-2.74-2.42-2.74a9.86,9.86,0,0,0-1.33.16l-3.22,15.18h-5.8L79.31,112Z"/><path class="cls-3" d="M102.58,134.45c3.18,0,5.11-1.77,7.12-4.07h1.37c-2.29,3.7-5.72,7.45-11.07,7.45-3.78,0-6.28-1.85-6.28-6.4s2.62-14.33,10.87-14.33c3.58,0,4.43,1.85,4.43,3.86,0,4.63-4.43,8.21-9.26,8.49,0,.56-.08,1.13-.08,1.61C99.68,133.81,100.64,134.45,102.58,134.45Zm2.33-15.22c-2.05,0-4,4.31-4.83,8.29,3.1-.2,5.84-3.3,5.84-6.64C105.92,119.88,105.67,119.24,104.91,119.24Z"/><path class="cls-3" d="M120,109.42l-4.63,21.74a5.6,5.6,0,0,0-.16,1.29c0,1.13.52,1.49,1.65,1.49,1.57,0,3-1.53,3.62-3.54h1.69c-2.29,6.56-6.28,7.45-8.45,7.45-2.42,0-4.31-1.45-4.31-4.83a13.21,13.21,0,0,1,.32-2.62L114,110.22Z"/><path class="cls-3" d="M139.76,117.47l-2.9,13.69a5.57,5.57,0,0,0-.16,1.29c0,1.13.52,1.73,1.65,1.73,1.57,0,2.66-1.77,3.26-3.78h1.69c-2.29,6.56-5.92,7.45-8.09,7.45a3.7,3.7,0,0,1-3.94-3.7c-1.25,1.85-3.14,3.7-6,3.7s-5.35-1.69-5.35-6.48c0-5.43,3.34-14.09,10.35-14.09,2.29,0,3.26.89,3.26,2.05v.28l.44-2.13Zm-13.89,13.32c0,3.1,1.29,3.14,2,3.14,1.17,0,2.86-1.21,3.34-3.54l1.93-9.1a1.56,1.56,0,0,0-1.65-1.53C128.09,119.76,125.88,127,125.88,130.79Z"/><path class="cls-3" d="M150.15,117.47l-2.9,13.69a4.29,4.29,0,0,0-.12,1c0,.93.28,1.77,1.21,1.77,1.57,0,2.62-1.53,3.22-3.54l2.74-12.92h5.84l-4.91,23.35c-1.21,5.76-4.67,6.84-7.33,6.84a4.52,4.52,0,0,1-4.75-4.35c0-3.74,3.14-4.91,7-6l.4-1.77a6.22,6.22,0,0,1-4.91,2.33c-2.42,0-4.31-1.45-4.31-4.83a13.21,13.21,0,0,1,.32-2.62l2.74-12.92ZM147,144.07c.81,0,1.85-.76,2.38-3.14l.48-2.37c-2.54.85-4.47,2-4.47,4.19A1.63,1.63,0,0,0,147,144.07Z"/><path class="cls-3" d="M90.88,179c-2.13,5.39-7.81,7.49-11.47,7.49-6,0-8.82-2.66-8.82-9.9s3.5-20.93,14-20.93c3.78,0,6.72,1.49,6.72,5.39,0,2.13-.76,3.7-2.82,3.7a2.9,2.9,0,0,1-2.29-1,4.51,4.51,0,0,0,1.85-3.7,2.24,2.24,0,0,0-2.46-2.46c-4.43,0-8.37,10.59-8.37,18.8,0,3.7,1,6.28,4.83,6.28a9.76,9.76,0,0,0,7.85-4Z"/><path class="cls-3" d="M99.94,169.27c-1.57,0-2.82,2.46-3.06,3.54L94.1,185.89h-5.8l5.84-27.37,6-.8-2.17,10.14a6,6,0,0,1,4.71-2.25c2.58,0,4.47,1.33,4.47,4.55s-1.93,8.13-1.93,10.39c0,1,.4,1.69,1.61,1.69,1.77,0,2.5-1.45,3.38-3.54h1.69c-2.25,6.6-5.35,7.45-7.49,7.45-3.5,0-4.75-2.25-4.75-4.55,0-2.74,1.81-7.69,1.81-10.26C101.43,170,100.95,169.27,99.94,169.27Z"/><path class="cls-3" d="M129.48,165.76l-2.9,13.69a5.57,5.57,0,0,0-.16,1.29c0,1.13.52,1.73,1.65,1.73,1.57,0,2.66-1.77,3.26-3.78H133c-2.29,6.56-5.92,7.45-8.09,7.45a3.7,3.7,0,0,1-3.94-3.7c-1.25,1.85-3.14,3.7-6,3.7s-5.35-1.69-5.35-6.48c0-5.43,3.34-14.09,10.35-14.09,2.29,0,3.26.89,3.26,2.05v.28l.44-2.13Zm-13.89,13.32c0,3.1,1.29,3.14,2,3.14,1.17,0,2.86-1.21,3.34-3.54l1.93-9.1a1.56,1.56,0,0,0-1.65-1.53C117.81,168.06,115.59,175.3,115.59,179.09Z"/><path class="cls-3" d="M139.86,165.76,137,179.45a5.59,5.59,0,0,0-.16,1.29c0,1.13.52,1.49,1.65,1.49,1.57,0,3-1.53,3.62-3.54h1.69c-2.29,6.56-6.28,7.45-8.45,7.45-2.42,0-4.31-1.45-4.31-4.83a13.21,13.21,0,0,1,.32-2.62l2.74-12.92Zm-1.81-8.57a3.23,3.23,0,0,1,3.22,3.22,3.2,3.2,0,0,1-3.22,3.18,3.16,3.16,0,0,1-3.18-3.18A3.2,3.2,0,0,1,138.05,157.19Z"/><path class="cls-3" d="M152.22,169.27c-1.45,0-2.54,1.69-3.14,3.7l-2.74,12.92h-5.8l4.27-20.13h5.8l-.44,2.09a6,6,0,0,1,4.71-2.25c2.58,0,4.47,1.33,4.47,4.55s-1.93,8.13-1.93,10.39c0,1,.4,1.69,1.61,1.69a2.49,2.49,0,0,0,1.33-.24,4.29,4.29,0,0,1-4.43,4.15c-3.1,0-4.07-2.25-4.07-4.55,0-2.74,1.81-7.69,1.81-10.26C153.67,170,153.19,169.27,152.22,169.27Z"/><circle class="cls-4" cx="459.2" cy="41.32" r="41.32"/><path d="M462.1,60.3h-4.45L442.48,22.78h5.25L459.1,51.13l.75,2.41.75-2.41L472,22.78h5.25Z"/><circle class="cls-4" cx="427.09" cy="117.63" r="19.82"/><path d="M428.56,126.73h-2.13l-7.28-18h2.52l5.45,13.6.36,1.16.36-1.16,5.45-13.6h2.52Z"/><circle class="cls-4" cx="326.12" cy="223.18" r="24"/><path d="M327.48,234.2h-2.58l-8.81-21.79h3.05l6.6,16.47.44,1.4.44-1.4,6.6-16.47h3.05Z"/><circle class="cls-4" cx="327.38" cy="176.31" r="14.61"/><path d="M328,183h-1.57l-5.37-13.27h1.86l4,10,.27.85.27-.85,4-10h1.86Z"/><circle class="cls-4" cx="372.2" cy="190.92" r="14.61"/><path d="M372.81,197.64h-1.57l-5.36-13.27h1.86l4,10,.27.85.27-.85,4-10h1.86Z"/><g class="cls-5"><polygon points="326.57 41.25 272.74 41.25 272.74 143.11 351.51 143.11 351.51 65.47 326.57 41.25"/><polygon points="351.54 61.23 331.56 41.25 351.54 41.25 351.54 61.23"/></g><polygon class="cls-4" points="321.85 36.53 268.03 36.53 268.03 138.4 346.79 138.4 346.79 60.75 321.85 36.53"/><polygon class="cls-6" points="346.82 56.51 326.84 36.53 346.82 36.53 346.82 56.51"/><rect class="cls-7" x="276.43" y="47.95" width="19.95" height="2.36"/><rect class="cls-7" x="276.46" y="56.75" width="11.26" height="2.36"/><rect class="cls-7" x="292.41" y="56.75" width="11.26" height="2.36"/><rect class="cls-7" x="308.23" y="56.75" width="11.26" height="2.36"/><rect class="cls-7" x="326.12" y="65.54" width="11.26" height="2.36"/><rect class="cls-7" x="276.43" y="65.54" width="18.51" height="2.36"/><rect class="cls-7" x="300.06" y="65.54" width="18.51" height="2.36"/><rect class="cls-7" x="276.43" y="74.47" width="60.94" height="2.36"/><rect class="cls-7" x="276.43" y="83.39" width="60.94" height="2.36"/><rect class="cls-7" x="276.43" y="92.32" width="14.77" height="2.36"/><rect class="cls-7" x="298.04" y="92.32" width="14.77" height="2.36"/><rect class="cls-7" x="318.73" y="92.32" width="14.77" height="2.36"/><rect class="cls-7" x="276.43" y="101.25" width="23.63" height="2.36"/><rect class="cls-7" x="215.68" y="85.99" width="39.45" height="4" transform="translate(-12.92 49.34) rotate(-11.65)"/><rect class="cls-7" x="356.63" y="56.68" width="45.51" height="4" transform="translate(-4.03 77.89) rotate(-11.66)"/><polygon class="cls-7" points="397.27 65.71 393.84 63.65 399.47 54.3 390.11 48.67 392.18 45.24 404.95 52.93 397.27 65.71"/><polygon class="cls-7" points="224.16 101 211.38 93.32 219.07 80.54 222.5 82.6 216.87 91.95 226.22 97.57 224.16 101"/><rect class="cls-7" x="218.06" y="119.33" width="39.45" height="4" transform="translate(-2.75 5.55) rotate(-1.33)"/><rect class="cls-7" x="354.48" y="116.08" width="39.17" height="4" transform="translate(-2.64 8.71) rotate(-1.33)"/><polygon class="cls-7" points="226.8 132.3 215.51 122.56 225.25 111.27 228.28 113.89 221.15 122.15 229.41 129.28 226.8 132.3"/><polygon class="cls-7" points="385.61 128.5 382.58 125.88 389.71 117.62 381.45 110.49 384.06 107.46 395.35 117.2 385.61 128.5"/><rect class="cls-7" x="254.24" y="157.92" width="4" height="81.83" transform="translate(-23.9 362.29) rotate(-68.07)"/><polygon class="cls-7" points="221.44 196.54 215.16 183.02 228.69 176.74 230.37 180.37 220.47 184.96 225.07 194.86 221.44 196.54"/><path class="cls-7" d="M342.14,92.2A27.74,27.74,0,1,0,331.87,132l4,6.08-1.4.92,15.16,23,1.4-.92L355.7,158l1.4-.92-15.16-23-1.4.92-4-6.09A27.74,27.74,0,0,0,342.14,92.2Zm-41.66,27.46a22.15,22.15,0,1,1,30.69,6.3A22.18,22.18,0,0,1,300.48,119.66Z"/><path class="cls-8" d="M300.48,119.66a22.15,22.15,0,1,1,30.69,6.3A22.18,22.18,0,0,1,300.48,119.66Z"/><circle class="cls-7" cx="112.56" cy="56.22" r="5.86"/><circle class="cls-7" cx="59.21" cy="56.22" r="5.86" transform="translate(-20.18 37.14) rotate(-30)"/><circle class="cls-7" cx="32.22" cy="99.69" r="5.86" transform="translate(-70.22 77.75) rotate(-60)"/><circle class="cls-7" cx="5.86" cy="149.49" r="5.86"/><circle class="cls-7" cx="29.64" cy="199.24" r="5.86" transform="translate(-95.65 41.51) rotate(-30)"/><circle class="cls-7" cx="59.21" cy="246.67" r="5.86" transform="translate(-184.02 174.61) rotate(-60)"/><circle class="cls-7" cx="112.56" cy="246.67" r="5.86"/><circle class="cls-7" cx="165.92" cy="246.67" r="5.86" transform="translate(-101.11 116.01) rotate(-30)"/><circle class="cls-7" cx="195.97" cy="199.24" r="5.86" transform="matrix(0.5, -0.87, 0.87, 0.5, -74.56, 269.33)"/><circle class="cls-7" cx="219.27" cy="149.49" r="5.86"/><circle class="cls-7" cx="195.97" cy="99.69" r="5.86" transform="translate(-23.59 111.34) rotate(-30)"/><circle class="cls-7" cx="165.92" cy="56.22" r="5.86" transform="translate(34.27 171.8) rotate(-60)"/></g></g></svg>