<svg xmlns="http://www.w3.org/2000/svg" viewBox="0 0 24.32 12.6"><defs><style>.cls-1{fill:#d64ca8;}</style></defs><title>Asset 4</title><g id="Layer_2" data-name="Layer 2"><g id="Layer_1-2" data-name="Layer 1"><path class="cls-1" d="M23.79,6.05A15,15,0,0,0,12.2.25,15.11,15.11,0,0,0,.53,6.05l-.2.25.2.25a15,15,0,0,0,11.59,5.8h0a15.11,15.11,0,0,0,11.67-5.8L24,6.3ZM12.12,11.58h0A14.21,14.21,0,0,1,1.33,6.3,14.28,14.28,0,0,1,12.2,1,14.21,14.21,0,0,1,23,6.3,14.28,14.28,0,0,1,12.12,11.58Z"/><path class="cls-1" d="M12.12,12.6A15.28,15.28,0,0,1,.34,6.71L0,6.3l.34-.41A15.35,15.35,0,0,1,12.2,0,15.28,15.28,0,0,1,24,5.89l.34.41L24,6.71A15.35,15.35,0,0,1,12.12,12.6ZM.65,6.3l.07.09a14.79,14.79,0,0,0,11.4,5.71A14.86,14.86,0,0,0,23.6,6.39l.07-.09-.07-.09A14.79,14.79,0,0,0,12.2.5,14.86,14.86,0,0,0,.72,6.21Zm11.47,5.53h0a14.48,14.48,0,0,1-11-5.36L1,6.3l.14-.16A14.55,14.55,0,0,1,12.2.77a14.47,14.47,0,0,1,11,5.36l.14.16-.14.16A14.55,14.55,0,0,1,12.12,11.83ZM1.66,6.3a13.94,13.94,0,0,0,10.46,5v0a14,14,0,0,0,10.53-5,13.93,13.93,0,0,0-10.46-5A14,14,0,0,0,1.66,6.3Z"/><path class="cls-1" d="M12.16,2A4.31,4.31,0,1,0,16.47,6.3,4.32,4.32,0,0,0,12.16,2Zm0,7.94A3.63,3.63,0,1,1,15.79,6.3,3.63,3.63,0,0,1,12.16,9.93Z"/><path class="cls-1" d="M12.16,10.86A4.56,4.56,0,1,1,16.72,6.3,4.57,4.57,0,0,1,12.16,10.86Zm0-8.62A4.06,4.06,0,1,0,16.22,6.3,4.06,4.06,0,0,0,12.16,2.24Zm0,7.94A3.88,3.88,0,1,1,16,6.3,3.88,3.88,0,0,1,12.16,10.18Zm0-7.26A3.38,3.38,0,1,0,15.54,6.3,3.38,3.38,0,0,0,12.16,2.92Z"/><path class="cls-1" d="M12.09,3.82a.27.27,0,0,0,0,.55,2,2,0,0,1,2,2,.27.27,0,1,0,.55,0A2.55,2.55,0,0,0,12.09,3.82Z"/><path class="cls-1" d="M14.37,6.89a.52.52,0,0,1-.52-.52,1.75,1.75,0,0,0-1.75-1.75.52.52,0,1,1,0-1,2.8,2.8,0,0,1,2.8,2.8A.52.52,0,0,1,14.37,6.89ZM12.09,4.07a0,0,0,0,0,0,0,2.29,2.29,0,0,1,2.27,2.27A2.23,2.23,0,0,0,12.09,4.07Z"/></g></g></svg>