<svg xmlns="http://www.w3.org/2000/svg" x="0px" y="0px" width="2553.937px" height="1706.031px" viewBox="0 0 2553.937 1706.031" enableBackground="new 0 0 2553.937 1706.031">
<path fill="#F3F3F3" d="M0.243,93.234c-0.337,0.339-0.31,0.842,0,1.151c0.315,0.315,0.791,0.315,1.128-0.021
	c0.288-0.288,0.288-0.766-0.026-1.079C1.034,92.974,0.531,92.948,0.243,93.234"/>
<path fill="#F3F3F3" d="M24.743,32.938c-0.36,0.36-0.359,0.989,0.009,1.358c0.36,0.36,0.989,0.36,1.348-0.001
	c0.383-0.381,0.356-0.983-0.004-1.343C25.727,32.584,25.125,32.556,24.743,32.938"/>
<path fill="#F3F3F3" d="M47.034,337.422c-0.288,0.288-0.314,0.747-0.026,1.034c0.287,0.288,0.773,0.288,1.06,0
	c0.288-0.287,0.283-0.768-0.004-1.055C47.776,337.112,47.322,337.136,47.034,337.422"/>
<path fill="#F3F3F3" d="M71.139,256.996c-0.31,0.311-0.337,0.813,0,1.15c0.315,0.316,0.841,0.312,1.151,0
	c0.337-0.337,0.315-0.836,0-1.15C71.953,256.659,71.476,256.659,71.139,256.996"/>
<path fill="#F3F3F3" d="M96.685,189.293c-0.387,0.388-0.364,0.984,0.022,1.371c0.383,0.383,0.958,0.383,1.344-0.005
	c0.383-0.382,0.41-0.983,0.028-1.366C97.691,188.906,97.066,188.91,96.685,189.293"/>
<path fill="#F3F3F3" d="M124.341,134.457c-0.432,0.433-0.409,1.129,0.036,1.573c0.409,0.409,1.106,0.433,1.537,0
	c0.432-0.431,0.409-1.129,0-1.537C125.469,134.049,124.773,134.025,124.341,134.457"/>
<path fill="#F3F3F3" d="M154.891,91.735c-0.458,0.458-0.458,1.224,0,1.682c0.467,0.467,1.232,0.467,1.69,0.009
	c0.455-0.454,0.459-1.223-0.009-1.69C156.114,91.276,155.345,91.282,154.891,91.735"/>
<path fill="#F3F3F3" d="M189.055,59.396c-0.53,0.53-0.517,1.407-0.013,1.91c0.526,0.527,1.366,0.504,1.897-0.025
	c0.526-0.527,0.526-1.346,0-1.87C190.435,58.906,189.581,58.87,189.055,59.396"/>
<path fill="#F3F3F3" d="M227.564,34.858c-0.625,0.625-0.638,1.674-0.013,2.298c0.624,0.625,1.659,0.598,2.283-0.026
	c0.625-0.625,0.625-1.632,0-2.257C229.21,34.248,228.189,34.233,227.564,34.858"/>
<path fill="#F3F3F3" d="M35.631,1067.247c-0.193,0.193-0.189,0.53,0,0.72c0.193,0.193,0.503,0.17,0.697-0.022
	c0.193-0.194,0.216-0.504,0.022-0.697C36.161,1067.059,35.824,1067.055,35.631,1067.247"/>
<path fill="#F3F3F3" d="M49.245,941.035c-0.193,0.193-0.18,0.54,0.013,0.733c0.189,0.188,0.527,0.192,0.719,0
	c0.189-0.188,0.189-0.53,0-0.72C49.785,940.856,49.433,940.848,49.245,941.035"/>
<path fill="#F3F3F3" d="M176.007,351.732c-0.409,0.409-0.432,1.053-0.045,1.438c0.382,0.382,1.029,0.365,1.439-0.044
	c0.382-0.382,0.382-1.012,0-1.395C177.014,351.346,176.389,351.35,176.007,351.732"/>
<path fill="#F3F3F3" d="M204.336,288.925c-0.431,0.433-0.422,1.115,0.014,1.552c0.431,0.431,1.106,0.431,1.537,0
	c0.432-0.432,0.431-1.106,0-1.537C205.451,288.503,204.768,288.493,204.336,288.925"/>
<path fill="#F3F3F3" d="M235.666,237.14c-0.503,0.505-0.503,1.322-0.022,1.804c0.476,0.476,1.272,0.454,1.775-0.049
	c0.504-0.505,0.504-1.277,0.027-1.753C236.965,236.66,236.169,236.637,235.666,237.14"/>
<path fill="#F3F3F3" d="M270.754,195.499c-0.553,0.554-0.576,1.438-0.036,1.979c0.531,0.531,1.416,0.508,1.969-0.044
	c0.53-0.532,0.53-1.395,0-1.925C272.148,194.97,271.284,194.97,270.754,195.499"/>
<path fill="#F3F3F3" d="M310.044,162.284c-0.647,0.646-0.647,1.654-0.022,2.279c0.625,0.624,1.631,0.624,2.279-0.022
	c0.624-0.624,0.624-1.632,0-2.257C311.676,161.659,310.669,161.659,310.044,162.284"/>
<path fill="#F3F3F3" d="M353.931,135.104c-0.697,0.697-0.724,1.875,0,2.6c0.719,0.718,1.91,0.706,2.607,0.008
	c0.742-0.741,0.733-1.91,0.014-2.629C355.828,134.358,354.673,134.363,353.931,135.104"/>
<path fill="#F3F3F3" d="M402.236,110.905c-0.769,0.77-0.791,2.087,0,2.878c0.795,0.796,2.113,0.772,2.881,0.005
	c0.841-0.842,0.818-2.113,0.023-2.909C404.349,110.089,403.076,110.064,402.236,110.905"/>
<path fill="#F3F3F3" d="M453.985,86.116c-0.89,0.892-0.876,2.344-0.013,3.206c0.863,0.862,2.305,0.867,3.196-0.022
	c0.863-0.863,0.836-2.284-0.027-3.146C456.278,85.291,454.848,85.255,453.985,86.116"/>
<path fill="#F3F3F3" d="M507.344,57.559c-1.034,1.033-1.043,2.752-0.014,3.78c1.048,1.048,2.752,1.026,3.785-0.009
	c1.035-1.034,1.03-2.71-0.018-3.757C510.068,56.542,508.378,56.525,507.344,57.559"/>
<path fill="#F3F3F3" d="M137.233,1092.696c-0.193,0.193-0.215,0.55,0,0.765c0.216,0.216,0.576,0.197,0.769,0.004
	c0.216-0.215,0.211-0.553-0.004-0.769C137.782,1092.481,137.449,1092.48,137.233,1092.696"/>
<path fill="#F3F3F3" d="M153.032,979.378c-0.238,0.238-0.238,0.625-0.022,0.841c0.238,0.238,0.624,0.238,0.862,0
	c0.194-0.193,0.189-0.574-0.049-0.813C153.607,979.189,153.225,979.186,153.032,979.378"/>
<path fill="#F3F3F3" d="M291.461,447.164c-0.432,0.433-0.454,1.174,0.004,1.633c0.454,0.454,1.196,0.431,1.628,0
	c0.458-0.459,0.458-1.179,0.004-1.633C292.64,446.705,291.919,446.705,291.461,447.164"/>
<path fill="#F3F3F3" d="M322.839,386.929c-0.481,0.48-0.503,1.321,0,1.825c0.481,0.481,1.331,0.468,1.812-0.013
	c0.53-0.531,0.494-1.332,0.013-1.812C324.161,386.425,323.369,386.398,322.839,386.929"/>
<path fill="#F3F3F3" d="M357.869,335.911c-0.553,0.554-0.553,1.462,0,2.015c0.576,0.575,1.461,0.552,2.014,0
	c0.575-0.576,0.575-1.439,0-2.015C359.33,335.358,358.444,335.337,357.869,335.911"/>
<path fill="#F3F3F3" d="M397.026,293.152c-0.697,0.696-0.724,1.775-0.049,2.449c0.669,0.67,1.775,0.67,2.472-0.025
	c0.674-0.676,0.647-1.753-0.023-2.424C398.752,292.478,397.7,292.478,397.026,293.152"/>
<path fill="#F3F3F3" d="M440.673,257.139c-0.742,0.742-0.732,1.956,0.014,2.701c0.778,0.778,1.982,0.778,2.724,0.036
	c0.768-0.768,0.741-1.946-0.036-2.723C442.629,256.407,441.442,256.37,440.673,257.139"/>
<path fill="#F3F3F3" d="M488.796,225.508c-0.818,0.817-0.813,2.162,0.014,2.989c0.818,0.819,2.157,0.819,2.976,0
	c0.84-0.841,0.84-2.18,0.022-2.998C490.981,224.672,489.637,224.667,488.796,225.508"/>
<path fill="#F3F3F3" d="M540.69,195.295c-0.913,0.912-0.886,2.379,0.022,3.286c0.891,0.891,2.365,0.927,3.277,0.014
	c0.913-0.912,0.877-2.388-0.013-3.277C543.068,194.409,541.603,194.383,540.69,195.295"/>
<path fill="#F3F3F3" d="M594.84,163.302c-1.105,1.106-1.105,2.832-0.009,3.93c1.079,1.079,2.805,1.079,3.911-0.027
	c1.056-1.056,1.056-2.782-0.022-3.861C597.624,162.246,595.897,162.246,594.84,163.302"/>
<path fill="#F3F3F3" d="M649.351,126.584c-1.173,1.174-1.151,3.075,0.022,4.248c1.178,1.179,3.08,1.2,4.253,0.027
	c1.2-1.2,1.2-3.124,0.022-4.301C652.475,125.385,650.55,125.385,649.351,126.584"/>
<path fill="#F3F3F3" d="M701.857,82.527c-1.272,1.271-1.263,3.35,0.037,4.648c1.285,1.286,3.348,1.281,4.62,0.009
	c1.295-1.295,1.3-3.357,0.014-4.643C705.229,81.243,703.152,81.232,701.857,82.527"/>
<path fill="#F3F3F3" d="M749.873,29.183c-1.438,1.438-1.465,3.768-0.022,5.211c1.429,1.43,3.78,1.425,5.219-0.015
	c1.416-1.416,1.398-3.744-0.032-5.174C753.595,27.762,751.289,27.768,749.873,29.183"/>
<path fill="#F3F3F3" d="M309.18,850.166c-0.337,0.337-0.337,0.913-0.026,1.223c0.337,0.337,0.889,0.315,1.227-0.022
	c0.337-0.338,0.31-0.841-0.027-1.178C310.042,849.879,309.517,849.829,309.18,850.166"/>
<path fill="#F3F3F3" d="M332.793,763.245c-0.36,0.359-0.373,0.976,0.009,1.357c0.36,0.36,0.989,0.36,1.348,0
	c0.387-0.386,0.36-0.988,0-1.348C333.768,762.872,333.179,762.858,332.793,763.245"/>
<path fill="#F3F3F3" d="M358.18,681.459c-0.454,0.454-0.432,1.151,0,1.583c0.432,0.431,1.128,0.454,1.583,0
	c0.48-0.481,0.458-1.178,0.026-1.61C359.358,681.002,358.661,680.979,358.18,681.459"/>
<path fill="#F3F3F3" d="M385.971,606.303c-0.458,0.458-0.458,1.223,0.022,1.704c0.495,0.494,1.259,0.494,1.718,0.036
	c0.481-0.481,0.481-1.246-0.014-1.74C387.216,605.822,386.452,605.822,385.971,606.303"/>
<path fill="#F3F3F3" d="M416.712,538.611c-0.531,0.53-0.53,1.394,0,1.924c0.503,0.504,1.367,0.504,1.897-0.027
	c0.503-0.503,0.481-1.344-0.022-1.847C418.056,538.13,417.215,538.108,416.712,538.611"/>
<path fill="#F3F3F3" d="M450.901,478.83c-0.575,0.575-0.575,1.538,0,2.113c0.589,0.589,1.551,0.589,2.126,0.013
	c0.576-0.575,0.576-1.537-0.013-2.126C452.439,478.255,451.476,478.255,450.901,478.83"/>
<path fill="#F3F3F3" d="M488.977,426.637c-0.674,0.675-0.67,1.775,0.013,2.46c0.674,0.674,1.799,0.7,2.473,0.025
	c0.697-0.696,0.674-1.825,0-2.499C490.78,425.94,489.673,425.94,488.977,426.637"/>
<path fill="#F3F3F3" d="M531.4,381.094c-0.818,0.817-0.813,2.063-0.044,2.832c0.764,0.765,2.044,0.806,2.863-0.014
	c0.768-0.768,0.733-2.054-0.031-2.818C533.419,380.325,532.169,380.325,531.4,381.094"/>
<path fill="#F3F3F3" d="M578.082,340.675c-0.863,0.863-0.84,2.279,0.014,3.135c0.862,0.861,2.256,0.861,3.119-0.001
	c0.863-0.862,0.886-2.279,0.023-3.143C580.384,339.812,578.945,339.812,578.082,340.675"/>
<path fill="#F3F3F3" d="M628.728,303.116c-0.935,0.936-0.926,2.481,0.014,3.422c0.948,0.947,2.486,0.947,3.421,0.013
	c0.935-0.936,0.935-2.472-0.014-3.421C631.209,302.189,629.663,302.181,628.728,303.116"/>
<path fill="#F3F3F3" d="M682.159,265.746c-1.079,1.078-1.079,2.858-0.013,3.925c1.083,1.084,2.859,1.079,3.938,0
	c1.056-1.057,1.06-2.832-0.023-3.915C684.996,264.689,683.215,264.689,682.159,265.746"/>
<path fill="#F3F3F3" d="M736.753,225.797c-1.223,1.224-1.2,3.17,0.014,4.384c1.2,1.199,3.142,1.218,4.365-0.005
	c1.249-1.249,1.227-3.188,0.027-4.389C739.945,224.574,738.003,224.547,736.753,225.797"/>
<path fill="#F3F3F3" d="M790.208,180.434c-1.299,1.301-1.321,3.48,0,4.803c1.335,1.335,3.525,1.32,4.824,0.021
	c1.344-1.344,1.335-3.511,0-4.845C793.71,179.09,791.552,179.09,790.208,180.434"/>
<path fill="#F3F3F3" d="M839.641,126.87c-1.488,1.488-1.488,3.89,0,5.378c1.465,1.465,3.875,1.474,5.363-0.015
	c1.466-1.466,1.479-3.896,0.013-5.363C843.53,125.384,841.105,125.405,839.641,126.87"/>
<path fill="#F3F3F3" d="M882.4,63.37c-1.704,1.703-1.695,4.454,0.045,6.194c1.704,1.703,4.446,1.703,6.149,0
	c1.754-1.753,1.749-4.491,0.045-6.194C886.9,61.631,884.153,61.616,882.4,63.37"/>
<path fill="#F3F3F3" d="M460.19,842.531c-0.458,0.458-0.432,1.151,0.027,1.609c0.431,0.432,1.124,0.459,1.582,0
	c0.454-0.454,0.459-1.177,0.027-1.609C461.369,842.074,460.645,842.078,460.19,842.531"/>
<path fill="#F3F3F3" d="M487.367,763.497c-0.526,0.526-0.503,1.322,0,1.825c0.495,0.495,1.286,0.512,1.812-0.013
	c0.48-0.481,0.462-1.272-0.032-1.767C488.643,763.039,487.848,763.016,487.367,763.497"/>
<path fill="#F3F3F3" d="M516.995,689.935c-0.53,0.53-0.508,1.416,0.045,1.969c0.567,0.566,1.43,0.566,1.96,0.036
	c0.576-0.575,0.576-1.439,0.009-2.005C518.456,689.382,517.571,689.359,516.995,689.935"/>
<path fill="#F3F3F3" d="M549.79,622.519c-0.603,0.602-0.647,1.609-0.049,2.207c0.602,0.603,1.631,0.58,2.234-0.022
	c0.597-0.598,0.602-1.61,0-2.212C551.377,621.894,550.388,621.921,549.79,622.519"/>
<path fill="#F3F3F3" d="M586.017,561.467c-0.719,0.719-0.719,1.871,0,2.589c0.732,0.733,1.888,0.738,2.607,0.018
	c0.719-0.719,0.719-1.878-0.013-2.611C587.892,560.745,586.736,560.749,586.017,561.467"/>
<path fill="#F3F3F3" d="M626.304,506.584c-0.792,0.792-0.841,2.136-0.022,2.954c0.804,0.804,2.148,0.755,2.939-0.037
	c0.791-0.791,0.818-2.112,0.014-2.917C628.417,505.766,627.095,505.793,626.304,506.584"/>
<path fill="#F3F3F3" d="M670.696,457.008c-0.863,0.862-0.841,2.233,0.022,3.098c0.863,0.863,2.234,0.885,3.098,0.021
	c0.862-0.861,0.89-2.282,0.026-3.146C672.98,456.117,671.559,456.146,670.696,457.008"/>
<path fill="#F3F3F3" d="M718.88,410.935c-1.011,1.013-1.011,2.595-0.049,3.557c0.984,0.983,2.553,0.97,3.565-0.04
	c0.957-0.958,0.948-2.504-0.037-3.489C721.398,410,719.838,409.978,718.88,410.935"/>
<path fill="#F3F3F3" d="M769.968,366.471c-1.128,1.13-1.137,2.989,0.027,4.154c1.151,1.151,2.998,1.128,4.127-0.001
	c1.151-1.149,1.178-3.002,0.027-4.153C772.985,365.308,771.119,365.321,769.968,366.471"/>
<path fill="#F3F3F3" d="M823.002,321.312c-1.25,1.25-1.245,3.313,0,4.56c1.263,1.262,3.299,1.24,4.549-0.009
	c1.25-1.25,1.277-3.291,0.013-4.555C826.319,320.064,824.252,320.064,823.002,321.312"/>
<path fill="#F3F3F3" d="M875.87,272.817c-1.344,1.345-1.394,3.553-0.013,4.933c1.379,1.38,3.591,1.335,4.935-0.01
	c1.344-1.345,1.367-3.533-0.013-4.913C879.398,271.447,877.213,271.474,875.87,272.817"/>
<path fill="#F3F3F3" d="M925.878,218.294c-1.538,1.537-1.56,4.06-0.049,5.569c1.55,1.551,4.059,1.516,5.596-0.021
	c1.515-1.516,1.501-3.975-0.049-5.525C929.866,216.807,927.394,216.778,925.878,218.294"/>
<path fill="#F3F3F3" d="M970.136,155.333c-1.753,1.755-1.717,4.622,0.036,6.375c1.776,1.775,4.621,1.789,6.374,0.035
	c1.78-1.778,1.812-4.67,0.036-6.444C974.829,153.546,971.916,153.555,970.136,155.333"/>
<path fill="#F3F3F3" d="M1006.162,81.977c-1.947,1.946-1.942,5.018-0.036,6.923c1.911,1.91,4.981,1.915,6.927-0.031
	c1.875-1.874,1.87-4.945-0.04-6.855C1011.107,80.107,1008.037,80.102,1006.162,81.977"/>
<path fill="#F3F3F3" d="M623.075,838.604c-0.576,0.576-0.589,1.524-0.013,2.1c0.579,0.579,1.514,0.552,2.09-0.023
	c0.575-0.575,0.58-1.488,0-2.068C624.576,838.039,623.65,838.03,623.075,838.604"/>
<path fill="#F3F3F3" d="M654.105,765.105c-0.625,0.625-0.603,1.609,0.045,2.256c0.624,0.625,1.609,0.648,2.234,0.023
	c0.647-0.647,0.652-1.659,0.027-2.283C655.765,764.454,654.752,764.458,654.105,765.105"/>
<path fill="#F3F3F3" d="M688.125,696.417c-0.719,0.719-0.71,1.933,0.009,2.652c0.746,0.746,1.937,0.733,2.657,0.014
	c0.719-0.72,0.755-1.933,0.009-2.679C690.082,695.685,688.844,695.698,688.125,696.417"/>
<path fill="#F3F3F3" d="M725.661,632.975c-0.814,0.813-0.805,2.126,0.013,2.944c0.814,0.814,2.14,0.836,2.954,0.023
	c0.818-0.818,0.813-2.162,0-2.976C727.809,632.148,726.479,632.157,725.661,632.975"/>
<path fill="#F3F3F3" d="M766.933,574.324c-0.913,0.913-0.939,2.378-0.027,3.291c0.899,0.898,2.369,0.876,3.281-0.036
	c0.864-0.863,0.886-2.333-0.013-3.233C769.262,573.434,767.795,573.461,766.933,574.324"/>
<path fill="#F3F3F3" d="M811.719,519.622c-1.007,1.007-1.007,2.643,0,3.65c1.007,1.007,2.644,1.007,3.65,0
	c1.034-1.034,1.03-2.666,0.023-3.672C814.385,518.593,812.753,518.588,811.719,519.622"/>
<path fill="#F3F3F3" d="M859.555,467.247c-1.151,1.15-1.128,3.054,0.036,4.218c1.151,1.149,3.026,1.146,4.176-0.005
	c1.155-1.155,1.2-3.07,0.05-4.222C862.653,466.074,860.71,466.093,859.555,467.247"/>
<path fill="#F3F3F3" d="M909.578,415.521c-1.299,1.301-1.308,3.396-0.009,4.693c1.304,1.304,3.417,1.313,4.716,0.014
	c1.294-1.295,1.316-3.438,0.013-4.741C912.999,414.188,910.872,414.228,909.578,415.521"/>
<path fill="#F3F3F3" d="M960.161,362.247c-1.394,1.395-1.416,3.674,0.014,5.103c1.393,1.393,3.708,1.407,5.102,0.013
	c1.438-1.438,1.407-3.734,0.013-5.129C963.861,360.805,961.599,360.81,960.161,362.247"/>
<path fill="#F3F3F3" d="M1009.054,304.88c-1.587,1.588-1.551,4.113,0.014,5.679c1.559,1.559,4.054,1.563,5.641-0.023
	c1.56-1.559,1.56-4.059,0-5.619C1013.144,303.353,1010.614,303.32,1009.054,304.88"/>
<path fill="#F3F3F3" d="M1053.529,241.125c-1.753,1.754-1.739,4.6,0.036,6.374c1.768,1.768,4.599,1.768,6.353,0.015
	c1.776-1.776,1.802-4.635,0.036-6.402C1058.177,239.337,1055.305,239.351,1053.529,241.125"/>
<path fill="#F3F3F3" d="M1090.909,168.646c-1.992,1.991-1.996,5.16-0.049,7.106c1.982,1.983,5.165,1.993,7.156,0
	c1.919-1.919,1.91-5.101-0.072-7.084C1095.997,166.723,1092.828,166.727,1090.909,168.646"/>
<path fill="#F3F3F3" d="M1118.713,85.818c-2.09,2.091-2.09,5.544,0.014,7.646c2.121,2.123,5.551,2.099,7.641,0.009
	c2.091-2.091,2.136-5.542,0.014-7.664C1124.278,83.707,1120.803,83.728,1118.713,85.818"/>
<path fill="#F3F3F3" d="M794.818,830.095c-0.769,0.769-0.769,1.965,0,2.733c0.769,0.769,1.991,0.796,2.76,0.027
	c0.769-0.768,0.769-2.018,0-2.787C796.81,829.3,795.587,829.326,794.818,830.095"/>
<path fill="#F3F3F3" d="M829.316,759.295c-0.814,0.813-0.832,2.243,0.009,3.084c0.84,0.84,2.274,0.827,3.088,0.013
	c0.863-0.863,0.827-2.247-0.014-3.088C831.56,758.464,830.179,758.433,829.316,759.295"/>
<path fill="#F3F3F3" d="M867.011,692.552c-0.913,0.913-0.904,2.459,0.009,3.372c0.949,0.948,2.463,0.926,3.376,0.013
	c0.962-0.962,0.957-2.449,0.009-3.398C869.492,691.626,867.973,691.59,867.011,692.552"/>
<path fill="#F3F3F3" d="M907.992,629.436c-1.056,1.057-1.056,2.738-0.049,3.745c1.034,1.034,2.688,1.006,3.744-0.05
	c1.012-1.011,1.012-2.638-0.022-3.673C910.658,628.452,909.003,628.425,907.992,629.436"/>
<path fill="#F3F3F3" d="M951.759,569.055c-1.223,1.223-1.227,3.142-0.049,4.32c1.2,1.2,3.124,1.2,4.347-0.023
	c1.2-1.2,1.2-3.124,0-4.324C954.879,567.85,952.958,567.855,951.759,569.055"/>
<path fill="#F3F3F3" d="M997.807,510.137c-1.344,1.344-1.344,3.556,0,4.9c1.322,1.321,3.542,1.33,4.886-0.014
	c1.344-1.344,1.312-3.542-0.009-4.864C1001.339,508.815,999.151,508.793,997.807,510.137"/>
<path fill="#F3F3F3" d="M1044.982,451.054c-1.465,1.467-1.438,3.795,0,5.232c1.479,1.479,3.816,1.515,5.282,0.05
	c1.466-1.466,1.429-3.803-0.05-5.282C1048.776,449.616,1046.447,449.588,1044.982,451.054"/>
<path fill="#F3F3F3" d="M1091.366,389.591c-1.587,1.588-1.609,4.153-0.027,5.736c1.573,1.574,4.176,1.586,5.763,0
	c1.582-1.583,1.546-4.163-0.027-5.736C1095.492,388.01,1092.948,388.01,1091.366,389.591"/>
<path fill="#F3F3F3" d="M1134.412,323.354c-1.825,1.825-1.856,4.814-0.022,6.648c1.825,1.826,4.801,1.781,6.626-0.044
	c1.825-1.826,1.797-4.73-0.027-6.554C1139.155,321.57,1136.237,321.529,1134.412,323.354"/>
<path fill="#F3F3F3" d="M1171.746,250.394c-2.014,2.015-2.019,5.282,0.013,7.313c2.006,2.005,5.296,2.024,7.311,0.009
	c2.04-2.04,2.018-5.326,0.013-7.331C1177.049,248.354,1173.787,248.354,1171.746,250.394"/>
<path fill="#F3F3F3" d="M1200.843,168.669c-2.162,2.162-2.176,5.7,0,7.877c2.185,2.185,5.727,2.175,7.889,0.013
	c2.162-2.162,2.194-5.728,0.009-7.911C1206.566,166.472,1203.005,166.508,1200.843,168.669"/>
<path fill="#F3F3F3" d="M1224.732,81.543c-2.4,2.4-2.428,6.267-0.014,8.681c2.365,2.365,6.258,2.365,8.658-0.036
	c2.351-2.351,2.351-6.244-0.013-8.608C1230.949,79.165,1227.083,79.191,1224.732,81.543"/>
<path fill="#F3F3F3" d="M846.962,1120.21c-0.575,0.576-0.575,1.538,0.023,2.136c0.638,0.639,1.6,0.639,2.175,0.062
	c0.625-0.624,0.625-1.586-0.013-2.225C848.549,1119.585,847.587,1119.585,846.962,1120.21"/>
<path fill="#F3F3F3" d="M875.58,1039.877c-0.67,0.67-0.696,1.804,0,2.5c0.697,0.697,1.83,0.67,2.5,0
	c0.696-0.696,0.719-1.825,0.022-2.521C877.404,1039.158,876.276,1039.181,875.58,1039.877"/>
<path fill="#F3F3F3" d="M905.352,960.938c-0.818,0.818-0.778,2.101,0.014,2.892c0.791,0.791,2.072,0.83,2.89,0.013
	c0.768-0.769,0.778-2.099-0.013-2.89C907.451,960.162,906.121,960.17,905.352,960.938"/>
<path fill="#F3F3F3" d="M937.017,884.52c-0.863,0.863-0.868,2.307,0.009,3.183c0.89,0.89,2.32,0.872,3.182,0.009
	c0.864-0.863,0.877-2.288-0.013-3.178C939.319,883.657,937.88,883.657,937.017,884.52"/>
<path fill="#F3F3F3" d="M971.145,810.997c-0.935,0.935-0.948,2.513,0.009,3.471c0.935,0.935,2.5,0.908,3.434-0.027
	c0.962-0.962,0.962-2.5,0.027-3.435C973.658,810.049,972.106,810.035,971.145,810.997"/>
<path fill="#F3F3F3" d="M1007.916,740.448c-1.012,1.012-1.034,2.715,0.031,3.781c1.061,1.061,2.774,1.047,3.785,0.036
	c1.057-1.057,1.07-2.769,0.009-3.83C1010.675,739.37,1008.972,739.393,1007.916,740.448"/>
<path fill="#F3F3F3" d="M1047.215,672.433c-1.25,1.25-1.187,3.228,0.036,4.451c1.236,1.236,3.205,1.29,4.455,0.04
	s1.223-3.245-0.013-4.482C1050.47,671.22,1048.465,671.183,1047.215,672.433"/>
<path fill="#F3F3F3" d="M1088.858,606.469c-1.344,1.344-1.286,3.516,0.036,4.837c1.344,1.344,3.48,1.367,4.823,0.022
	c1.367-1.366,1.394-3.551,0.05-4.895C1092.445,605.112,1090.224,605.103,1088.858,606.469"/>
<path fill="#F3F3F3" d="M1131.82,541.012c-1.488,1.488-1.465,3.911,0.013,5.39c1.488,1.488,3.902,1.501,5.39,0.013
	c1.488-1.487,1.474-3.902-0.013-5.389C1135.731,539.547,1133.308,539.524,1131.82,541.012"/>
<path fill="#F3F3F3" d="M1174.638,474.592c-1.632,1.632-1.605,4.248,0.041,5.894c1.631,1.631,4.248,1.658,5.879,0.026
	c1.654-1.654,1.677-4.319,0.045-5.951C1178.958,472.916,1176.292,472.938,1174.638,474.592"/>
<path fill="#F3F3F3" d="M1215.237,404.943c-1.875,1.875-1.883,4.985-0.013,6.855c1.874,1.875,4.98,1.862,6.855-0.013
	c1.87-1.869,1.861-4.953-0.013-6.828C1220.195,403.088,1217.107,403.075,1215.237,404.943"/>
<path fill="#F3F3F3" d="M1251.477,330.412c-2.014,2.015-2.019,5.282,0,7.301c2.027,2.026,5.309,2.037,7.323,0.021
	c2.04-2.04,2.027-5.316-0.001-7.344C1256.781,328.372,1253.518,328.372,1251.477,330.412"/>
<path fill="#F3F3F3" d="M1280.717,248.64c-2.208,2.207-2.171,5.805,0.049,8.024c2.207,2.207,5.763,2.203,7.971-0.004
	c2.233-2.234,2.283-5.835,0.076-8.042C1286.592,246.397,1282.951,246.406,1280.717,248.64"/>
<path fill="#F3F3F3" d="M1305.759,162.57c-2.473,2.474-2.498,6.438-0.026,8.91c2.45,2.449,6.415,2.423,8.887-0.05
	c2.423-2.423,2.45-6.387,0-8.838C1312.148,160.122,1308.183,160.147,1305.759,162.57"/>
<path fill="#F3F3F3" d="M1327.066,72.96c-2.711,2.712-2.701,7.145,0.015,9.858c2.724,2.725,7.155,2.734,9.866,0.023
	c2.737-2.737,2.724-7.165,0-9.891C1334.231,70.236,1329.803,70.224,1327.066,72.96"/>
<path fill="#F3F3F3" d="M989.885,1169.019c-0.674,0.675-0.687,1.812,0.036,2.535c0.67,0.67,1.834,0.685,2.508,0.009
	c0.72-0.719,0.706-1.883,0.037-2.553C991.741,1168.285,990.604,1168.3,989.885,1169.019"/>
<path fill="#F3F3F3" d="M1018.55,1087.823c-0.818,0.818-0.818,2.158,0,2.976c0.841,0.841,2.18,0.842,2.999,0.023
	c0.84-0.841,0.844-2.185,0.004-3.025C1020.735,1086.979,1019.39,1086.983,1018.55,1087.823"/>
<path fill="#F3F3F3" d="M1048.031,1007.492c-0.913,0.912-0.89,2.373,0.014,3.277c0.912,0.912,2.364,0.926,3.277,0.014
	c0.89-0.891,0.926-2.393,0.013-3.305C1050.431,1006.574,1048.921,1006.602,1048.031,1007.492"/>
<path fill="#F3F3F3" d="M1078.953,928.746c-1.007,1.007-1.034,2.66-0.045,3.65c0.98,0.979,2.652,0.971,3.659-0.037
	c0.962-0.961,0.944-2.606-0.036-3.586C1081.542,927.783,1079.915,927.783,1078.953,928.746"/>
<path fill="#F3F3F3" d="M1111.773,852.134c-1.079,1.079-1.079,2.859,0,3.938c1.092,1.092,2.846,1.065,3.925-0.013
	c1.105-1.106,1.105-2.832,0.013-3.925C1114.632,851.056,1112.879,851.029,1111.773,852.134"/>
<path fill="#F3F3F3" d="M1146.584,777.469c-1.25,1.25-1.258,3.398,0.014,4.671c1.285,1.285,3.393,1.236,4.643-0.014
	c1.299-1.299,1.277-3.335-0.009-4.621C1149.96,776.233,1147.883,776.17,1146.584,777.469"/>
<path fill="#F3F3F3" d="M1183.581,704.844c-1.394,1.394-1.366,3.624,0.027,5.017c1.393,1.394,3.632,1.429,5.026,0.036
	c1.393-1.394,1.384-3.659-0.009-5.053C1187.231,703.452,1184.975,703.451,1183.581,704.844"/>
<path fill="#F3F3F3" d="M1221.936,633.238c-1.538,1.538-1.524,4.05,0.009,5.583c1.537,1.538,4.036,1.538,5.574,0
	c1.537-1.537,1.533-4.032-0.005-5.569C1225.98,631.72,1223.473,631.702,1221.936,633.238"/>
<path fill="#F3F3F3" d="M1260.719,561.539c-1.681,1.681-1.645,4.405,0.022,6.073c1.66,1.659,4.347,1.658,6.029-0.023
	c1.681-1.681,1.703-4.391,0.045-6.05C1265.147,559.871,1262.4,559.858,1260.719,561.539"/>
<path fill="#F3F3F3" d="M1298.076,487.979c-1.896,1.897-1.919,5.04-0.021,6.937c1.933,1.932,5.088,1.923,6.984,0.026
	c1.92-1.919,1.906-5.052-0.026-6.985C1303.115,486.06,1299.996,486.06,1298.076,487.979"/>
<path fill="#F3F3F3" d="M1332.263,410.911c-2.113,2.112-2.113,5.477-0.014,7.574c2.1,2.101,5.462,2.101,7.574-0.013
	c2.09-2.09,2.113-5.475,0.014-7.575C1337.738,408.8,1334.353,408.821,1332.263,410.911"/>
<path fill="#F3F3F3" d="M1360.858,328.298c-2.284,2.283-2.271,5.992,0.022,8.285c2.257,2.256,5.951,2.256,8.235-0.026
	c2.256-2.257,2.306-6.001,0.049-8.259C1366.873,326.005,1363.115,326.041,1360.858,328.298"/>
<path fill="#F3F3F3" d="M1386.138,242.471c-2.473,2.474-2.472,6.41,0,8.884c2.45,2.448,6.388,2.448,8.86-0.023
	c2.449-2.45,2.449-6.387,0-8.838C1392.526,240.022,1388.588,240.021,1386.138,242.471"/>
<path fill="#F3F3F3" d="M1408.262,153.628c-2.81,2.811-2.818,7.358-0.009,10.169c2.796,2.796,7.341,2.781,10.15-0.027
	c2.81-2.81,2.801-7.331,0.004-10.127C1415.598,150.832,1411.072,150.818,1408.262,153.628"/>
<path fill="#F3F3F3" d="M1427.205,61.748c-3.052,3.054-3.033,7.962-0.014,10.982c3.048,3.047,7.944,3.052,10.996,0
	c3.025-3.025,3.047-7.948-0.001-10.996C1435.166,58.715,1430.23,58.724,1427.205,61.748"/>
<path fill="#F3F3F3" d="M1161.254,1126.955c-0.962,0.963-0.962,2.5-0.014,3.449c0.935,0.935,2.473,0.935,3.435-0.027
	c0.912-0.912,0.912-2.45-0.023-3.385C1163.705,1126.044,1162.167,1126.044,1161.254,1126.955"/>
<path fill="#F3F3F3" d="M1189.811,1044.932c-1.007,1.008-1.007,2.688,0.014,3.708c1.034,1.035,2.715,1.035,3.722,0.028
	c1.078-1.079,1.056-2.738,0.022-3.771C1192.548,1043.876,1190.89,1043.854,1189.811,1044.932"/>
<path fill="#F3F3F3" d="M1219.354,963.748c-1.128,1.128-1.128,2.953,0,4.082c1.115,1.113,2.94,1.113,4.068-0.014
	c1.106-1.106,1.101-2.927-0.013-4.041C1222.28,962.646,1220.459,962.642,1219.354,963.748"/>
<path fill="#F3F3F3" d="M1250.121,883.789c-1.344,1.344-1.357,3.488-0.036,4.81c1.322,1.321,3.479,1.321,4.823-0.023
	c1.322-1.321,1.322-3.479,0-4.801C1253.587,882.454,1251.442,882.467,1250.121,883.789"/>
<path fill="#F3F3F3" d="M1282.579,805.474c-1.443,1.443-1.416,3.772,0.009,5.197c1.443,1.443,3.771,1.47,5.215,0.027
	c1.443-1.443,1.438-3.794-0.005-5.237C1286.373,804.036,1284.022,804.031,1282.579,805.474"/>
<path fill="#F3F3F3" d="M1316.406,728.289c-1.561,1.56-1.524,4.095,0.036,5.655c1.537,1.537,4.059,1.56,5.619,0
	c1.587-1.587,1.56-4.104,0.022-5.641C1320.524,726.743,1317.993,726.702,1316.406,728.289"/>
<path fill="#F3F3F3" d="M1350.835,651.463c-1.727,1.726-1.717,4.522-0.009,6.23c1.726,1.727,4.521,1.735,6.248,0.009
	c1.753-1.753,1.743-4.549,0.018-6.275C1355.384,649.72,1352.588,649.71,1350.835,651.463"/>
<path fill="#F3F3F3" d="M1384.542,573.675c-1.969,1.969-1.982,5.219-0.013,7.188c1.969,1.969,5.223,1.96,7.191-0.009
	c1.97-1.969,1.929-5.174-0.04-7.143C1389.712,571.742,1386.511,571.706,1384.542,573.675"/>
<path fill="#F3F3F3" d="M1416.148,493.788c-2.135,2.135-2.126,5.606,0,7.732c2.135,2.135,5.597,2.135,7.732,0
	c2.161-2.162,2.135-5.596,0-7.732C1421.753,491.662,1418.31,491.626,1416.148,493.788"/>
<path fill="#F3F3F3" d="M1443.506,409.844c-2.284,2.284-2.271,6.037,0.036,8.345c2.279,2.278,6.033,2.292,8.315,0.009
	c2.279-2.28,2.293-6.06,0.015-8.339C1449.566,407.552,1445.786,407.566,1443.506,409.844"/>
<path fill="#F3F3F3" d="M1468.006,323.184c-2.571,2.571-2.531,6.641,0,9.172c2.5,2.499,6.563,2.534,9.134-0.036
	c2.495-2.495,2.486-6.586-0.013-9.085C1474.596,320.703,1470.501,320.689,1468.006,323.184"/>
<path fill="#F3F3F3" d="M1490.009,234.319c-2.832,2.832-2.823,7.453,0.014,10.29c2.877,2.876,7.467,2.854,10.298,0.022
	c2.859-2.859,2.878-7.444,0-10.321C1497.485,231.474,1492.869,231.462,1490.009,234.319"/>
<path fill="#F3F3F3" d="M1509.637,143.221c-3.025,3.025-3.025,7.972,0.009,11.006c3.038,3.038,7.961,3.016,10.986-0.01
	c3.025-3.024,3.048-7.947,0.009-10.985C1517.607,140.197,1512.662,140.196,1509.637,143.221"/>
<path fill="#F3F3F3" d="M1525.962,48.917c-3.336,3.336-3.313,8.734-0.022,12.024c3.326,3.327,8.716,3.34,12.051,0.004
	c3.313-3.312,3.277-8.679-0.05-12.006C1534.651,45.648,1529.275,45.604,1525.962,48.917"/>
<path fill="#F3F3F3" d="M1181.661,1481.459c-0.674,0.674-0.696,1.803,0,2.5c0.674,0.674,1.798,0.647,2.473-0.027
	c0.67-0.67,0.701-1.797,0.027-2.473C1183.463,1480.764,1182.331,1480.79,1181.661,1481.459"/>
<path fill="#F3F3F3" d="M1215.679,1404.514c-0.719,0.719-0.764,1.969-0.022,2.71c0.769,0.769,2.018,0.724,2.737,0.005
	c0.769-0.77,0.769-1.973,0-2.742C1217.653,1403.744,1216.448,1403.744,1215.679,1404.514"/>
<path fill="#F3F3F3" d="M1246.471,1324.243c-0.863,0.863-0.89,2.284,0.009,3.183c0.863,0.863,2.31,0.863,3.174,0
	c0.912-0.912,0.858-2.305-0.005-3.168C1248.75,1323.358,1247.383,1323.33,1246.471,1324.243"/>
<path fill="#F3F3F3" d="M1275.269,1241.835c-0.962,0.962-0.958,2.495,0.004,3.457c0.936,0.935,2.491,0.962,3.453,0
	s0.939-2.521,0.004-3.457C1277.768,1240.874,1276.231,1240.873,1275.269,1241.835"/>
<path fill="#F3F3F3" d="M1302.831,1158.239c-1.056,1.058-1.079,2.761-0.022,3.817c1.043,1.043,2.746,1.02,3.804-0.036
	c1.007-1.007,1.056-2.737,0.013-3.781C1305.569,1157.184,1303.837,1157.232,1302.831,1158.239"/>
<path fill="#F3F3F3" d="M1330.054,1074.305c-1.178,1.179-1.178,3.049,0.014,4.24c1.151,1.15,3.057,1.187,4.234,0.008
	c1.178-1.178,1.142-3.082-0.009-4.233C1333.102,1073.129,1331.232,1073.127,1330.054,1074.305"/>
<path fill="#F3F3F3" d="M1357.665,990.66c-1.367,1.367-1.331,3.517-0.009,4.838c1.331,1.33,3.443,1.331,4.81-0.036
	c1.299-1.299,1.344-3.457,0.013-4.787C1361.158,989.354,1358.963,989.361,1357.665,990.66"/>
<path fill="#F3F3F3" d="M1386.126,907.869c-1.487,1.488-1.451,3.924,0.015,5.39c1.487,1.487,3.911,1.51,5.398,0.022
	c1.487-1.488,1.492-3.937,0.005-5.426C1390.079,906.39,1387.615,906.381,1386.126,907.869"/>
<path fill="#F3F3F3" d="M1415.741,825.988c-1.587,1.587-1.636,4.226-0.013,5.849c1.608,1.609,4.261,1.573,5.848-0.014
	c1.609-1.609,1.596-4.212-0.013-5.821C1419.94,824.379,1417.349,824.379,1415.741,825.988"/>
<path fill="#F3F3F3" d="M1445.932,744.638c-1.775,1.775-1.767,4.67,0.009,6.446c1.776,1.776,4.662,1.776,6.438,0
	c1.799-1.798,1.799-4.684,0.022-6.46C1450.625,742.849,1447.73,742.84,1445.932,744.638"/>
<path fill="#F3F3F3" d="M1475.976,662.997c-1.969,1.969-1.99,5.21,0.014,7.215c2.005,2.005,5.269,2.005,7.238,0.036
	c2.018-2.019,2.018-5.282,0.013-7.287S1477.995,660.979,1475.976,662.997"/>
<path fill="#F3F3F3" d="M1504.643,580.073c-2.185,2.185-2.171,5.75,0.027,7.948c2.18,2.18,5.735,2.184,7.92,0
	c2.207-2.207,2.207-5.767,0.027-7.948C1510.419,577.875,1506.85,577.867,1504.643,580.073"/>
<path fill="#F3F3F3" d="M1530.283,494.459c-2.351,2.351-2.342,6.208,0.022,8.573c2.378,2.378,6.222,2.373,8.573,0.022
	c2.423-2.423,2.427-6.266,0.049-8.644C1536.563,492.046,1532.707,492.037,1530.283,494.459"/>
<path fill="#F3F3F3" d="M1553.429,406.541c-2.571,2.571-2.616,6.798-0.027,9.387c2.621,2.621,6.841,2.57,9.413,0
	c2.566-2.567,2.621-6.792,0-9.413C1560.226,403.926,1555.995,403.975,1553.429,406.541"/>
<path fill="#F3F3F3" d="M1574.363,316.703c-2.955,2.954-2.927,7.684,0.026,10.637c2.904,2.903,7.642,2.939,10.595-0.015
	c2.932-2.931,2.896-7.668-0.009-10.571C1582.022,313.801,1577.293,313.772,1574.363,316.703"/>
<path fill="#F3F3F3" d="M1593.522,225.279c-3.12,3.12-3.138,8.2-0.027,11.312c3.098,3.096,8.177,3.079,11.297-0.041
	c3.074-3.075,3.11-8.172,0.014-11.269C1601.694,222.17,1596.597,222.206,1593.522,225.279"/>
<path fill="#F3F3F3" d="M1610.206,131.624c-3.335,3.336-3.335,8.713-0.032,12.017c3.323,3.322,8.712,3.335,12.048,0
	c3.313-3.314,3.3-8.703-0.022-12.025C1618.894,128.312,1613.519,128.312,1610.206,131.624"/>
<path fill="#F3F3F3" d="M1623.94,35.159c-3.601,3.602-3.614,9.449-0.027,13.036c3.614,3.614,9.44,3.578,13.041-0.021
	c3.578-3.578,3.61-9.4-0.005-13.015C1633.362,31.572,1627.518,31.582,1623.94,35.159"/>
<path fill="#F3F3F3" d="M1238.656,1649.422c-0.647,0.646-0.652,1.703,0,2.355c0.661,0.661,1.717,0.656,2.364,0.01
	c0.675-0.676,0.675-1.727,0.014-2.388C1240.382,1648.748,1239.33,1648.748,1238.656,1649.422"/>
<path fill="#F3F3F3" d="M1283.033,1581.97c-0.719,0.72-0.705,1.884,0.02,2.607c0.718,0.72,1.869,0.719,2.588,0
	c0.72-0.72,0.724-1.874,0.005-2.593C1284.921,1581.26,1283.752,1581.251,1283.033,1581.97"/>
<path fill="#F3F3F3" d="M1322.324,1509.094c-0.791,0.791-0.755,2.076,0.036,2.867c0.796,0.797,2.077,0.828,2.868,0.037
	s0.76-2.072-0.036-2.869C1324.401,1508.338,1323.115,1508.303,1322.324,1509.094"/>
<path fill="#F3F3F3" d="M1357.027,1431.729c-0.912,0.912-0.885,2.378,0,3.264c0.899,0.898,2.343,0.903,3.256-0.009
	c0.935-0.935,0.935-2.382,0.035-3.282C1359.432,1430.815,1357.962,1430.793,1357.027,1431.729"/>
<path fill="#F3F3F3" d="M1388.06,1350.881c-0.984,0.984-0.984,2.566,0,3.551c0.998,0.998,2.603,1.021,3.587,0.036
	c1.007-1.007,0.989-2.616-0.009-3.614C1390.654,1349.869,1389.067,1349.873,1388.06,1350.881"/>
<path fill="#F3F3F3" d="M1416.341,1267.523c-1.106,1.107-1.106,2.832,0.014,3.953c1.064,1.064,2.817,1.092,3.924-0.014
	c1.079-1.08,1.056-2.837-0.009-3.902C1419.151,1266.441,1417.419,1266.445,1416.341,1267.523"/>
<path fill="#F3F3F3" d="M1442.871,1182.654c-1.179,1.178-1.17,3.111,0.009,4.289c1.186,1.188,3.11,1.188,4.288,0.01
	c1.2-1.201,1.195-3.121,0.009-4.308C1445.998,1181.468,1444.07,1181.455,1442.871,1182.654"/>
<path fill="#F3F3F3" d="M1468.488,1096.92c-1.371,1.371-1.366,3.579,0.014,4.958c1.38,1.382,3.587,1.386,4.958,0.015
	c1.366-1.367,1.366-3.578-0.015-4.959C1472.065,1095.555,1469.854,1095.555,1468.488,1096.92"/>
<path fill="#F3F3F3" d="M1494.152,1011.283c-1.488,1.488-1.488,3.89,0.014,5.391c1.486,1.488,3.901,1.501,5.389,0.014
	c1.511-1.511,1.497-3.925,0.01-5.412C1498.062,1009.773,1495.663,1009.773,1494.152,1011.283"/>
<path fill="#F3F3F3" d="M1520.175,925.911c-1.632,1.632-1.632,4.275,0.015,5.921c1.653,1.653,4.31,1.668,5.941,0.035
	c1.659-1.658,1.668-4.338,0.015-5.992C1524.5,924.23,1521.834,924.252,1520.175,925.911"/>
<path fill="#F3F3F3" d="M1546.707,840.897c-1.804,1.803-1.825,4.711-0.014,6.523c1.812,1.811,4.715,1.784,6.518-0.018
	c1.799-1.798,1.803-4.68-0.009-6.491C1551.39,839.099,1548.504,839.099,1546.707,840.897"/>
<path fill="#F3F3F3" d="M1573.115,755.814c-2.063,2.063-2.041,5.403,0.009,7.453c2.077,2.077,5.394,2.077,7.458,0.013
	c2.09-2.09,2.086-5.403,0.009-7.48C1578.541,753.751,1575.205,753.725,1573.115,755.814"/>
<path fill="#F3F3F3" d="M1598.923,670.177c-2.257,2.257-2.279,5.929-0.009,8.199c2.265,2.266,5.938,2.243,8.194-0.013
	c2.256-2.257,2.279-5.929,0.014-8.195C1604.852,667.898,1601.179,667.921,1598.923,670.177"/>
<path fill="#F3F3F3" d="M1622.727,582.872c-2.45,2.45-2.437,6.347-0.009,8.774c2.408,2.41,6.334,2.451,8.783,0
	c2.423-2.422,2.388-6.351-0.022-8.76C1629.052,580.458,1625.15,580.449,1622.727,582.872"/>
<path fill="#F3F3F3" d="M1644.058,493.523c-2.567,2.566-2.571,6.797,0.036,9.404c2.58,2.58,6.783,2.549,9.35-0.018
	c2.593-2.594,2.621-6.792,0.041-9.372C1650.877,490.93,1646.652,490.93,1644.058,493.523"/>
<path fill="#F3F3F3" d="M1663.193,402.22c-2.977,2.977-2.977,7.732,0,10.708c2.931,2.932,7.723,2.968,10.698-0.01
	c2.953-2.953,2.917-7.744-0.014-10.676C1670.902,399.268,1666.146,399.268,1663.193,402.22"/>
<path fill="#F3F3F3" d="M1680.697,309.573c-3.196,3.195-3.22,8.406,0.009,11.635c3.205,3.205,8.429,3.194,11.625-0.001
	c3.241-3.24,3.227-8.442,0.021-11.647C1689.125,306.333,1683.937,306.333,1680.697,309.573"/>
<path fill="#F3F3F3" d="M1696.529,215.401c-3.407,3.407-3.42,8.924-0.013,12.33c3.406,3.407,8.931,3.403,12.339-0.005
	c3.385-3.385,3.412-8.931,0.005-12.339C1705.452,211.98,1699.914,212.017,1696.529,215.401"/>
<path fill="#F3F3F3" d="M1710.082,119.188c-3.649,3.65-3.677,9.63,0.019,13.324c3.677,3.678,9.67,3.663,13.319,0.015
	c3.718-3.719,3.709-9.688,0.031-13.364C1719.756,115.467,1713.8,115.471,1710.082,119.188"/>
<path fill="#F3F3F3" d="M1721.173,20.513c-4.037,4.037-4.037,10.521,0,14.557c4.032,4.032,10.537,4.054,14.573,0.017
	c4.032-4.03,4.06-10.586,0.027-14.618C1731.737,16.433,1725.206,16.482,1721.173,20.513"/>
<path fill="#F3F3F3" d="M1375.046,1671.678c-0.719,0.719-0.719,1.869,0,2.589c0.721,0.72,1.911,0.76,2.631,0.041
	c0.719-0.72,0.705-1.938-0.015-2.657C1376.944,1670.932,1375.766,1670.959,1375.046,1671.678"/>
<path fill="#F3F3F3" d="M1421.49,1604.18c-0.769,0.77-0.781,2.104-0.013,2.873c0.791,0.791,2.113,0.764,2.881-0.005
	c0.818-0.817,0.791-2.086,0-2.877C1423.59,1603.402,1422.308,1603.361,1421.49,1604.18"/>
<path fill="#F3F3F3" d="M1462.039,1530.93c-0.958,0.958-0.936,2.428,0,3.363c0.949,0.947,2.414,0.966,3.372,0.009
	c0.912-0.913,0.938-2.423-0.009-3.372C1464.466,1529.995,1462.952,1530.018,1462.039,1530.93"/>
<path fill="#F3F3F3" d="M1497.429,1453.094c-1.08,1.08-1.058,2.738-0.015,3.781c1.035,1.033,2.671,1.033,3.75-0.045
	c1.007-1.007,1.029-2.666-0.005-3.699C1500.117,1452.088,1498.436,1452.088,1497.429,1453.094"/>
<path fill="#F3F3F3" d="M1528.484,1371.648c-1.151,1.151-1.155,2.926-0.027,4.055c1.143,1.142,2.944,1.164,4.096,0.014
	c1.105-1.105,1.105-2.932-0.036-4.072C1531.388,1370.516,1529.589,1370.543,1528.484,1371.648"/>
<path fill="#F3F3F3" d="M1556.166,1287.449c-1.2,1.201-1.2,3.215,0.036,4.451c1.227,1.228,3.228,1.213,4.428,0.014
	c1.249-1.25,1.236-3.223,0.009-4.45C1559.403,1286.229,1557.416,1286.199,1556.166,1287.449"/>
<path fill="#F3F3F3" d="M1581.494,1201.332c-1.395,1.395-1.393,3.695,0.023,5.111c1.429,1.43,3.743,1.443,5.138,0.051
	c1.438-1.439,1.429-3.758,0-5.188C1585.239,1199.891,1582.931,1199.895,1581.494,1201.332"/>
<path fill="#F3F3F3" d="M1605.694,1114.328c-1.538,1.538-1.538,4.037-0.004,5.57c1.537,1.537,4.049,1.551,5.587,0.013
	c1.537-1.536,1.523-4.05-0.014-5.587C1609.731,1112.791,1607.231,1112.791,1605.694,1114.328"/>
<path fill="#F3F3F3" d="M1629.388,1026.914c-1.653,1.654-1.641,4.356,0.05,6.047c1.637,1.637,4.324,1.635,5.979-0.019
	c1.681-1.681,1.681-4.369,0.045-6.006C1633.772,1025.246,1631.07,1025.233,1629.388,1026.914"/>
<path fill="#F3F3F3" d="M1652.941,939.403c-1.824,1.825-1.824,4.855,0.031,6.712c1.861,1.86,4.865,1.834,6.689,0.01
	c1.896-1.897,1.896-4.873,0.036-6.735C1657.841,937.533,1654.838,937.506,1652.941,939.403"/>
<path fill="#F3F3F3" d="M1676.432,851.786c-2.063,2.063-2.099,5.534,0.014,7.646c2.1,2.1,5.557,2.05,7.619-0.013
	c2.113-2.113,2.117-5.525,0.019-7.624C1681.97,849.683,1678.545,849.673,1676.432,851.786"/>
<path fill="#F3F3F3" d="M1699.709,764c-2.306,2.306-2.292,5.97-0.004,8.258c2.283,2.284,5.956,2.306,8.262,0
	c2.284-2.284,2.284-5.979,0-8.262C1705.679,761.708,1701.994,761.716,1699.709,764"/>
<path fill="#F3F3F3" d="M1721.545,675.111c-2.495,2.495-2.508,6.563-0.036,9.036c2.486,2.485,6.554,2.472,9.049-0.023
	c2.473-2.472,2.486-6.54,0-9.026C1728.086,672.626,1724.018,672.639,1721.545,675.111"/>
<path fill="#F3F3F3" d="M1740.811,584.226c-2.666,2.666-2.666,6.99,0,9.656s6.986,2.661,9.651-0.005
	c2.688-2.688,2.67-6.985,0.005-9.651C1747.801,581.56,1743.5,581.538,1740.811,584.226"/>
<path fill="#F3F3F3" d="M1757.605,491.255c-3.004,3.002-3.013,7.885-0.01,10.887c3.012,3.012,7.894,3.003,10.896,0
	c3.025-3.025,3.012-7.885,0-10.896C1765.489,488.243,1760.629,488.23,1757.605,491.255"/>
<path fill="#F3F3F3" d="M1772.958,397.083c-3.241,3.241-3.232,8.438,0,11.671c3.191,3.19,8.4,3.214,11.643-0.027
	c3.191-3.192,3.169-8.402-0.023-11.593C1781.346,393.9,1776.149,393.893,1772.958,397.083"/>
<path fill="#F3F3F3" d="M1786.656,301.494c-3.484,3.484-3.493,9.186-0.015,12.663c3.507,3.508,9.193,3.484,12.677,0
	c3.506-3.506,3.506-9.17,0-12.676C1795.839,298.003,1790.162,297.988,1786.656,301.494"/>
<path fill="#F3F3F3" d="M1799.031,204.632c-3.722,3.724-3.722,9.772-0.013,13.481c3.708,3.709,9.75,3.7,13.472-0.021
	c3.695-3.695,3.704-9.736-0.004-13.445C1808.777,200.938,1802.726,200.938,1799.031,204.632"/>
<path fill="#F3F3F3" d="M1809.425,105.888c-4.104,4.104-4.104,10.73,0.027,14.861c4.104,4.105,10.753,4.127,14.856,0.023
	c4.104-4.104,4.086-10.757-0.018-14.861C1820.161,101.781,1813.529,101.784,1809.425,105.888"/>
<path fill="#F3F3F3" d="M1510.369,1688.928c-0.817,0.818-0.812,2.162,0.015,2.988c0.84,0.842,2.18,0.842,2.998,0.023
	c0.817-0.818,0.841-2.18,0-3.021C1512.554,1688.092,1511.187,1688.109,1510.369,1688.928"/>
<path fill="#F3F3F3" d="M1558.757,1621.211c-0.962,0.963-0.962,2.5-0.014,3.449c0.958,0.957,2.509,0.971,3.471,0.008
	c0.963-0.961,0.972-2.534,0.014-3.492C1561.28,1620.228,1559.72,1620.25,1558.757,1621.211"/>
<path fill="#F3F3F3" d="M1600.725,1547.796c-1.034,1.034-1.056,2.738-0.027,3.767c1.048,1.049,2.774,1.048,3.809,0.015
	c1.032-1.034,1.032-2.76-0.015-3.808C1603.463,1546.74,1601.759,1546.762,1600.725,1547.796"/>
<path fill="#F3F3F3" d="M1636.76,1469.504c-1.178,1.179-1.15,3.076,0.014,4.24c1.151,1.15,3.057,1.187,4.234,0.008
	c1.151-1.15,1.119-3.061-0.031-4.211C1639.813,1468.377,1637.912,1468.354,1636.76,1469.504"/>
<path fill="#F3F3F3" d="M1667.899,1387.517c-1.299,1.3-1.294,3.362-0.022,4.634c1.272,1.273,3.336,1.277,4.635-0.021
	c1.25-1.25,1.271-3.34,0-4.612C1671.239,1386.244,1669.149,1386.267,1667.899,1387.517"/>
<path fill="#F3F3F3" d="M1695.052,1302.599c-1.416,1.416-1.416,3.772,0,5.188c1.438,1.438,3.78,1.425,5.196,0.009
	c1.439-1.438,1.452-3.78,0.015-5.22C1698.847,1301.16,1696.491,1301.16,1695.052,1302.599"/>
<path fill="#F3F3F3" d="M1719.529,1215.727c-1.582,1.582-1.563,4.153,0.036,5.754c1.582,1.582,4.153,1.6,5.736,0.019
	c1.587-1.587,1.586-4.177,0.004-5.759C1723.706,1214.14,1721.115,1214.14,1719.529,1215.727"/>
<path fill="#F3F3F3" d="M1742.421,1127.7c-1.703,1.704-1.707,4.486,0.01,6.204c1.703,1.703,4.504,1.717,6.208,0.014
	c1.726-1.727,1.712-4.527,0.009-6.23C1746.93,1125.971,1744.148,1125.975,1742.421,1127.7"/>
<path fill="#F3F3F3" d="M1764.35,1038.954c-1.897,1.897-1.897,4.972,0.014,6.882c1.87,1.871,4.944,1.871,6.841-0.026
	c1.875-1.875,1.897-4.972,0.027-6.841C1769.322,1037.057,1766.225,1037.079,1764.35,1038.954"/>
<path fill="#F3F3F3" d="M1785.802,949.871c-2.135,2.136-2.14,5.593-0.027,7.705c2.127,2.127,5.602,2.141,7.736,0.005
	c2.113-2.112,2.1-5.587-0.026-7.714C1791.373,947.755,1787.916,947.759,1785.802,949.871"/>
<path fill="#F3F3F3" d="M1806.955,860.537c-2.352,2.351-2.343,6.208-0.005,8.545c2.355,2.356,6.177,2.329,8.527-0.022
	c2.351-2.351,2.351-6.145-0.004-8.501C1813.135,858.222,1809.305,858.187,1806.955,860.537"/>
<path fill="#F3F3F3" d="M1827.335,770.674c-2.544,2.544-2.557,6.613-0.021,9.148c2.495,2.495,6.59,2.508,9.134-0.036
	c2.499-2.499,2.459-6.568-0.036-9.062C1833.876,768.189,1829.835,768.175,1827.335,770.674"/>
<path fill="#F3F3F3" d="M1844.407,678.41c-2.738,2.738-2.702,7.188,0.027,9.917c2.737,2.737,7.159,2.746,9.897,0.008
	c2.76-2.759,2.756-7.187,0.019-9.925C1851.622,675.682,1847.167,675.65,1844.407,678.41"/>
<path fill="#F3F3F3" d="M1858.572,583.771c-3.097,3.097-3.102,8.091-0.014,11.18c3.084,3.083,8.083,3.083,11.18-0.014
	c3.075-3.075,3.07-8.069-0.014-11.152C1866.636,580.696,1861.647,580.696,1858.572,583.771"/>
<path fill="#F3F3F3" d="M1870.983,487.859c-3.286,3.286-3.286,8.617,0.004,11.908c3.287,3.286,8.631,3.3,11.917,0.013
	c3.312-3.313,3.277-8.635-0.009-11.921C1879.605,484.569,1874.296,484.546,1870.983,487.859"/>
<path fill="#F3F3F3" d="M1882.077,390.722c-3.479,3.479-3.47,9.107,0.027,12.604c3.487,3.489,9.147,3.529,12.627,0.049
	c3.506-3.506,3.466-9.165-0.023-12.653C1891.21,387.226,1885.583,387.215,1882.077,390.722"/>
<path fill="#F3F3F3" d="M1891.942,292.359c-3.767,3.768-3.78,9.903,0,13.685c3.758,3.757,9.894,3.744,13.661-0.023
	c3.771-3.771,3.779-9.902,0.022-13.661C1901.845,288.58,1895.712,288.589,1891.942,292.359"/>
<path fill="#F3F3F3" d="M1900.513,192.652c-4.176,4.177-4.227,10.995,0,15.222c4.189,4.188,11.045,4.176,15.221,0
	c4.203-4.203,4.189-11.032,0-15.222C1911.508,188.427,1904.716,188.45,1900.513,192.652"/>
<path fill="#F3F3F3" d="M1908.281,91.998c-4.441,4.441-4.45,11.635,0,16.085c4.433,4.433,11.655,4.454,16.098,0.014
	c4.44-4.441,4.418-11.665-0.014-16.097C1919.915,87.55,1912.721,87.559,1908.281,91.998"/>
<path fill="#F3F3F3" d="M1644.382,1701.701c-0.963,0.962-0.972,2.625,0.014,3.609c0.983,0.984,2.615,0.944,3.578-0.018
	c1.011-1.012,0.979-2.57-0.006-3.557C1646.985,1700.753,1645.394,1700.689,1644.382,1701.701"/>
<path fill="#F3F3F3" d="M1695.003,1633.913c-1.078,1.079-1.092,2.847-0.013,3.925c1.092,1.092,2.845,1.065,3.924-0.014
	c1.057-1.056,1.083-2.809-0.009-3.902C1697.827,1632.844,1696.06,1632.857,1695.003,1633.913"/>
<path fill="#F3F3F3" d="M1738.436,1560.279c-1.178,1.178-1.191,3.088-0.014,4.266c1.165,1.164,3.061,1.138,4.239-0.041
	c1.15-1.149,1.178-3.047,0.014-4.211C1741.497,1559.115,1739.585,1559.129,1738.436,1560.279"/>
<path fill="#F3F3F3" d="M1775.324,1481.736c-1.322,1.321-1.321,3.434-0.014,4.742c1.3,1.301,3.407,1.295,4.729-0.027
	c1.295-1.293,1.3-3.402,0-4.701C1778.731,1480.441,1776.618,1480.441,1775.324,1481.736"/>
<path fill="#F3F3F3" d="M1806.595,1399.305c-1.467,1.466-1.466,3.867,0.021,5.354c1.475,1.474,3.889,1.488,5.354,0.022
	c1.488-1.488,1.476-3.901,0-5.377C1810.483,1397.817,1808.083,1397.817,1806.595,1399.305"/>
<path fill="#F3F3F3" d="M1833.604,1314.004c-1.632,1.633-1.609,4.297,0.036,5.943c1.631,1.632,4.311,1.667,5.942,0.035
	c1.658-1.658,1.618-4.332-0.014-5.965C1837.924,1312.372,1835.262,1312.346,1833.604,1314.004"/>
<path fill="#F3F3F3" d="M1857.623,1226.721c-1.803,1.803-1.789,4.648-0.014,6.424c1.776,1.776,4.621,1.789,6.424-0.014
	c1.776-1.775,1.789-4.648,0.014-6.423C1862.271,1224.932,1859.398,1224.945,1857.623,1226.721"/>
<path fill="#F3F3F3" d="M1879.602,1138.119c-1.919,1.92-1.919,4.994,0.014,6.928c1.906,1.906,4.98,1.906,6.9-0.014
	c1.874-1.875,1.919-4.994,0.013-6.899C1884.597,1136.201,1881.477,1136.244,1879.602,1138.119"/>
<path fill="#F3F3F3" d="M1900.177,1048.544c-2.186,2.185-2.171,5.75,0,7.921c2.185,2.185,5.75,2.198,7.934,0.014
	c2.207-2.207,2.172-5.75-0.013-7.935C1905.927,1046.373,1902.384,1046.338,1900.177,1048.544"/>
<path fill="#F3F3F3" d="M1920.404,958.767c-2.352,2.351-2.364,6.187-0.036,8.515c2.364,2.363,6.193,2.346,8.545-0.006
	c2.351-2.35,2.343-6.152-0.022-8.518C1926.562,956.43,1922.754,956.416,1920.404,958.767"/>
<path fill="#F3F3F3" d="M1939.743,868.341c-2.616,2.616-2.616,6.743-0.045,9.314c2.589,2.589,6.72,2.594,9.337-0.022
	c2.544-2.544,2.544-6.68-0.045-9.27C1946.417,865.793,1942.287,865.797,1939.743,868.341"/>
<path fill="#F3F3F3" d="M1954.976,775.2c-2.787,2.787-2.822,7.408-0.013,10.218c2.818,2.818,7.439,2.782,10.226-0.005
	c2.859-2.859,2.823-7.407,0.006-10.226C1962.384,772.377,1957.835,772.341,1954.976,775.2"/>
<path fill="#F3F3F3" d="M1966.5,679.31c-3.119,3.12-3.133,8.195-0.021,11.306c3.133,3.133,8.177,3.088,11.296-0.032
	c3.098-3.097,3.12-8.118-0.013-11.252C1974.65,676.222,1969.597,676.213,1966.5,679.31"/>
<path fill="#F3F3F3" d="M1975.623,581.646c-3.385,3.385-3.398,8.847-0.022,12.223c3.395,3.394,8.847,3.371,12.231-0.014
	c3.362-3.362,3.408-8.837,0.014-12.231C1984.469,578.248,1978.985,578.284,1975.623,581.646"/>
<path fill="#F3F3F3" d="M1983.292,482.673c-3.601,3.601-3.601,9.409-0.021,12.987c3.6,3.6,9.386,3.578,12.986-0.023
	c3.578-3.578,3.578-9.34-0.022-12.942C1992.657,479.118,1986.871,479.095,1983.292,482.673"/>
<path fill="#F3F3F3" d="M1989.873,382.606c-3.843,3.845-3.866,10.105,0,13.973c3.88,3.879,10.15,3.865,13.994,0.021
	c3.915-3.915,3.906-10.164,0.027-14.043C2000.028,378.692,1993.789,378.692,1989.873,382.606"/>
<path fill="#F3F3F3" d="M1995.743,281.495c-4.248,4.248-4.239,11.081,0,15.319c4.235,4.236,11.094,4.271,15.342,0.023
	c4.226-4.226,4.235-11.13,0-15.364C2006.846,277.234,1999.968,277.27,1995.743,281.495"/>
<path fill="#F3F3F3" d="M2001.325,179.809c-4.491,4.491-4.486,11.741,0,16.229c4.477,4.477,11.714,4.468,16.205-0.023
	c4.464-4.464,4.5-11.727,0.022-16.205C2013.066,175.323,2005.788,175.345,2001.325,179.809"/>
<path fill="#F3F3F3" d="M2006.271,77.197c-4.707,4.707-4.707,12.438,0,17.146c4.75,4.751,12.47,4.738,17.176,0.032
	c4.778-4.779,4.742-12.448-0.01-17.199C2018.732,72.469,2011.048,72.42,2006.271,77.197"/>
<path fill="#F3F3F3" d="M1830.121,1642.746c-1.25,1.25-1.194,3.22,0.015,4.429c1.235,1.235,3.178,1.263,4.427,0.013
	c1.201-1.199,1.223-3.191-0.013-4.427C1833.34,1641.551,1831.322,1641.547,1830.121,1642.746"/>
<path fill="#F3F3F3" d="M1875.281,1569.018c-1.322,1.322-1.309,3.494-0.01,4.793c1.331,1.33,3.488,1.33,4.811,0.009
	c1.321-1.322,1.299-3.457-0.031-4.787C1878.75,1567.732,1876.602,1567.697,1875.281,1569.018"/>
<path fill="#F3F3F3" d="M1913.176,1490.234c-1.537,1.537-1.537,4.037,0.009,5.584c1.537,1.537,4.014,1.515,5.552-0.022
	c1.561-1.56,1.561-4.015,0.022-5.552C1917.213,1488.697,1914.736,1488.676,1913.176,1490.234"/>
<path fill="#F3F3F3" d="M1945.265,1407.852c-1.632,1.632-1.631,4.32,0.036,5.988c1.668,1.666,4.36,1.672,5.992,0.039
	c1.681-1.681,1.699-4.396,0.031-6.063S1946.946,1406.17,1945.265,1407.852"/>
<path fill="#F3F3F3" d="M1972.611,1322.455c-1.825,1.824-1.871,4.801-0.036,6.635c1.839,1.838,4.837,1.816,6.661-0.009
	c1.825-1.825,1.804-4.778-0.035-6.617C1977.367,1320.63,1974.435,1320.63,1972.611,1322.455"/>
<path fill="#F3F3F3" d="M1996.57,1235.113c-1.992,1.991-1.969,5.188,0,7.156c1.978,1.979,5.165,1.991,7.156,0
	c1.969-1.969,1.955-5.156-0.022-7.134C2001.735,1233.168,1998.539,1233.145,1996.57,1235.113"/>
<path fill="#F3F3F3" d="M2018.06,1146.211c-2.258,2.256-2.258,5.906,0.021,8.186c2.257,2.256,5.907,2.256,8.164,0
	c2.256-2.257,2.279-5.929,0.021-8.186C2023.989,1143.932,2020.316,1143.953,2018.06,1146.211"/>
<path fill="#F3F3F3" d="M2038.546,1056.743c-2.472,2.474-2.408,6.375-0.009,8.775c2.423,2.423,6.302,2.463,8.775-0.009
	c2.401-2.401,2.387-6.307-0.036-8.73C2044.876,1054.379,2040.947,1054.344,2038.546,1056.743"/>
<path fill="#F3F3F3" d="M2057.828,966.593c-2.644,2.644-2.63,6.927-0.014,9.544c2.652,2.651,6.936,2.666,9.579,0.022
	c2.639-2.64,2.63-6.927-0.022-9.579C2064.753,963.964,2060.466,963.954,2057.828,966.593"/>
<path fill="#F3F3F3" d="M2072.099,873.356c-2.832,2.832-2.818,7.358,0.004,10.182c2.807,2.805,7.354,2.84,10.187,0.008
	c2.81-2.809,2.823-7.407,0.018-10.212C2079.484,870.512,2074.91,870.547,2072.099,873.356"/>
<path fill="#F3F3F3" d="M2081.054,776.579c-3.191,3.192-3.178,8.393,0.027,11.598c3.169,3.169,8.379,3.192,11.571,0
	c3.214-3.214,3.169-8.401,0-11.571C2089.448,773.401,2084.269,773.365,2081.054,776.579"/>
<path fill="#F3F3F3" d="M2087.058,677.763c-3.436,3.434-3.436,8.91-0.014,12.331c3.398,3.398,8.905,3.429,12.34-0.005
	c3.406-3.408,3.397-8.936,0-12.335C2095.962,674.333,2090.465,674.356,2087.058,677.763"/>
<path fill="#F3F3F3" d="M2090.85,577.121c-3.646,3.646-3.687,9.611,0,13.297c3.664,3.663,9.655,3.65,13.302,0.004
	c3.699-3.699,3.663-9.642-0.001-13.305C2100.465,573.431,2094.55,573.421,2090.85,577.121"/>
<path fill="#F3F3F3" d="M2093.695,475.337c-3.889,3.889-3.93,10.24-0.036,14.133c3.911,3.911,10.253,3.862,14.142-0.027
	c3.916-3.915,3.911-10.204,0-14.114C2103.908,471.436,2097.61,471.422,2093.695,475.337"/>
<path fill="#F3F3F3" d="M2095.808,372.438c-4.324,4.324-4.333,11.274-0.022,15.586c4.307,4.307,11.278,4.318,15.604-0.006
	c4.297-4.297,4.282-11.269-0.023-15.574C2107.055,368.131,2100.105,368.14,2095.808,372.438"/>
<path fill="#F3F3F3" d="M2098.162,269.204c-4.562,4.562-4.599,11.972-0.041,16.528c4.563,4.564,11.985,4.541,16.547-0.021
	c4.537-4.535,4.559-11.957-0.004-16.521C2110.106,264.633,2102.698,264.669,2098.162,269.204"/>
<path fill="#F3F3F3" d="M2100.574,165.501c-4.801,4.802-4.8,12.532,0.027,17.36c4.81,4.811,12.576,4.846,17.379,0.045
	c4.826-4.828,4.813-12.618,0.004-17.427C2113.157,160.65,2105.402,160.674,2100.574,165.501"/>
<path fill="#F3F3F3" d="M2103.023,61.112c-5.115,5.116-5.089,13.298,0,18.387c5.079,5.08,13.273,5.12,18.39,0.004
	c5.065-5.066,5.08-13.315,0-18.395C2116.324,56.02,2108.088,56.048,2103.023,61.112"/>
<path fill="#F3F3F3" d="M1964.136,1648.221c-1.345,1.345-1.345,3.557,0.021,4.923c1.345,1.345,3.564,1.353,4.909,0.01
	c1.344-1.345,1.335-3.565-0.009-4.909C1967.692,1646.877,1965.48,1646.877,1964.136,1648.221"/>
<path fill="#F3F3F3" d="M2011.264,1574.347c-1.538,1.538-1.56,4.06,0,5.619c1.551,1.552,4.104,1.56,5.641,0.022
	c1.561-1.56,1.528-4.09-0.021-5.642C2015.323,1572.787,2012.824,1572.787,2011.264,1574.347"/>
<path fill="#F3F3F3" d="M2050.902,1495.77c-1.728,1.727-1.723,4.527-0.006,6.244c1.709,1.708,4.496,1.699,6.223-0.027
	c1.703-1.703,1.707-4.485,0-6.194C2055.402,1494.076,2052.605,1494.066,2050.902,1495.77"/>
<path fill="#F3F3F3" d="M2084.224,1413.563c-1.824,1.825-1.824,4.802,0.036,6.662c1.825,1.825,4.815,1.838,6.64,0.015
	c1.869-1.871,1.884-4.887,0.059-6.713C2089.097,1411.668,2086.094,1411.693,2084.224,1413.563"/>
<path fill="#F3F3F3" d="M2112.482,1328.41c-2.041,2.041-2.041,5.349-0.009,7.381c2.05,2.05,5.336,2.027,7.377-0.014
	c2.019-2.019,2.04-5.305-0.01-7.354C2117.809,1326.393,2114.5,1326.393,2112.482,1328.41"/>
<path fill="#F3F3F3" d="M2137.042,1241.281c-2.279,2.279-2.283,5.979-0.027,8.236c2.293,2.293,6.006,2.301,8.285,0.022
	c2.257-2.257,2.271-5.992-0.022-8.285C2143.02,1238.999,2139.298,1239.025,2137.042,1241.281"/>
<path fill="#F3F3F3" d="M2159.37,1152.98c-2.472,2.473-2.486,6.496,0.022,9.005c2.473,2.472,6.519,2.481,8.99,0.009
	c2.495-2.495,2.486-6.541,0.014-9.014C2165.887,1150.473,2161.865,1150.486,2159.37,1152.98"/>
<path fill="#F3F3F3" d="M2180.076,1063.778c-2.688,2.688-2.674,7.026-0.035,9.665c2.68,2.68,6.989,2.666,9.679-0.021
	c2.643-2.645,2.651-6.95-0.028-9.629C2187.053,1061.153,2182.72,1061.136,2180.076,1063.778"/>
<path fill="#F3F3F3" d="M2194.109,970.975c-2.881,2.881-2.846,7.574,0.049,10.47c2.882,2.881,7.548,2.89,10.43,0.009
	c2.903-2.904,2.922-7.597,0.04-10.479C2201.733,968.08,2197.013,968.07,2194.109,970.975"/>
<path fill="#F3F3F3" d="M2201.505,874.22c-3.219,3.219-3.232,8.537,0.021,11.792c3.242,3.24,8.546,3.213,11.765-0.005
	c3.285-3.287,3.29-8.568,0.05-11.809C2210.086,870.944,2204.791,870.935,2201.505,874.22"/>
<path fill="#F3F3F3" d="M2204.636,774.792c-3.457,3.457-3.466,9.112-0.01,12.569c3.479,3.479,9.098,3.434,12.555-0.023
	c3.457-3.456,3.502-9.075,0.023-12.555C2213.748,771.327,2208.092,771.335,2204.636,774.792"/>
<path fill="#F3F3F3" d="M2204.83,673.188c-3.65,3.65-3.659,9.638,0.027,13.324c3.686,3.686,9.659,3.664,13.31,0.013
	c3.722-3.721,3.723-9.673,0.037-13.359C2214.516,669.48,2208.551,669.466,2204.83,673.188"/>
<path fill="#F3F3F3" d="M2203.352,569.774c-3.983,3.982-4.01,10.537-0.022,14.524c4.01,4.01,10.519,3.937,14.501-0.045
	c3.987-3.987,4.009-10.447,0-14.457C2213.844,565.81,2207.339,565.788,2203.352,569.774"/>
<path fill="#F3F3F3" d="M2201.289,465.339c-4.324,4.324-4.359,11.391-0.026,15.725c4.347,4.346,11.427,4.324,15.751,0
	c4.347-4.348,4.32-11.377-0.027-15.725C2212.653,461.007,2205.636,460.992,2201.289,465.339"/>
<path fill="#F3F3F3" d="M2199.583,360.397c-4.585,4.587-4.608,12.053,0.004,16.664c4.572,4.572,12.048,4.56,16.633-0.025
	s4.576-12.038,0.004-16.611C2211.613,355.812,2204.168,355.812,2199.583,360.397"/>
<path fill="#F3F3F3" d="M2198.324,254.991c-4.896,4.896-4.932,12.88,0.014,17.823c4.899,4.901,12.892,4.873,17.787-0.021
	c4.922-4.922,4.949-12.914,0.05-17.815C2211.229,250.034,2203.246,250.069,2198.324,254.991"/>
<path fill="#F3F3F3" d="M2197.878,149.39c-5.21,5.211-5.187,13.64,0.01,18.836c5.174,5.174,13.602,5.195,18.812-0.015
	c5.188-5.187,5.161-13.61-0.013-18.785C2211.49,144.23,2203.066,144.203,2197.878,149.39"/>
<path fill="#F3F3F3" d="M2197.904,43.394c-5.569,5.57-5.605,14.659-0.022,20.242c5.593,5.594,14.69,5.566,20.259-0.004
	c5.593-5.592,5.598-14.668,0.006-20.259C2212.563,37.79,2203.496,37.802,2197.904,43.394"/>
<path fill="#F3F3F3" d="M2097.548,1650.791c-1.586,1.587-1.586,4.176,0.014,5.775c1.618,1.619,4.212,1.623,5.798,0.036
	c1.587-1.586,1.583-4.18-0.036-5.798C2101.724,1649.203,2099.135,1649.203,2097.548,1650.791"/>
<path fill="#F3F3F3" d="M2146.501,1576.773c-1.727,1.726-1.744,4.549,0,6.293c1.726,1.727,4.562,1.722,6.288-0.004
	c1.753-1.754,1.753-4.586,0.026-6.312C2151.073,1575.006,2148.253,1575.02,2146.501,1576.773"/>
<path fill="#F3F3F3" d="M2188.443,1498.482c-1.946,1.946-1.941,5.018-0.045,6.914c1.906,1.906,4.989,1.924,6.937-0.023
	c1.875-1.873,1.86-4.961-0.045-6.868C2193.392,1496.607,2190.318,1496.607,2188.443,1498.482"/>
<path fill="#F3F3F3" d="M2223.712,1416.688c-2.091,2.09-2.063,5.381-0.027,7.417c2.076,2.077,5.381,2.116,7.471,0.026
	c2.062-2.063,2.023-5.367-0.054-7.443C2229.066,1414.65,2225.775,1414.624,2223.712,1416.688"/>
<path fill="#F3F3F3" d="M2253.578,1331.984c-2.378,2.379-2.352,6.146-0.009,8.488c2.342,2.342,6.108,2.369,8.486-0.01
	c2.328-2.328,2.328-6.123-0.014-8.464C2259.701,1329.656,2255.906,1329.656,2253.578,1331.984"/>
<path fill="#F3F3F3" d="M2280.011,1245.723c-2.522,2.522-2.522,6.604-0.015,9.112c2.509,2.508,6.59,2.508,9.112-0.013
	c2.521-2.522,2.494-6.577-0.014-9.086C2286.586,1243.229,2282.532,1243.201,2280.011,1245.723"/>
<path fill="#F3F3F3" d="M2303.599,1158.059c-2.736,2.738-2.751,7.191-0.013,9.93c2.724,2.725,7.201,2.732,9.938-0.005
	s2.729-7.214,0.005-9.938C2310.792,1155.307,2306.337,1155.321,2303.599,1158.059"/>
<path fill="#F3F3F3" d="M2319.144,1066.528c-2.904,2.904-2.917,7.691,0,10.609c2.917,2.917,7.682,2.881,10.586-0.022
	c2.954-2.953,2.945-7.674,0.027-10.591C2326.839,1063.606,2322.097,1063.576,2319.144,1066.528"/>
<path fill="#F3F3F3" d="M2326.179,970.566c-3.264,3.265-3.277,8.582,0,11.859c3.277,3.276,8.622,3.291,11.885,0.026
	c3.291-3.29,3.277-8.636,0-11.912S2329.47,967.276,2326.179,970.566"/>
<path fill="#F3F3F3" d="M2327.247,871.281c-3.529,3.529-3.565,9.301-0.013,12.852c3.578,3.578,9.341,3.533,12.869,0.004
	c3.556-3.555,3.578-9.295,0-12.874C2336.551,867.712,2330.802,867.726,2327.247,871.281"/>
<path fill="#F3F3F3" d="M2324.283,769.305c-3.816,3.817-3.768,9.917,0,13.684c3.794,3.794,9.867,3.816,13.683,0
	c3.745-3.745,3.772-9.867-0.021-13.661C2334.176,765.561,2328.027,765.561,2324.283,769.305"/>
<path fill="#F3F3F3" d="M2318.927,665.28c-4.01,4.01-4.055,10.492-0.045,14.501c3.982,3.983,10.51,3.983,14.52-0.026
	c3.965-3.965,3.965-10.492-0.018-14.475C2329.375,661.27,2322.892,661.315,2318.927,665.28"/>
<path fill="#F3F3F3" d="M2312.135,559.378c-4.418,4.418-4.429,11.656,0,16.083c4.468,4.469,11.665,4.419,16.084,0
	c4.44-4.44,4.468-11.615,0-16.083C2323.791,554.95,2316.576,554.937,2312.135,559.378"/>
<path fill="#F3F3F3" d="M2305.843,452.878c-4.707,4.706-4.707,12.34-0.014,17.032c4.693,4.693,12.331,4.698,17.037-0.009
	c4.707-4.707,4.702-12.343,0.009-17.037C2318.183,448.173,2310.55,448.172,2305.843,452.878"/>
<path fill="#F3F3F3" d="M2300.443,346.019c-4.896,4.896-4.944,12.865-0.022,17.787c4.931,4.933,12.919,4.9,17.813,0.006
	c4.922-4.923,4.928-12.884-0.004-17.814C2313.308,341.075,2305.365,341.097,2300.443,346.019"/>
<path fill="#F3F3F3" d="M2296.193,238.868c-5.187,5.188-5.201,13.625-0.026,18.801c5.21,5.21,13.647,5.195,18.835,0.009
	c5.21-5.21,5.174-13.599-0.036-18.808C2309.792,233.694,2301.404,233.658,2296.193,238.868"/>
<path fill="#F3F3F3" d="M2293.083,131.612c-5.57,5.569-5.58,14.633,0.014,20.225c5.596,5.596,14.645,5.574,20.214,0.004
	c5.597-5.596,5.619-14.646,0.022-20.242C2307.742,126.008,2298.679,126.016,2293.083,131.612"/>
<path fill="#F3F3F3" d="M2291.559,24.643c-5.884,5.886-5.906,15.465-0.013,21.356c5.893,5.894,15.472,5.872,21.355-0.012
	c5.858-5.858,5.858-15.414-0.036-21.309C2306.973,18.787,2297.416,18.786,2291.559,24.643"/>
<path fill="#F3F3F3" d="M2232.378,1651.895c-1.775,1.775-1.767,4.67,0.045,6.482c1.78,1.779,4.661,1.775,6.438,0
	c1.775-1.775,1.802-4.68,0.021-6.46C2237.072,1650.105,2234.154,1650.119,2232.378,1651.895"/>
<path fill="#F3F3F3" d="M2281.75,1576.809c-1.946,1.947-1.933,5.08-0.013,7c1.945,1.945,5.078,1.959,7.025,0.013
	c1.946-1.946,1.91-5.058-0.036-7.004C2286.807,1574.898,2283.697,1574.862,2281.75,1576.809"/>
<path fill="#F3F3F3" d="M2325.529,1498.531c-2.09,2.09-2.05,5.484,0.049,7.583c2.092,2.091,5.449,2.095,7.539,0.005
	c2.091-2.09,2.113-5.475,0.022-7.565C2331.041,1496.455,2327.619,1496.441,2325.529,1498.531"/>
<path fill="#F3F3F3" d="M2363.344,1417.118c-2.4,2.4-2.369,6.28,0.045,8.693c2.399,2.401,6.307,2.459,8.707,0.06
	c2.423-2.424,2.41-6.375,0.009-8.775C2369.691,1414.682,2365.767,1414.695,2363.344,1417.118"/>
<path fill="#F3F3F3" d="M2396.235,1333.521c-2.544,2.545-2.567,6.748,0.013,9.328c2.608,2.607,6.779,2.554,9.323,0.009
	c2.617-2.615,2.647-6.765,0.041-9.372C2403.031,1330.906,2398.851,1330.906,2396.235,1333.521"/>
<path fill="#F3F3F3" d="M2425.021,1248.029c-2.787,2.787-2.783,7.251-0.015,10.02c2.774,2.773,7.238,2.778,10.025-0.009
	c2.737-2.737,2.782-7.251,0.009-10.024C2432.271,1245.246,2427.757,1245.291,2425.021,1248.029"/>
<path fill="#F3F3F3" d="M2443.867,1158.31c-2.977,2.976-2.989,7.862,0,10.851c3.003,3.004,7.861,2.963,10.838-0.012
	c2.998-3,3.038-7.858,0.036-10.861C2451.751,1155.298,2446.866,1155.311,2443.867,1158.31"/>
<path fill="#F3F3F3" d="M2452.293,1063.839c-3.362,3.362-3.375,8.824,0,12.2c3.394,3.395,8.854,3.381,12.218,0.018
	c3.385-3.385,3.399-8.846,0.005-12.24C2461.14,1060.441,2455.678,1060.454,2452.293,1063.839"/>
<path fill="#F3F3F3" d="M2453.027,965.801c-3.557,3.556-3.592,9.373,0,12.964c3.587,3.587,9.395,3.542,12.951-0.013
	c3.6-3.602,3.623-9.387,0.035-12.974C2462.421,962.187,2456.627,962.199,2453.027,965.801"/>
<path fill="#F3F3F3" d="M2447.949,864.402c-3.817,3.817-3.795,9.989,0,13.783c3.815,3.816,9.987,3.839,13.805,0.022
	c3.794-3.794,3.815-10.011,0-13.827C2457.959,860.586,2451.742,860.608,2447.949,864.402"/>
<path fill="#F3F3F3" d="M2439.078,760.267c-4.056,4.055-4.068,10.722,0.021,14.812c4.096,4.095,10.734,4.055,14.79,0
	c4.108-4.108,4.117-10.717,0.022-14.812C2449.821,756.177,2443.185,756.159,2439.078,760.267"/>
<path fill="#F3F3F3" d="M2428.203,653.839c-4.492,4.491-4.478,11.75,0,16.228c4.478,4.477,11.724,4.477,16.213-0.014
	c4.465-4.463,4.47-11.714-0.008-16.191C2439.93,649.384,2432.666,649.376,2428.203,653.839"/>
<path fill="#F3F3F3" d="M2417.074,546.197c-4.752,4.751-4.756,12.533,0.014,17.302c4.765,4.765,12.546,4.76,17.297,0.009
	c4.777-4.778,4.756-12.532-0.01-17.297C2429.606,541.442,2421.851,541.419,2417.074,546.197"/>
<path fill="#F3F3F3" d="M2406.775,437.801c-5.018,5.018-4.994,13.203,0.059,18.256c5.029,5.029,13.221,5.057,18.236,0.041
	c5.066-5.067,5.039-13.258,0.009-18.286C2420.027,432.758,2411.841,432.736,2406.775,437.801"/>
<path fill="#F3F3F3" d="M2398.012,329.116c-5.306,5.306-5.259,13.899,0.058,19.218c5.296,5.296,13.891,5.341,19.195,0.036
	c5.354-5.354,5.309-13.948,0.013-19.243C2411.961,323.808,2403.366,323.763,2398.012,329.116"/>
<path fill="#F3F3F3" d="M2390.928,220.288c-5.74,5.74-5.691,15.006,0.05,20.745c5.7,5.7,14.95,5.735,20.691-0.005
	c5.735-5.734,5.703-14.991,0.005-20.689C2405.933,214.598,2396.664,214.553,2390.928,220.288"/>
<path fill="#F3F3F3" d="M2386.309,112.237c-5.957,5.956-5.92,15.55,0.009,21.479c5.951,5.952,15.521,5.965,21.479,0.008
	c5.929-5.928,5.938-15.521-0.015-21.472C2401.853,106.322,2392.238,106.308,2386.309,112.237"/>
<path fill="#F3F3F3" d="M2383.606,4.669c-6.172,6.173-6.146,16.179,0.041,22.363c6.194,6.195,16.187,6.208,22.358,0.036
	c6.217-6.216,6.234-16.241,0.041-22.435C2399.86-1.553,2389.823-1.548,2383.606,4.669"/>
<path fill="#F3F3F3" d="M2368.889,1651.51c-1.97,1.97-1.97,5.188-0.027,7.131c1.983,1.982,5.214,1.994,7.183,0.027
	c1.97-1.969,1.957-5.201-0.026-7.185C2374.076,1649.541,2370.858,1649.541,2368.889,1651.51"/>
<path fill="#F3F3F3" d="M2418.78,1575.453c-2.113,2.113-2.113,5.574,0.009,7.695c2.149,2.149,5.606,2.145,7.719,0.032
	c2.162-2.163,2.189-5.642,0.04-7.791C2424.425,1573.268,2420.942,1573.291,2418.78,1575.453"/>
<path fill="#F3F3F3" d="M2462.822,1496.141c-2.451,2.451-2.437,6.402-0.014,8.824c2.436,2.437,6.387,2.451,8.837,0
	c2.423-2.422,2.409-6.373-0.026-8.81C2469.195,1493.732,2465.244,1493.719,2462.822,1496.141"/>
<path fill="#F3F3F3" d="M2503.503,1415.342c-2.594,2.594-2.594,6.773-0.026,9.341c2.594,2.594,6.77,2.59,9.364-0.004
	c2.565-2.567,2.593-6.767-0.002-9.359C2510.274,1412.752,2506.071,1412.775,2503.503,1415.342"/>
<path fill="#F3F3F3" d="M2532.912,639.567c-4.801,4.801-4.801,12.578,0.027,17.405c4.787,4.788,12.577,4.801,17.378,0
	c4.828-4.827,4.815-12.618,0.028-17.405C2545.517,634.74,2537.74,634.74,2532.912,639.567"/>
<path fill="#F3F3F3" d="M2517.79,530.233c-5.088,5.088-5.07,13.324,0.009,18.403c5.08,5.08,13.315,5.097,18.404,0.009
	c5.065-5.066,5.092-13.346,0.013-18.426C2531.135,525.14,2522.855,525.167,2517.79,530.233"/>
<path fill="#F3F3F3" d="M2504.126,420.25c-5.376,5.378-5.376,14.025-0.027,19.375c5.354,5.354,14.025,5.377,19.402,0
	c5.353-5.354,5.331-14.024-0.023-19.379C2518.128,414.896,2509.48,414.896,2504.126,420.25"/>
<path fill="#F3F3F3" d="M2492.41,309.908c-5.785,5.785-5.785,15.153-0.021,20.916c5.771,5.771,15.126,5.76,20.911-0.026
	c5.786-5.785,5.771-15.113,0-20.884C2507.537,304.149,2498.195,304.124,2492.41,309.908"/>
<path fill="#F3F3F3" d="M2483.671,200.287c-6.027,6.028-6.05,15.798-0.021,21.824c6.014,6.016,15.769,5.979,21.797-0.049
	c5.979-5.978,6.014-15.732,0-21.748C2499.418,194.286,2489.651,194.309,2483.671,200.287"/>
<path fill="#F3F3F3" d="M2477.585,91.398c-6.315,6.315-6.324,16.528,0.014,22.867c6.315,6.316,16.529,6.308,22.845-0.01
	c6.315-6.314,6.351-16.555,0.036-22.871C2494.142,85.047,2483.901,85.083,2477.585,91.398"/>
<path fill="#F3F3F3" d="M2506.601,1649.301c-2.207,2.207-2.211,5.763,0.009,7.982c2.198,2.199,5.781,2.221,7.988,0.014
	s2.207-5.812,0.009-8.01C2512.387,1647.066,2508.808,1647.094,2506.601,1649.301"/>
</svg>
