<svg xmlns="http://www.w3.org/2000/svg" viewBox="0 0 19.14 22.4"><defs><style>.cls-1{fill:#d64ca8;}</style></defs><title>Asset 7</title><g id="Layer_2" data-name="Layer 2"><g id="Layer_1-2" data-name="Layer 1"><path class="cls-1" d="M16.74,22.4a2.41,2.41,0,0,1-1.94-1L12,17.67a1,1,0,0,1,.22-1.45l.11-.08-1.25-1.69.4-.3c.11-.08.23-.15.35-.22l.27-.17a3.3,3.3,0,0,0,.49-.41l.41-.45,1.31,1.78.15-.11a1,1,0,0,1,1.45.22l3,4.14-.08.06a2.41,2.41,0,0,1-2.19,3.4Zm-4.19-7.71,1.22,1.66-.92.67,2.74,3.8a1.41,1.41,0,0,0,2.52-.61,1.39,1.39,0,0,0-.25-1.05l-.29-.4,0,0-2.46-3.34-1,.69-1.22-1.66-.19.14Z"/><path class="cls-1" d="M7.76,15.47a7.93,7.93,0,0,1-1.18-.09A7.73,7.73,0,1,1,14,3.15,7.73,7.73,0,0,1,7.76,15.47ZM7.73,1A6.73,6.73,0,0,0,2.31,11.72a6.75,6.75,0,0,0,9.42,1.44h0A6.73,6.73,0,0,0,7.73,1Z"/></g></g></svg>