<svg id="图层_1" data-name="图层 1" xmlns="http://www.w3.org/2000/svg" width="332.969px" height="85.839px"  viewBox="120 120 90 90"><defs><style>.cls-1{fill:#2f3a50;}</style></defs><title>未标题-1</title><path class="cls-1" d="M91,147.72l13.56,34.61,12-31.24,12.35,31.37,13.23-34.74h3.76l-17.51,45.91H126l-11.21-28.4L104,193.64H101.4L83.33,147.72Z"/><path class="cls-1" d="M151.63,147.72h7.81l17.71,34.93h.36l17.38-34.93h7.68v45.52h-7.68V156h-.26L176,193.24h-1.57l-18.89-37H155v37h-3.37Z"/><path class="cls-1" d="M221,170.63a24.09,24.09,0,0,0,1.44,8.59,18.78,18.78,0,0,0,4,6.42,16.86,16.86,0,0,0,6,4,19.79,19.79,0,0,0,7.47,1.39,11.82,11.82,0,0,0,4.61-.93,18.11,18.11,0,0,0,4.13-2.42,20.34,20.34,0,0,0,3.41-3.37,22.25,22.25,0,0,0,2.48-3.81l3.2,2.06a30.4,30.4,0,0,1-3.32,4.41,21.7,21.7,0,0,1-4.43,3.74,23.06,23.06,0,0,1-5.69,2.6,24,24,0,0,1-7.09,1,28.12,28.12,0,0,1-7.09-.87,26.05,26.05,0,0,1-6.13-2.42,22.9,22.9,0,0,1-8.72-8.56,23.78,23.78,0,0,1-2.32-18.07,23.81,23.81,0,0,1,2.39-5.69,23.36,23.36,0,0,1,3.81-4.89,23.77,23.77,0,0,1,5.08-3.81,26.16,26.16,0,0,1,6.19-2.47,28.27,28.27,0,0,1,7.19-.88,21.77,21.77,0,0,1,6.68,1,23.88,23.88,0,0,1,5.59,2.6A22.72,22.72,0,0,1,254.3,154a28.63,28.63,0,0,1,3.37,4.41l-3.3,2.22a22.93,22.93,0,0,0-6.41-8.1,13.37,13.37,0,0,0-8.1-2.58,18.91,18.91,0,0,0-7.38,1.44,17.5,17.5,0,0,0-6,4.12,19.42,19.42,0,0,0-4,6.5A23.9,23.9,0,0,0,221,170.63Z"/></svg>